<mxfile host="app.diagrams.net" modified="2023-10-03T11:37:01.974Z" agent="Mozilla/5.0 (Macintosh; Intel Mac OS X 10_15_7) AppleWebKit/537.36 (KHTML, like Gecko) Chrome/116.0.0.0 Safari/537.36" etag="eBaGsyMzYRQZgxYW0MlN" version="21.8.2" type="github">
  <diagram name="第 1 页" id="g6TbRStM1NOtt2A_1AF3">
    <mxGraphModel dx="2280" dy="1453" grid="1" gridSize="10" guides="1" tooltips="1" connect="1" arrows="1" fold="1" page="1" pageScale="1" pageWidth="827" pageHeight="1169" math="0" shadow="0">
      <root>
        <mxCell id="0" />
        <mxCell id="1" parent="0" />
        <mxCell id="rDMtgLqNduICIHuUhlhb-2" value="" style="shape=image;verticalLabelPosition=bottom;labelBackgroundColor=default;verticalAlign=top;aspect=fixed;imageAspect=0;image=data:image/png,iVBORw0KGgoAAAANSUhEUgAAAtcAAAGuCAYAAABbSyrJAAAACXBIWXMAAAsTAAALEwEAmpwYAAAgAElEQVR4nOzdeVxV1fo/8M+BwySHGQQcMAcQQQkVFa/zhOaAZFfTnyOW3m4k6vVevYqVpakVltbNpG+WAyCKY5HgrIg5EE4RMqkIosyTzMM5vz+IDScOcJCDIHzer5evDmuvvfbaaJyHdZ79LBEAxMTEyEBERERERM+td+/eIhEDayIiIiIi1RBXvbCxsWnJeRARERERvbRiY2MBAGotPA8iIiIiojaDwTURERERkYowuCYiIiIiUhEG10REREREKsLgmoiIiIhIRRhcExERERGpCINrIiIiIiIVYXBNRERERKQiDK6JiIiIiFSEwTURERERkYowuCYiIiIiUhEG10REREREKsLgmoiIiIhIRRhcExERERGpCINrIiIiIiIVYXBNRERERKQiDK6JiIiIiFSEwTURERERkYowuCaidq2wsBDh4eFNGuPhw4c4cOAAAgMDkZycLLRLpVJcv35dqTHS09MRFBSE/fv3IzIyElKpFAAgk8lw7dq1Js1v9+7dteZx8+ZNXLp0CRUVFQ2en5GRAX9/f+Tl5dXbb9u2bUhPT2/SXImIXnbilp4AEVFL8vHxgZeXF6KiovDKK68ofV5GRgbeffdd/PTTT5BKpTAxMYFIJEJubi50dHQwa9YsPH78GGlpaXUGx4WFhfjoo4/g4+ODZ8+ewdDQEDo6OkIQO3LkSFhZWeHQoUNIS0uDmlrj1kMeP36MGTNmQEdHB5s2bQIAREVFYdiwYRCJRCgrK0NFRQUuXryIwYMHKxxDJpPBxcUF2dnZeO211+q9nrq6OkaMGIGPP/4Ys2bNatRciYjaClFMTIwMAGxsbFp6LkREL5RMJoOlpSVSU1OxaNEi/Pjjj0qdd+HCBUyePBklJSWwt7dHYmIiBg4cCCsrK6SkpCA6OhpPnz5FaWkptLW1UVBQUCswvn//PoYPH46UlBR07NgRRUVFcHJyEsZ48OABUlNThUA7IyMDJiYmSt/b48ePMWDAAHTq1AmvvvoqfHx8UFJSgl69eiEzMxN9+vSBnZ0dDh8+DIlEgszMTGhqatYa57PPPsPGjRthbW2N8PBwqKur13nN4uJizJ8/H8HBwVi6dCm++OILpedLRPSyi42NrXwRExMji4mJkRERtTcnT56UAZABkGloaMiKiooaPOfGjRsykUgkAyATiUSy2bNny548eSLXp6ioSLZ27Vph7KysLLnjSUlJMh0dnQbH+Oijj4Qxbt68qfR9FRUVyXr16iXT0dGRLVy4UFZeXi6TyWSywMBA4ZqZmZkymUwm09TUlAGQ7d+/v9Y40dHRMgMDA1nHjh2Vfp+oqKiQ9e/fX6ahoSG7du2a0nMmInrZVcXUzLkmonZr48aNEIlEAICysjLs37+/3v7l5eVwcXGBTCYDAMyZMwf+/v6wtLSU66etrY3NmzcLqRHZ2dnCMalUiqlTp6KoqAgA8Prrr9c5xgcffIB//etfAICkpCSl72vRokW4f/8+NDU18cMPPwirzVeuXAEA6OjowNjYGABgYGAAADh8+LDcGBUVFZg+fTo0NDTg5eWl9KebampqOH/+PCoqKuDq6orS0lKl501E1BYwuCaidik2Nha//fYbdHV1hbYPPvig3nO2bt2KnJwcAICuri6+/PJLIThX5ODBg9DV1ZULrk+fPo07d+4AADQ0NPDtt9/WO8a2bdtgbGws96BkfZKSknDo0CHIZDIsXrxYLh3l2bNnACDXpqGhAQBISUmRG+f9999HcnIybG1tsWzZMqWuXcXQ0BAjRoxAWloa1q1b16hziYhedgyuiahd+vzzz1FRUYHly5ejW7duACoDzPoqh/j4+AivZ82ahY4dOzZ4nS+//FIuuN6+fbvwetiwYUqP0bVr1wb7VfWtWllfuXKl3LFBgwYBgNxqckFBAQDAyMhIaLt16xa++eYbSCQS+Pv71xv81+Wf//wnAOCLL75Q+hcDIqK2gME1EbU7z549w/79+6Guro4VK1bgk08+EY6tWbOmzvNqBokTJ05U6lqLFy/G0KFDha9DQ0OF15MnT1ZqjLlz52LMmDEN9istLRV+ATA3N68VkLu5uQlVQvLz85GUlITc3FwA1fdTUlKC119/HVpaWti6davSQf1fjRw5EkDlQ6P79u17rjGIiF5GDK6JqN354YcfUFFRgcmTJ8PU1BRz586FtrY2AODixYvIzMysdU5GRoawIgwAdnZ2Sl1LXV1dSD0pLCwUcq0BYODAgY0eoz73799HYWEhAKBz5861jpubm2P+/PmQyWQYO3YsRo4cKYy9YMECAJWr3ZmZmXBycsLChQuVmp8iZmZmwmtlq7AQEbUFDK6JqF2RyWT49NNPIRKJsGHDBqG9KpCUyWQKS8j9NSe5MWXxqlTlPFepGYCqwsOHD4XXioJroDLQdXNzg6amJpycnGBiYoJDhw7B2NgYYWFh8PX1hZ6eHvbs2QMAuHr1KhwdHYWSfufOnVNqLmKxWMjnbszDmERELzsG10TUrpw+fRrp6ekwMzNDTEwMDh48iIMHD2LIkCFCnx07dgg7JFbp27ev3NdVgWNjmJubyz1MGB8f3+gx6lMzuK5rQxw1NTUcO3YMBw4cwDvvvIPY2FhMnjwZBQUFmDVrFnR0dPDNN9+gY8eOiI2NxZgxY5CYmIj+/fsjKSkJEydOxO3bt5WaT4cOHQBUppoQEbUXDK6JqF3ZtGkTKioq8OzZMyxbtkz4s2bNGiFgLigowC+//FLr3JoBdWRk5HNd39DQUHit7Cqwsmo+ONnQynrXrl0xbtw4oRTf0qVLkZ+fj7Fjx+L1118HUPlQYklJCXR0dHDo0CG8/fbbqKiowMyZM5WaT1UqS810GiKito7BNRG1G/Hx8bhx4wZ0dHQwfvx4DB8+XO5P1UN4APCf//yn1vk1az0fO3bsueYwevRo4XVYWNhzjVEXc3Nz4XVVyUBlBAcH4+eff4ahoSF27doltFdVThk1ahR0dXUxadIkAJW53eXl5Q2OW1xcDADPVW2EiOhlxeCaiNqNqvJ7K1euxNGjR2v9OXv2rLCSGxMTUytt4+DBg8JrZStgTJo0SS7QrVkb+/fff0dUVFSDY/znP/9R6qHATp06Ca+VLX+XnZ2NhQsXQkdHB7t37xbuv6SkRMgRrxpXIpEAqFyJTkxMbHDsqvOrHhYlImoPGFwTUbuQmZmJH3/8ESKRCCtWrKiz3+LFi4XX//73v+WO2dvbo3///gCA3NxcjBo1qt5rzp49G927d0dQUJDQZmVlJZTgk0qlGDp0KNLS0uoc47PPPkNYWJhcrnZdhg0bJrx+8uRJg/0BYN68eSgtLcXrr7+OCRMmCO1aWlpywTQgn3bSkGfPnqGsrAzA8z38SUT0smJwTUTtwsqVK1FWVgZ7e3uYmprW2a9m+bmffvoJv//+u9zxixcvCukXoaGhGD9+fK1V4pMnT2LAgAEoKChAYWEhZs+eLXfc399f2LgmLy8Pjo6OOH/+vFyfiIgITJ8+HXv27EGXLl0wd+7cBu/R0NBQuDdlguuAgACEhobCxMREYYWUV199FUDlKj4A3L17F0BlmkdD9a9rXr9mnW8ioraOwTURtWkxMTHo3bs39u/fDwD4448/4ObmhvT09Fp9v/76a4wfP174WiaTwdHREePGjRMqXujr6yM+Ph5OTk4AKh9K7NKlCyQSCczMzKCuro45c+bA0dER6urq2Lx5M8Risdx19PX1ERkZKax8p6SkYNy4cdDW1oapqSk0NDQwdOhQZGVloUePHti+fXutMeri6ekJoLL8XX0PEqakpMDDwwMdOnSAr6+vUNmjpv/7v/+DSCTCmTNnsH//fmzevBkA4OTk1GC1lAsXLgiv//Wvfyk1dyKitoDBNRG1ab1794a7uzssLCwAAKampujdu7fCvjNnzoSbmxt0dHSENl1dXXTp0kWun0QiwfXr17FhwwY4ODhATU0NGhoaMDY2Ru/evYUg2dfXt8560xKJBOfPn8eGDRvQr18/YTMXQ0NDdO/eHYaGhhg6dCgCAgLqHEORdevWwcDAAOXl5YiIiKiz3+HDh2FkZIRFixbVubLcp08ffPXVV9DS0sLGjRthbm4OfX19fPfddw3Oo2olvHv37nB2dlZ6/kRELztRTEyMDJB/Cp6IiJRXWFiImzdvIiMjA926dUOfPn0a/RCfKsaoEhoailGjRmHs2LF1lvvLzs7GunXrsGPHDmhqatY73pUrV3Ds2DHo6urC3d29zhraVW7fvo0BAwZAJpNh7969wu6PRERtWWxsLAAG10REbdLrr7+OoKAgnDt3Tq7EYHOTyWR47bXXcOnSJYwbNw4///wzS/ERUbtQFVwzLYSIqA06ePAgTExMMG/ePNy4ceOFXLO8vBxTp07F77//jm7duuHAgQMMrImo3WFwTUTUBmlqauK3335D3759sXr1avz222/Nfs133nkHEokEPXv2RFBQEPT09Jr9mkRErQ2DayKiNqpLly4ICgrCzJkzIZVKm/167u7uGDhwIM6ePYtevXo1+/WIiFoj5lwTEbUDFRUVUFdXf+mvQUTUWjHnmoioHXkRQS8DayIiBtdERERERCrD4JqIiIiISEUYXBMRERERqQiDayIiIiIiFWFwTURERESkIgyuiYiIiIhUhME1EREREZGKMLgmIiIiIlIRBtdERERERCrC4JqIiIiISEUYXBMRERERqQiDayIiIiIiFWFwTURERESkIgyuiYiIiIhUhME1EREREZGKMLgmIiIiIlIRBtdERERERCrC4JqIiIiISEUYXBMRERERqYhYFYNIpVKEhYXVedzZ2RmampoKj+3duxedOnXChAkTGn3dppxLRERERKRqKgmuQ0JCMGXKFIXHJBIJ0tPTFR47d+4c3N3dsWbNmkYHyE05l4iIiIioOagkuPbx8cG8efPg7OwMY2Njod3X1xcGBgbQ1taudU52djZWrVoFmUzW6Os15VwiIiIioubS5OA6JSUFgwYNwvr162sd27JlC5YsWaLwPA8PD3h5eWHWrFmNvmZTziUiIiIiai5NfqDRwsJCYWAdHR2NhIQETJo0qdYxPz8/WFlZYcyYMY2+XlPOJSIiIiJqTipJC1Hk8OHDcHV1rZUSkpiYiN27dyMkJAR5eXmNGrMp5xIRERG1Vw8fPkRSUpLCY5aWlrC2tlZ4LCkpCT4+Pvjoo4+grq6u9PUuX76MDh06YODAgXX2iY2NRUpKilzbkCFDoKWlpfR1WqNmC64DAwOxceNGuTapVIp33nkHO3furLN6SF2aci4RERFRe/bmm28iPDxc4bFNmzbBy8urVrtUKsWCBQtw8eJFvP/++0oF1+fOncPGjRtx6dIlfP/993UG18XFxRg9ejSePn0qtNnZ2SEyMlLJO2q9miW4jo2NRUJCAiZOnCjXvm3bNkybNg22traNHrMp5xIRERG1V7du3UJmZiY+/PBD9OzZE2JxZfhXWFiIJUuWYObMmQrP++KLL3D37l2lr1NSUgIDAwO4uLjg0qVL9fb9/vvv4ebmBnt7e6HNyckJIpFI6eu1Vs0SXAcGBmL69Olyy/p37tzBtWvXcOTIkUaP15RziYiIiNqzM2fO4MKFC7CyspJrP3r0KBwcHGBjY1PrnDt37uDChQt488038e233yp1HS0tLTg5OaGgoKDefiUlJfD398fFixfbZDZCs+zQGBgYWKuSxyeffILQ0FBYWVkJfxwdHQEAO3fuhJWVFc6cOaNwvKacS0RERNSerV69ulZgDSiO14DK4NfT0xPfffcd1NQaHyo2FDD/8MMPePToET744AOEhoY2evzWTuUr13FxcXj06BFcXFzk2mfMmAE7Ozu5toKCAnh7e6Nfv34YP368wr/4pp5LRERERPKKiooQFBRU6/k4AFi7di2WLVuGzp07P9fY9aV2SKVSeHt748mTJ/j000/x6aefYurUqdi9ezc6duz4XNdrbVQeXFdVCfnrby2zZ8+u1TcjIwPe3t4YMWIENmzYUOeYTTmXiIiIiOSFhITA2toavXr1kms/d+4ccnNz8fe//71ZrqumpoZ79+7h3r17uH37Nj788EMEBQXB2dkZd+7cgZ6eXrNc90VSeVpIXR8xNMbly5cxePBgXL58WUWzIiIiIqIqiuK17OxsbNy4ETt27GjWa2tqauLVV1/FwoULcevWLbi6uuLhw4dtZrFUpcF1fHw8EhISMGHChCaNExERgfDwcERERKhoZkREREQEVJbBCwoKqlUlZNmyZdi6dSskEskLm4uRkRGOHTsGS0vLNvP8nErTQiQSCU6fPq30k5+mpqaQyWS12pcvX44JEybUyrNW5lwiIiIiqltISAhsbGzQs2dPoS0qKgqHDh2q9YBhdnY2AMDa2hp9+/bFyZMnVT4fNTU1zJo1C4GBgSofuyWoNLi2sLCAhYVFk8cRiURydQ+JiIiISDUUpYQYGxtj3bp1tfqePHkS4eHhWLBgAbp06dJscxo4cCASEhKabfwXqdl2aCQiIiKi1qWkpARBQUHYtGmTXLuFhYXCnOeMjAyEh4fj/fffV3pb8ufJLDh//jwWL17c6PNao2apc01ERERErc+pU6dgY2OD7t27N2mcBQsWYMGCBQqPFRcXy/23pvPnz+ONN97A5cuXhSB8586d0NfXh6ura5Pm1Fpw5ZqIiIionVBFVbfy8nIEBwcLr6u2UweA3bt3w9fXF0Bl0FxWVgYPDw9oaGgAAPT09HDu3DkcPXoU3bp1g42NDebOndvsFUpeJFFMTIwMgMKtL4mIiIio7bhy5Qrs7OxgZGTUpHFSU1MBAObm5o0+VyqVIiYmBpaWljA0NGzSPFqT2NhYAAyuiYiIiIiarCq4Zs41EREREZGKqCTnWiqVIiwsrM7jzs7Odda+3rt3Lzp16qTUxjPl5eX4+eefERMTg65du2Ly5MlN/liDiIiIiEhVVBJch4SEYMqUKQqPSSQSpKenKzx27tw5uLu7Y82aNQ0G11lZWRg/fjxu3boltJmbm+PQoUMYOXLk80+eiIiIiEhFVBJc+/j4YN68eXB2doaxsbHQ7uvrCwMDA2hra9c6Jzs7G6tWrVK6FuKKFSswduxY+Pr6wtLSEl999RU2bNiA2bNnIzY29oVu1UlEREREpEiTg+uUlBQMGjQI69evr3Vsy5YtWLJkicLzPDw84OXlpVQ5mJKSEohEInh7ewttH374IY4ePYq7d+/i+vXrGDdu3PPfBBERERGRCjT5gUYLCwuFgXV0dDQSEhIwadKkWsf8/PxgZWWFMWPGKHUNqVSKr7/+ulZ7VfFyRSvjREREREQvWrNtInP48GG4urrWCnwTExOxe/duhISEIC8vT6mxdHR0oKOjU6tdXV0dWlpacHJyUsmciYiIiIiaotlK8SnaAUgqleKdd97Bzp0766we0hhXrlzBW2+9pfRe90REREREzalZVq5jY2ORkJCAiRMnyrVv27YN06ZNg62tbZOvERkZiV9//RW///57k8ciIiIiIlKFZgmuAwMDMX36dLkV5Tt37uDatWs4cuRIk8eXSqX4z3/+g4MHD8pVJyEiIqKXx8OHD5GUlKTwmKWlJaytrYWvS0pKEBwcjISEBIwcORIDBgxQ+jrPnj3DpUuXcO/ePbz66qsYP3481NRqf3gfFxeHs2fPori4GM7Ozhg6dGjjb4ravWbZ/tzR0RGbNm3C1KlThbZZs2bhwoULcrnTUqkUycnJ0NfXh4GBAXbv3q3UZjKrVq1C37594e7urrI5ExER0Ys1ePBghIeHKzy2adMmeHl5AQAuXLiAN954A5qamkhNTYWamhq+/vprvPvuuw1eIz4+Hm+++SZmzJiBIUOG4JNPPoGWlhYOHjwIAwMDoZ+Pjw88PT1RWloqtM2dOxf79u1TGIi3R8+KK+B7LQXqaiLMH2oBHQ1+X2qq2v5c5SvXcXFxePToEVxcXOTaZ8yYATs7O7m2goICeHt7o1+/fhg/fjysrKwaHP+7776DpaUlA2siIqKX2K1bt5CZmYkPP/wQPXv2hFhcGZIUFhZiyZIlmDlzJgAgNzcXR44cQVxcHIyNjXH+/HlMmTIFGzduxNKlS4XzFCktLYWLiwvmzp0rBOr9+/dHjx49sHr1avj4+ACorHC2c+dO+Pv7w8XFBffu3cPChQvh5+eH/v37Y9WqVc383Wh9biflI7eoHMN7GUBdTQQAOHcvC1ficwEA3Yy1MbEvswcUUXlwXVUl5K8PLM6ePbtW34yMDHh7e2PEiBHYsGFDg2P/+OOPSE5OxkcffSTXHhYWhgEDBqBDhw5NmjsRERG9GGfOnMGFCxdqLawdPXoUDg4Owifq6enp8Pb2FqqPjRs3DjNmzMDBgweRk5MDU1PTOq/h6+uLhw8fypUFNjExwZIlS/Dll19ixYoV6NOnD44fP469e/fC0dERQOWK+ubNmzFjxgwcP368TQfXJeVSPCuugKlEQ2iLTC6A96lEAEB2QRnc+psBAF4xrcw+UBMB3UxZBrkuKg+uAwMDsXHjxiaNcfnyZaxatQrbtm3DiBEjAFR+XLN161YsXboUW7ZsAVCZf/X48WM8ePAA58+fb/LciYiI6MVYvXq1wva/Vhvr1atXrT6dO3fGmDFj6g2sAeD69esAgD59+si1Ozo6QiqV4uLFi+jTpw/c3d1hbm4u12fq1KkwNjZu03tp5JdUYN3RB8gqKMOcweaY4mACACiXVu+eXfO1Y1cJPp/ZC2I1Ecz0NGqNR5VUGlzHx8cjISFBqbzp+kRERCA8PBwREREYMWIE9u/fj3feeQcAsG7dulr9FW0wQ0RERC+XoqIiBAUF1btI9+zZM0RGRsLPz6/B8XJzK1MYHj9+LFcAoWq1PDo6GgBqBdYAIBaLIZVKMWzYsEbdQ2t1MDwN4Ql5eL2/GYb1qsw1f5pbiqyCMgDAgRupOHAjtdZ5x29l4PitDJXPx/dtu4Y7vaRUGlxLJBKcPn1a6RrWpqamkMlktdqXL1+OCRMmCDna8+fPx/z581U5VSKil4ZUKkVYWFidx52dneV+7sbFxeGXX36Bubk5XF1doaurq/S1rl27huvXr0Mmk2HIkCFKVUuIjY3FzZs3kZaWBk9PT6WvRfRXISEhsLa2VrhaDQA3btzA8uXLIRaLFcYPf9W7d28AwOnTp+Hg4CC05+TkAEC9Y0RFRaGkpASLFy9uzC20uIcZxQiLz8GQ7vqwMa9Ml80tKsfPdyoD5MMRaUJw3dNMB+P7GCEhsxjxaUUtNue2RqXBtYWFBSwsLJo8jkgkgr29vQpmRET08gsJCcGUKVMUHpNIJEhPTwdQGShMnz4d165dQ05ODsrKymBra4urV6/C0NCwweu4u7sjLy8PK1euhJqaGrZu3QpDQ0Ps2bMHIpGoVv/IyEh4eHige/fuWLZsmfAAGtHzUrQBXZXIyEj4+/sjOzsbMTExcHR0xKVLl4QAWpElS5Zg27Zt2LZtG2bNmgUrKysUFxcjKCgIANC9e/c6z/3444/h5eWlVLGFllAhlSEmpRCdjbRgoFMdzn1xJhHZBeUIjcmBzwJbqIkAPW0xbMw7IDa1EE7d9IW+aiJg0TBLAMC876Ne+D20Vc22/TkREamGj48P5s2bB2dnZ7mPtn19fWFgYCDkhO7atQtLly7FiRMnkJGRAU9PTwQEBMDX1xfvvfdevdfw8/PDsWPHkJiYCH39yjffnTt3wsrKClOmTKkV8AQHB+PNN9/E//73PyxYsEDFd0ztUVXQW1dKSN++fbF9+3aUl5djzZo1+OKLL+Dv71+ryEFNXbp0wU8//YSFCxeib9++6N+/P3r37o0rV64AAEaNGqXwvAsXLqCwsBBr165t+o2pgAzAX3+93R32FKGxOdDXVscXb1pD+8+yeLqa6sguKEcHLXXhHDUR8P7UV/CsuBz6Ogz9mhu/w0RErVhKSgoGDRqE9evX1zq2ZcsWLFmyRPh6+PDh6NevHwDAzMwMGzZsQEBAgFB7tT5Xr16Fjo6OEFgDlQ+NmZmZISEhQa5vUlIS5s6dCw8PDwbWpDIhISGwsbFBz5496+0nFovx2Wef4cCBAzh79my9wTUAjB07FklJSUhMTISZmRmSkpKwe/duDBo0SOFGNA8ePMCmTZtw7NixVlHf+lbiM3x7MRkd9TSxbsor6KBZOafk7BIAQF5xBfJLKoTgeu3kbriTlI++nXVR8wMnkQgMrF+Qlv9XQ0REdbKwsFAYWEdHRyMhIUGuxFhVYF3F0tISYrFYqXQNBwcHpKSk4JtvvhHaYmJikJaWBjc3N6FNKpVi3rx5MDU1bXJlKKKa6ksJ+St1dXUMGTIEZmZmSo9vZWUFHR0dfPHFFxCJRPj8889r9cnJycGKFSvg5+cn94vmi5BfUoHvLz/Bnl+forRcKrSHxuWisFSKhMxixKYWCu3uwywxpLs+Fg+3lCujZ6AjxkgbQxjrsppHS2FwTUT0EqraU6C+MmEBAQHYvHmzUNK0PjNmzECnTp2wfPly7NixA3l5eXB3d8d3330nt4Pv7t27ERoaCnd3d6Snp+PkyZO4evUqysrKVHJf1D6VlJQgKChI6bx9qVSKmzdvYtq0aY26TmRkJPbu3YsNGzbUSgnJysqCu7s7duzYIff8WHl5ucrL/f7xpADXH+ShRpU7nIrMwsWYHJyNykbYnxu1AMCY3obQ1VJHz446wgOKAPCKqTaWjeuCsbZGKp0bNR0/HyAiegnVt6dAbm4ufvjhB6xdu1bYga4hpqamCA4OxqRJk7BixQp4e3sjICCgVhmyqiDj7t272Lp1KzIyMnD48GE4ODjgxIkT6NSpU9NurIW11sosubm5OHr0aJvdnfjUqVOwsbFR+IDhb7/9hl9//RXz58+HkZERpFIpdu7cCVtb21rfj6o0pX379tUaJzY2Fq6urti8eY0+W0AAACAASURBVDNWrlwpdyw9PR3jx4+Hk5MTAgICAFT+W8jPz8fZs2fx8ccfP9d9lVXIUFRaIZeOEZlcgK3BjwAAc4eY47V+lbWluxhpAajMrbY00BL6O3SRwGd+3Q9tUuvD4JqI6CUTGxuLhIQETJw4UeHxvXv3IiwsDFKpFIsWLcLt27fx5ZdfNjiug4MD/vGPf2Dnzp14/Pgx1q1bh6NHj8LExEToc+PGDVhYWODbb78VKpCMGzcOb731Ft59910cP35cNTfZQlpbZZasrCzs2LEDX331FSQSSZsNrutLCQkNDcWqVavg5eUFFxcXpKSkYNq0aQgODpbLiS4vL0dwcLDwWiwWIycnB+fOncPFixeRnJyM/fv31/qFsaSkBKNHj0ZUVBTu3r1b6/rm5ubPtX9HfkkFvI49QGZ+GRYNs8T4PpUrzEWlFUKfgtLq9I8hPfRhadgDGupqsDRQrqQxtU6imJgYGQC5j/1epMauEtS0d+9edOrUqcmb1hARvUw++eQTxMTEKFydq+mPP/7AhAkTkJ2djczMTHTo0KHe/uvWrUNCQgJ27dqFWbNm4dSpU+jfvz/CwsLQoUMHZGVlwcTEBE5OTggPDxfOKy0thYGBAYqLi5Gdna1UcNlaTZ8+Hfr6+nVWZvH39wcAfPvtt+jatSumTJkiV5nl66+/Vqoyi4eHh1xlluTkZFhZWeHAgQNyQeYff/wBbW1tDB8+HGKxGElJSc1w1y3vypUrsLOzg5GR4hSHxMREpKam4pVXXqk3zzo1tXITlKpNYR49eoSUlBRYW1vL/X2q2uGIdNxKfAY3R1MM6l75d3rvaSE++SUBQOXOhv+eWFnSTwbgbFQWCkqkeK2fMbTErSND90WX4muLm8hUPTze4ivXyq4S/NW5c+fg7u6ONWvWMLgmonYlMDAQmzZtarCfvb091q9fDw8PD1y5cqXen5VnzpzB559/jqysLOjp6Qn5r8ePH8fhw4exYMEC6OrqQiwWQyKRyJ2rqakJJycnhIWFISEhAY6Ojk2+x5bQGiuzVO35YGtri/j4+Oe5rZdCQ7sgWllZKVVv+q87LXbr1g3dunVr0txqSswqxrX7eRjUXR/dTSufd8guLMfxW5WxyqHf0oTg2sZcB8OtDZCUVYKpr1Zv0y4CMMGu+QJ9anktHlwrW7+1puzsbKxatUqp3ZmIiNqSuLg4PHr0CC4uLkr1rwpaGqqq4OfnBwcHB+jp6QGoLHfm7++P3r1748CBA1iwYAG0tLTQu3dvxMXF1Trf0dERYWFh6Nq1ayPvqPV4kZVZvvnmG3zzzTfw8PAAoLgyS03K7nxMqlEhleFBehEsDbUg0VIX2j8PSUR2YTkuxmTjm3m9IQKgr62OV0y0kZBZDIcu1b94qquJ8M6ozi0we2ppLRpcN2aVoCYPDw94eXkpXbKHiKitqKoSomywFR4ejh49ejS4621OTg5SU1Mhk8mEnF8dHR2MHz8eT58+FfpNmzYNW7duxaNHj+RWBG/evIkhQ4bI5We3Fc1RmeWjjz7C8uXLUV5eDnd3d4WVWWpStEMmNZ8fwp7iUmwOjHU14D2zFzTFld9/zT9TODRqpHKoq4nw0fTuyCksh7GE5e+ohUvxNWaVoIqfnx+srKwwZsyYFzFFIqJWpa4Hv6RSKbZv345Lly4JbY8fP8b333+PXbt2QUOj+k3/8uXLGDx4MC5fviy0vf3220hOTpZ7BqaiogLnzp2TW+j48MMPYWdnh9WrVwtt6enpuH37Nry9vVV2n61JfQ/b5ebm4ssvv4Snpyc6duyo1HhVlVk6duyIFStWwN7eHp9//jnefvttVU6blHD3cT7e9YvFxqAElNSoLf0osxgAkFVQhmcl5UL7usndsPBvFlg/5RW5HRPV1UQwkWjU2kWR2qcWTwtRpK5VgsTEROzevRshISHIy8trodkREbWM+Ph4JCQkKMydLigogLe3N5KTk+Ho6IgePXogJycHe/bsga2trVzfiIgIhIeHIyIiQlhpnTp1Kvbt24e5c+fCzc0N1tbWCA4Oxvr16zFjxgzhXG1tbRw+fBizZ8+Gu7s7hg8fjqCgIAQHB2P48OHN+w1oAS1ZmYVUp6CkAoERadASq+HvAztCQ70yDD53Lxt5ReXIKypHbGoh+nWuTOtY8DcLBN3JRL8uujCpsRmLiUSD+dLUoBavFqLIq6++io0bN8LV1VVok0qlmDp1Kr744gvY2toiIyMDZmZm+O9//4stW7a04GyJiF6MlJQUPH78GE5OTgqPFxcXIzo6GpqamrC2tpZbra5JJpMhKioKdnZ2tdINpFIp7t+/D6lUip49e0IsVrwGI5PJcP/+fWhoaKj0gbHWpqUqs/zVpEmT8Mcff7TZaiGqFJ1SiMLSCvS30hNWkg9HpOH4rQwAwNKRnTDSprKiTXhCHnZeSEYnQy2sn/oKdDRaR+WOlsBqIU3XaqqF/FVdqwTbtm3DtGnTaq3AEBG1FxYWFnI7x/2Vtra2UpU6RCJRnTnYampqsLa2VmqMXr16NdjvZddSlVmoYRVSGUrKZeigWR0Q19ygZdHfLDHerrK0n4V+9aYsZnrVzysMekUfuxfpQyQCUzpIZVpdcB0YGIjp06dDS6v6f4Q7d+7g2rVrOHLkSAvOjIiI2pOWrMxC9SsoqcD7xx8iPb8US0ZUr0TnFVfnR9d8PdzaAOYGmtAWq6GrsZbcWGqMqknFWt3nH4oeHPnkk08QGhoq1Lm0srISVmd27twJKysrnDlzpiWmS0REbdSLqMxSpaoyS13ac+nZ47fSseGnh7iTlC+0PcwoRtqzUshkwG+Pngntzj0MMGewOdz6m2JyP/n8deuOOrUCa6Lm0KqC67pWCWbMmAEPDw8sXrxY+DNnzhwAlbVGFy9erFRxeSIiImW1dGWWmoqLi1FcXKyK22q1knNKcPxWOh5nlwhtmQVlOByRjvi0Ihy4kSq097bogEGv6MPSQBOv9a0OotVEwBQHE/x9YEdot+P8aWpZrSotpK5VgtmzZ9fqm5GRAW9vb4wYMQIbNmx4QTMkIqL2oDVUZgGAqKgoHDp0CDdu3EBxcTE8PT0xZ84cDB06tPluvpnJZJU7HZrrawoBsAzA1pOPkF1YjnPR2fh6TmWRBX1tMToZauFJTgn6WOoKY2ioi7B8fJeWmD5Rg1pVtZABAwZg48aNdW6HXhOrhRARUXNpTZVZ2prvLz/BxZgcmOtrYusbPaGhLoIMwPIDccgqKIOJRAM7Zlc/VFtWIUNmfhnMDTT50GEzYrWQpmt11ULqWyUgIiJ6kVpTZZaX1e/J+fj+8lN0NtTCygldhdrS8WlFAIDUvFLkF1fASFcMESo3aIlIfAanbnpy42ioi2BhwO3f6eXRaoJriUSC06dPK/3giKmpabt+wIOIiKg1KCyV4vitdOhoqsH1VVOo/1l+41RkFjLzy5CZX4a41ELYdapM65g/1AInbmegf1cJjHSrwxALA01M6cdNdOjl12qC64ZWCYiIiKhl3U8rQkmFFH0sdYUUjV/uZuDk75kAAHN9TfytpwEAYGhPA/yeXABLA010N9MRxrDvpAv7Trp/HZqozWg1wTURERG1DjIZUC6VCakcgPwGLTV3OTSusT24UYfq18N6GWBwd32I1UQQPUey9IvOAQbaZh4wvXgMromIiEhQUFKBj35OQFpeKd4Z3RnOPfQBAFkFZUKfjPzq12P7GMFcXxMdNNXQo8YKNQC54JyovWBwTURE1E79fCcDkckFcOtvKpS6u59ehCc5lbWmrz3IFYLrv/UyQPqzMpSWS/FajdxoEYC+nZnmQVSFwTUREVEbl5JbKlTiMNevLByQkV+Gg+FpAICC0gpscusBALC16IC+nXWRmlcKF3tjYQyxmghvDKx/a3ciYnBNRETUZshQGUibSjSElAyZDPjklwRkF5bj/L1sbJvVCwCgr60OMz0NpD8rQ68a6RyaYjX897VuLTF9ojaBwTUREVEb8WPYU5yPzkYXIy188noPoSxexZ+Vayuk1SVsNcVq2DKjJ1LzSmFlrN0S0yVqk1QSXEulUoSFhdV53NnZWa5+dVxcHH755ReYm5vD1dUVurrK52pdu3YN169fh0wmw5AhQ17qLWCJiIiexx9PCrDnylNYGWvj3TGdhSA66mkBAOBxdgnySypgoCOGSASsfa0bIh49w5A/86eraGuooZsJA2siVVJJcB0SElLnluUSiQTp6ekAKreBnT59Oq5du4acnByUlZXB1tYWV69ehaGhYYPXcXd3R15eHlauXAk1NTVs3boVhoaG2LNnT61tZYmI2guWLGu7isqk+Pl2BiTa6nitr4lQ0u6Xu5l4mluKp7mVedG9LToAAP7fEHP8dDsDA7vpwUCn+i2+q7EWuhprtcQtELU7KgmufXx8MG/ePDg7O8PYuPrhB19fXxgYGEBbu/K34l27dmHp0qU4ceIEMjIy4OnpiYCAAPj6+uK9996r9xp+fn44duwYEhMToa9f+Zv3zp07YWVlhSlTpmDWrFmquBUiIqIWkZhVjLJyGXp2rM5//vl2Bn66kwEAMJVoYHD3yve/Qa/o4ffkfJjra6JrjZSOAVZ6GGAlv304Eb1YTQ6uU1JSMGjQIKxfv77WsS1btmDJkiXC18OHD0e/fv0AAGZmZtiwYQMCAgIQGxvb4HWuXr0KHR0dIbAGgM6dO8PMzAwJCQlNvQ0iIqIXQobKhwzVanzgWnODFo8xXTC0Z+V7nZ6OutBHT7v6LXuMrRGG9DCAtoaa3DhE1PLUmjqAhYWFwsA6OjoaCQkJmDRpktBWFVhXsbS0hFgsxsyZMxu8joODA1JSUvDNN98IbTExMUhLS4Obm1sT7oCIiOjFKCipwLqj9/H23mjcTHwmtKc9KxVep+aVCK8n2ZvgXxO64oNpr6CPZQe5sTpoMrAmao2aHFzX5fDhw3B1dRVSQhQJCAjA5s2bMWLEiAbHmzFjBjp16oTly5djx44dyMvLg7u7O7777jvY2NiocupERERNFhKZhS9OJyE+rUhoi00tRFJWCUrLpbgSlyu0j7A2xOR+JphgZwwX+xobtIiAAd30YGMuH1gTUevVbKX4AgMDsXHjRoXHcnNz8cMPP2Dt2rXw8fFRajxTU1MEBwdj0qRJWLFiBby9vREQEIBhw4apctpERER1ep6HR2uuUNd0/WEerisY70xUltzXfHiU6OXSLCvXsbGxSEhIwMSJExUe37t3L8LCwiCVSrFo0SKsXLlSqXEdHBzwj3/8Ax07dsTjx4+xbt06ZGZmqnLqRERECska7kJE1DzBdWBgIKZPnw4tLcVlfzw9PXHkyBHcunULlpaW2LVrFwoLCxscd926dYiJiUFcXBwmTpyI0NBQTJgwQalziYiImmLvlactPQUiegk0W3CtTGk8e3t7rF+/HsXFxbhy5Uq9fc+cOYPPP/8cPj4+0NfXR1BQENzc3HDr1i0cPnxYVVMnIqJ27t7TAngde4DvQp+gxoaGuPM4v+UmRUQvDZUH13FxcXj06BFcXFyU6l+VM21mZlZvPz8/Pzg4OEBPr7J+p1gshr+/P7p27YoDBw40bdJERNTuFJdJcexWOs7dy5ZL+ThxOwOPMosRGpuDB+nVDyPOcjJ/8ZMkopeOyoPrqiohNbc7r094eDh69OgBe3v7evvl5OQgNTUVMln1j0AdHR2MHz++SfMlIqK270lOCZKySuTaTtzOwJGIdPx45Slu1Xjo8NWuEgCAmZ4GOhlWpzdW1Z4mIqqPyoPrulJCpFIptm/fjkuXLgltjx8/xvfff49du3ZBQ0NDaL98+TIGDx6My5cvC21vv/02kpOTERYWJrRVVFTg3LlzchvVEBER1RT1pABrDt/H2qP3EfGoOojW0VBT+Pq1vib4Zq4NPp/ZCx00m61iLRG1USotxRcfH4+EhARMmDCh1rGCggJ4e3sjOTkZjo6O6NGjB3JycrBnzx7Y2trK9Y2IiEB4eDgiIiKEGthTp07Fvn37MHfuXLi5ucHa2hrBwcFYv349ZsyYocrbICKil1BhaQW2nExE+rNSvDe2C/p21gUAJGWXCGkfj7NLMLBbZXrhFAcTmOlpwkBHHX0sdeXGMtBptkq1RNTGqfSnh0QiwenTpxWmhOjp6SE+Ph7R0dHQ1NSEtbW13Gp1TcuXL8eECRNgZydf23P+/PmYO3cu7t+/D6lUin/+858Qi/kDkIiovTkTlYXolEK4vmqKbiaVm5Xde1qIhxmVOdKXYnOE4HqUjSGe5JRAKgMm2BkJY6iriZjqQUQqp9LI1MLCAhYWFnUe19bWhqOjY4PjiESiOnOw1dTUYG1t/dxzJCKil0dmfhn+eFIAx64S6P+5mpyaV4q9v6YAAHILy7F+6isAgN4WHWBlrI2M/FKMsDYQxtDWUIP7MMsXPnciap+47EtERK1CXlE59LTFEIkqv5bKgI9+TkBWQRm6m2pjo1sPAIBESx26WuooKKmQe+BQoqWOzTN6QAZA1ALzJyICGFwTEVErsO9qCk7/kYU+lrpYN6UbRACkMhkKSioAAPl//hcAdLXU8ekbPfEktwS9zTvUGouBNRG1JAbXRET0wsSkFML/Rip6mulgvrOFsEr9W0JlFY97TwtQWFIBXS11iNVE+PdEK0Q8ysMIa0O5cQw7iGHYgW9hRNT68CcTERGpXEm5FGejsmHYQYy/9TIQVpOP3EzH/bQi3E8rwghrQ3Q3rXwY8e8DzfDTnQwM6a4PXS11YZw+lh3Qx7L26jQRUWvF4JqIiJokNa8UMhlgYVBdKer4rQz8fCcDQGVZu6rKHfaddBH1pABmehow16/uP9LGECNt5FeniYheRgyuiYjouUU9KcCW4EeADPjPJCs4dKnc3VBdrTrzuebr6Y6m+FtPAxjoqENTzA1aiKjtUUlwLZVK5XZO/CtnZ2e52tdxcXH45ZdfYG5uDldXV+jq6tZ5bn1iY2Nx8+ZNpKWlwdPT87nGICKi55eQWQyZrPp1VXDt1t8UphINGHUQ10rrMNNTvMcBEVFboJLgOiQkBFOmTFF4TCKRID09HQAgk8kwffp0XLt2DTk5OSgrK4OtrS2uXr0KQ0PlPw6MjIyEh4cHunfvjmXLlmHmzJmquA0iImqkUTaGSMwqBgCMs63eoEWsJsLo3kzzIKL2RyXBtY+PD+bNmwdnZ2cYGxsL7b6+vjAwMIC2duUDK7t27cLSpUtx4sQJZGRkwNPTEwEBAfD19cV7772n1LWCg4Px5ptv4n//+x8WLFigiukTEdFz0tVSxzujOrf0NIiIWo0mB9cpKSkYNGgQ1q9fX+vYli1bsGTJEuHr4cOHo1+/fgAAMzMzbNiwAQEBAYiNjVXqWklJSZg7dy48PDwYWBMRERFRq9Pkp0ksLCwUBtbR0dFISEjApEmThLaqwLqKpaUlxGKxUmkdUqkU8+bNg6mpKTZu3NjUaRMRERERqVyzPap9+PBhuLq6CikhigQEBGDz5s0YMWJEg+Pt3r0boaGhcHd3R3p6Ok6ePImrV6+irKxMldMmIiIiInpuzRZcBwYGYtasWQqP5ebm4ssvv4Snpyc6duyo1Hjnz58HANy9exdbt26Fn58fRo8ejb/97W948uSJyuZNRNTalZbLcPqPLIQn5LX0VIiI6C+apc51bGwsEhISMHHiRIXH9+7di7CwMEilUixatAi3b9/Gl19+We+YN27cgIWFBb799luhssi4cePw1ltv4d1338Xx48dVfh9ERC0tu6AcMshgrFtdvu7YrXRhg5b1U19poZkREZEizbJyHRgYiOnTp0NLS0vhcU9PTxw5cgS3bt2CpaUldu3ahcLCwjrHy8rKwoMHD9ClSxe5kn3z5s2DtrY2Tpw4gZycHJXfBxFRS4p6WoDlAbFYERCHe0+rf0ZKqwpLAxApOpGIiFpMs6xcBwYGYtOmTQ32s7e3x/r16+Hh4YErV65gwoQJCvvp6upCLBZDIpHItWtqasLJyQlhYWFISEiAo6OjSuZPRA17kZtHNebc3NxcHD16FO7u7kqP39IKS6XYfjYJWQVleHd0Z/Qw0wEAxKcVQfpnHP0gvUjYjOWNAR1hrKsBU4kGelt0qGtYIiJqASoPruPi4vDo0SO4uLgo1X/YsGEAKkvz1UVLSwu9e/dGXFxcrWOOjo4ICwtD165dn2/CRPRcXsTmUY05NysrCzt27MBXX30FiUTSaoPrsPhc3E8rwmv9jNFRr/KXjztJ+Yh6UgAAOHcvWwiuR/c2wsP0YqiJgFE1NmTRFIsw0d649uBERNTiVJ4WUlUlpOaKVX3Cw8PRo0cP2Nvb19tv2rRpSE5OxqNHj+Tab968iSFDhsDExOS550xEjVe1edT//vc/+Pv7C38mT56MadOm1do8KjU1FcnJyZg9ezaio6Ph6+vb4DUac+7Tp0+xYMGCeisUvUh5ReWIePQMxWVSoe1pbil2XUzGmags7Ps1RWjvbaEDI10xNNRFGNxdX2jX11bH8vFdsGxcF0i01F/o/ImI6PmofOU6MDBQYR1qqVSKr776Cv3798eoUaMAAI8fP8b333+PXbt2QUOj+mGdy5cvY9WqVdi2bZtQpu/DDz/ETz/9hNWrV+PgwYMAgPT0dNy+fRunTp1S9W3QS+rhw4dISkpSeMzS0hLW1tbC1yUlJQgODkZCQgJGjhyJAQMGKH2duLg4nD17FsXFxXB2dsbQoUMV9svNzUVQUBAePXqErl27wtXVFQYGBo27qVboRW0e1Zhzq35Bt7W1RXx8/HPd1/Mql8ogVqvOfq6QyvD+iYfIzC9D3866+O9r3QAA2hpq0BSLUFoug1GNBxSNdTWw/U1rVEgrV6WJiOjlpdLgOj4+HgkJCQpzpwsKCuDt7Y3k5GQ4OjqiR48eyMnJwZ49e2BrayvXNyIiAuHh4YiIiBCCa21tbRw+fBizZ8+Gu7s7hg8fjqCgIAQHB2P48OGqvA16ib355psIDw9XeGzTpk3w8vICAFy4cAFvvPEGNDU1kZqaCjU1NXz99dd49913G7yGj48PPD09UVpaKrTNnTsX+/btg5pa9YdB169fh7u7O5YtW4ZZs2bhzJkzcHJygq+vL4YMGdLEO21ZL2rzqOc5V9lPzVQl4EYqgu5mYmhPfXiM6QIAKKuQIaewHACQkV9di9+ogxib3HogObsEjlZ6cuOoq4mg3mzFUYmI6EVRaXAtkUhw+vRphW9uenp6iI+PR3R0NDQ1NWFtbS23Wl3T8uXLMWHCBNjZ2cm19+nTB7dv38b9+/ehoaGBt956S5XTp5fcrVu3kJmZiQ8//BA9e/aEWFz5z7uwsBBLliwRArLc3FwcOXIEcXFxMDY2xvnz5zFlyhRs3LgRS5cuFc5TJDo6Gjt37oS/vz9cXFxw7949LFy4EH5+fujfvz9WrVol9J03bx7mz5+Pf/7znwCAXr164c6dO3B3d0dUVFQzfidajqo3j3qec0Wi5ln5vZ9WhKO30tHbvAOmOZoKVTouxlRWKrp6Pw9LRkihKVaDtoYalo3tgt8e5WFCH/nc6E6GWuhkqLiSEhERvfxUuk5iYWEBJyenOo9ra2vD0dERdnZ2dQbWQOWbo729vcI3SZFIhF69eqFbt24qmTO1HWfOnMGFCxewYcMGzJ8/H3PmzMGcOXNgZGQEBwcH2NjYAKhMJ/L29oaJiQlEIhHGjRuHGTNmIC0trcGSjsePH8fevXvxxhtvQE9PD4MHD8bmzZuFY1UyMjIQHx9fa5MkR0dHJCYmQiqVoi1S9eZRqji3scoqZLgQnY27j/Pl2v1vpOJOUj4O/ZaGpzklQvsUBxNItNTxWj8TaIqrf6Q6vaKHd0Z1Rs+OOs06XyIial34ISS1GatXr4aVlVWt9r8GfL169aq1stq5c2eMGTMGpqam9V7D3d29VsnHqVOnwtjYWG5MU1NTWFpawtvbG7m5uUL7pUuX4ObmJpc+0lY0dvOolStXKj12U86tT15ROZ4VV8i1Hb2Zjt1hT/FZSCLi04qE9ldMK/9+DTuI5fKlp71qil3ze2PuEHOVzImIiF5ube8dnqiGoqIiBAUF1bmaCgDPnj1DZGQk/Pz8GhzP3Lx2ACUWiyGVSoWyklXee+893L9/H6NHj0ZSUhL8/f0RHx+PHTt2NP5GXgKq3jxKVefW5d7TQiw7EAfPA7FyQXRpefWnChXS6s1a5g2xwEa37vj0jZ7Q0eCPTiIiUozvENSmhYSEwNraGr169VJ4/MaNG3BxcUF+fj5kNXa9a4yoqCiUlJRg8eLFcu1r167Fe++9h9u3b6N///44evQorly50mbLRtaXElJT1eZRxcXFuHLlSqOu8TznFpZK4X0qEeuPPUBSVnU6R3RKASqkMpRVyBCbWh2oz3TqiDcHdcSysV3kNmgRiYDupjrQZUk8IiKqB4NratPqC/giIyPh7++P7OxshIWFwdHRETExMY2+xscffwwvL69aKSkikQheXl7o168fsrOzERQUhEOHDj3XfbR2zbF51POce+1BHnQdXKGlV53ecyvxGW4n5SMhsxhnorKE9tG9jeDQRYIBVnoYaVO9QYu2hhqmvWqKIT30QURE1FgMrqnNKi4uRlBQUJ1l2/r27Yvt27cjMjIS//rXv5Camgp/f/9GXePChQsoLCzE2rVrax178OABRo4cib179+LIkSNQV1fHggULGn2Nl0FzbR5V17k29q8CRt1RVlH9acOTnBL87/xj6NiMRq/J1SUVbcw7QKKlDnU1EfpbSYR2ow5irJ5khX+5dOUGLUREpDIMrqnNCgkJgY2NDXr27FlvP7FYjM8++wyWlpY4e/as0uM/ePAAmzZtgp+fn8IHFOfPn4/XX38d/fv3h5ubG06dOgUtLS28//77jb6X1q6uTwikUim2b9+OS5cuCW31bR41ePBgXL58We7cHwS1jgAAIABJREFUi385d/cPP2LMv/fB+0wyvj73WDimKVaD+p8buRTnVa9Qm+lp4Ov/Z4Nv5/VG/7/UliYiIlI1ldS5lkqlCAsLq/O4s7Oz3IpWXFwcfvnlF5ibm8PV1RW6urrPdd29e/eiU6dOCjetIVI2BxgA1NXVMWTIEKXzrnNycrBixQr4+flBX792+kBCQgJ+/fVX/Pe//xXahg8fDm9vb7z33nu4fv36S7+RTJXm2jyqoKAAR29l4YaOET4/8Q20H51HTk4Odv3fbnhfq3zo8GludQ51WmIcOj09jSMhoXhw/SQ8tZMxZ84cDB06FBrqImioc+dDIiJqfioJrkNCQjBlyhSFxyQSCdLT0wEAMpkM06dPx7Vr15CTk4OysjLY2tri6tWrMDQ0VHh+Xc6dOwd3d3esWbOGwTXVUlJSgqCgIGzatEmp/lKpFDdv3sQHH3zQYN+srCy89dZb2LFjBywsLIT28vJyhIaGYuzYsUK97JSUFLlzp02bhvfee68Rd9L6qWLzqIcZxRD1/Tv2nHHBgnF9hHNtx/0/FJZKYWQ3Bv+3ZQl0tCqv8Q+tXNx89AyT+lZv0GJnZ4ctdnbY4rWime6UiIioYSoJrn18fDBv3jw4OzvD2Lj6zc7X1xcGBgZC/d9du3Zh6dKlOHHiBDIyMuDp6YmAgAD4+vo2KuDIzs7GqlWrnru6A7V9p06dgo2NDbp3717r2G+//YZff/0V8+fPh5GREaRSKXbu3AlbW1u4u7vL9V2wYAEAYN++fQAqN6AZP348nJycEBAQAKAyMM/Pz8fZs2fx8ccfAwAcHBwwaNAgBAQEYMmSJXLzGjBgAAYOHNgs990SLCws5H7J+KuqzaMAoFwqw5X4XJhKNOQqcey7moK4Pyt2vJZfho56lUG0i70JTv6egVE2RkJgDQDDexlgeC+D5rgdIiKiJmlycJ2SkoJBgwZh/fr1tY5t2bJFLrAYPnw4+vXrB6DySf8NGzYgICAAsbGxjbqmh4cHvLy8lP7In9qf+lJCQkNDsWrVKnh5ecHFxQUpKSmYNm0agoOD5XKny8vLERwcLLyuqKjA6NGjERUVhbt379Ya19zcXPgURU1NDT/99BPeeustDBkyBIsXL8bt27eRk5OD48eP17vFeltRWFoBkUgkVxP6SEQ6fr6TARGATa/3QDeTyl+8uxhpIS61EAY6/5+9Ow+LqnzfAH4POwq4ouBCbrihuC8lqCjghkuahrkUuWuuafUzU8oSU0xzx/TrbiZomZmoJaW4Iq6YbCooJAiyyjIs5/39YTMysiqzCN6f6+q68pwz5zwz4HjPO+95XgNYmDx7bd7pZIl3Or14RxEiIiJdKfe/8FZWVkUG69DQUERFRaF///7KbYpgrWBtbQ0DA4NiuzkUZe/evbCxsYGTk9PLF02V3tSpU9G6desi982bNw/vvPMO4uPj0ahRo2LbwRkYGCAkJET5/wYGBrh161aZa7CyssLRo0eRmpqKu3fv4p133qm0Pa6fFxqXiW+PRUNPJsMXgxuh0X8hOkP+dDVEAUBeYLGWD96yQo9m1VC/ujFMuEALERFVYBobPlO05np+memC9u/fj2XLlsHR0bFM57x//z62bdsGf39/pKWlqatUqoSeXy3xeTY2NkUulf68olZkfFHVqlVDhw4dyn2eV1F2roTNf8ciPTsfEx3rwbra06kbIbFP/muTJxAWl6kM16O61IGFqQGsqhmhed1n00L09WRoWWCaCBERUUWlsSGikr6WT01NxerVqzFr1izUqVOnTOeTJAlTp07Fxo0by9xLl4jU53JUOg4GJyAtK09l2+WodITFZeLErWft73o1r4EWVlXQtr4Z3mr6bG60mbE+3ulkyfnSRERUaWlk5Do8PBxRUVHo169fkft37tyJwMBASJKEDz74ANeuXcPq1atLPOeqVaswePDgQu27iEi9MnMkPEjKRrM6psq+0bEpcqz54wEAIC5NjhlODQAATSxNYGqoB3mehLb1n7XUtDQ3xBdujbReOxERka5pZOTa19cXQ4cOhbGxcZH7Z82ahYMHD+Lq1auwtrbG5s2bkZmZWez5rl+/jgsXLmDatGmaKJeI/pMnCXzxy10s/S0Km/6KVW430JPhv5wNE8NnqxnWq26Mte81x/oxLdDxDS7QQkREpLFwXZZOHnZ2dli0aBGys7Nx9uzZYo/75ptvcPr0aeU8WRsbG2Vrr40bN8LGxgYnT55UW/1Er4ODwQmYuDMUey/GK7dl5UiIT8sBADxIerZAS10LI3wxuDEmOtbD2O6q89BNDfVgYcLlw4mIiAANTAuJiIhAdHQ0XF1dy3S84saz4jo2AMDw4cMLdX5QrPzWtm1bODs7l+nmNKLXUfTjbBy98Rit61VF7xbPFmv6/eZjyPMk+Ic8xuiudaEnA8xN9PGhgzWu3n+CQfaqnU1s65jCto6ptssnIiKqUNQerhVdQsp602FQUBCaNGkCOzu7Yo9xd3cvtC0xMRHe3t5wdHSEp6fny5ZLVGnkSwLB0emwNDdC49rPuvRsP/sQkY+ycO5OKto2qIpaVZ+ukNinZQ3433oMpxY1lFM+FNv7tKyh7fKJiIgqBbVPCyluSogkSVizZg3+/vtv5baYmBhs3boVmzdvVlkS+cyZM+jatSvOnDmj7vKIKoWcPOm/VnfP+AUnYO2fMVh8+C5iU1SndACAhYk+qho9m74xpntd7PywNT50sNZO0URERK8BtY5cR0ZGIioqSrlKXUGKaRyxsbFo3749mjRpgpSUFOzYsaNQB5Dg4GAEBQUhODi4zD2wiV4XoXGZWOF/HwZ6Miwe3AgNajy9cTj1vxZ5Qjzt+KEwqWc9ONhWg01Nk0ILtBQcsSYiIqLyU2u4NjMzw4kTJ4qcEmJubo7IyEiEhobCyMgItra2KqPVBc2ePRsuLi7FrrAHALVr14YQotj9RBVddq6EbYH/4km2hA8drGFp/vTvy/UHT5CTJyEHwO2HGcpw/W6XOjAz1ke96sZoVmButIGeDG3rm+niKRAREb121BquraysYGVlVex+ExMTZZePkshkshLnYBNVNtcePEFMshxOLaqjqvHTqRuX7qXh/J2nK5GeuJWEMf916ejVvDpuxj6BqaEeujW2UJ6jmqkB3utW/hUliYiI6OVpbPlzIiosO1dCXGoObGqZKKdkxCTL4X38PgAgNlmOKb3qAQAa1TaBkYEMufkCLa2fLQ1uVc0IXw9rovXaiYiIqHQM11pw7949PHjwoMh91tbWsLW1Vf5ZLpfj2LFjiIqKQs+ePdGxY8cXulZYWBj8/f1hb2+P3r17QyYrPKm2vNegl5MnCSz65S7iUnPQs3l1TO75NETLZIAMgABgoP/s52VT0wTfuzdHXr5AjaoV76/q2K3/aPV6eyYWP42MiIhIWyrev9gV0LvvvougoKAi93399df4/PPPAQABAQEYMWIEjIyMEB8fDz09Paxbtw7Tp08v9Rr5+fnw8PBAWloa5s+fj927d2PLli3YuXOnyhz48lyDyu7wtUQcv5WEPi1r4J1OT3u4P8nOR1zq0wVa7iZkKY+tX90Ynw54A/+myNGzeXWV85hzcRYiIqIKRSMrNNIzV69exePHj7FkyRLs2rUL+/btw759+7B161bIZDKMHDkSAJCamoqDBw8iIiICDx8+xB9//AFDQ0MsXboUeXl5pV5n6dKl+Ouvv7B//344ODjg+++/x4ULF/DNN98ojynvNaiwB0lybD3zL87fSVXZ/svVBKRl5eHI9UQobrutXsUAY7rVhV29qhj3puq9CW3qV4WrXc1C3TyIiIioYuHItYadPHkSAQEBhVaQPHToEOzt7dG8eXMAQEJCAry9vWFi8nTxj759+2L48OH46aefkJKSgtq1axd7jeTkZKxcuRIeHh7Kx5uYmGDkyJH4/vvvMXfuXFSvXr1c13jd5UsCN2KewNLcSNmdAwC2Bv6LO4+y8HdYClrXq4pqpk//SvVoVg1/haXA0bYaCk7MGdC2Fga0rQUiIiKqnBiuNeyTTz4pcvvzi+00a9as0DH169eHk5NTqaH36tWryMzMRKdOnVS2N2rUCKmpqdi3bx+mT59ermtUBpqcAywAzNgbXmj7RMd6GrsmERERvXrUEq4lSUJgYGCx+7t3764y7zciIgJHjx5F3bp1MWTIEFStWrVM18nLy8ORI0cQFhaGhg0bYuDAgahRo+It05yVlYXffvsNS5cuLfaY9PR0hISEYO/evaWe7+bNmwAAS0tLle2NGjUC8PT1Lu81iIiIiKh0agnX/v7+GDRoUJH7zMzMkJCQAAAQQmDo0KG4cOECUlJSkJubi5YtW+L8+fOoXr16kY9XSEpKgrOzM65evarcVrduXRw4cAA9e/ZUx9PQGn9/f9ja2hY5kgwAly5dwuzZs2FgYFCmhXIU4bpWLdXpBm+88QaAp91KynsNIiIiIiqdWu6e8vHxwdixY7F+/XrlDXv79u3DwIEDMXjwYOUc382bN2Py5MmIj49HbGws3N3dERoaij179pR6jTlz5qBPnz64desWkpKS4Onpifj4eLi7u+PJkyfqeBpa8/yUkIJCQkKwb98+JCcnIzAwEO3bt0dYWFiJ57t79y4AFBrFNzB4+tnp+dfnZa5RkYXEZuDErSRdl0FERESvgXKH67i4OHTp0gW7d+/GjBkzMHr0aOV/Dx48UAmRDg4OcHNzg0wmg6WlJTw9PQEA4eGF56oWJJfLIZPJ4O3tjdatW6NGjRpYsmQJ7O3t8fDhQ1y8eLG8T0NrsrOz8dtvvym7hDyvTZs2WLNmDUJCQjBv3jzEx8dj3759JZ5TMV86OztbZXtGRgYAoFWrVuW+RkWQmy/wb4ocBcfhHyTJsfxYNHadj9NZXURERPT6KHe4trKywqJFiwptDw0NRVRUFPr376/c1rZtW5VjrK2tYWBgUGzQVJAkCevWrSu0ffz48QCgHBmvCPz9/dG8eXM0bdq0xOMMDAywYsUKWFtb448//ijx2AYNGgB4OnWmoLS0p0tnt2nTptzXeNXl5gssPHQHn/jdwa5zz4K0xCkvREREpEUaa6rr5+eHIUOGlBh89+/fj2XLlsHR0bHEc5mamsLCwqLQdn19fRgbG6Nz587lrldbSpoS8jx9fX1069at0I2Kz3NxcQFQeG614hsBOzu7cl/jVXLkeiLm7I/AbzceK7elZuXh4X8LtITFZSq3v1HLBPNcG2J017par5OIiIhePxoL1yWFyNTUVKxevRqzZs1CnTp1XvoaZ8+exYQJE2BsbFz6wa8AuVxe4pSQ50mShCtXrmDw4MElHufq6or69esjICBAZfvly5dhbW1dqEXfy1xDF/5NkWPnuThciU5XbhMC8AtOQOKTXBwMfqTcXtvMECM6WcK2bhW4d1X9nepoY45B9uwtTURERJqnkXAdHh6OqKgo9OvXr8j9O3fuRGBgICRJwgcffIC5c+e+8DVCQkJw7ty5EtvZvWqOHz+O5s2bo3HjxoX2Xb58GWvXrkVycjKAp6F348aNaNmyJTw8PFSOHT9+vHJKDPB09Hnz5s04duwY4uPjAQD379/H7t27sXLlSpiamr7wNbRJCODWvxmIT8tR2b7pr39x8p8krPnjAdKz8wEAMhnQtbE5AKBbE9VvM97uYIklgxvBvoGZdgonIiIieo5GwrWvry+GDh1a7IjyrFmzcPDgQVy9ehXW1tbYvHkzMjMzizy2KJIkYcGCBfjpp59Qs2ZNdZWtcSWN5p8+fRqzZ8+GjY0NRowYAUdHRzx58gTHjh2Dnt6zH1NeXh6OHTuGY8eOqSxZ7ubmhmXLlmH8+PH45ptvMGvWLGzatAljxox54WtokhDA87OgD1x+BK/fo/F/h+4g8UmucruFqT4AoIqRPowMnq1zON2pAXzGtcDUXvW1UTIRERFRmWlkhUZfX198/fXXpR5nZ2eHRYsWYcaMGTh79qxy7nBpFixYgFGjRsHBwaG8pWrV1KlT0bp16yL3zZs3D++88w7i4+PRqFGjYudAGxgYICQkRPn/BU2ZMgUTJ07E3bt38fnnn7/0NTQl4lEWvI/fh6mhHha5NUJtM0MAQNx/I9Y5eQKpWXnK7R/1aYAr0eloXrcKjA2ehX8ZgKrG+lqtnYiIiKgs1B6uIyIiEB0dDVdX1zId36NHDwCFVxcszpYtW2Btba3TaQwvS/Fci2NjYwMbG5tSz1O3bvE35+nr68PW1rbc1ygPeZ6EfRfjkZ0rYUy3urAwffprdv5OKjLk+ciQ5yMkNgO9WzxdOMi9Sx2YGOjBpqYxmliaKs9jaqiHHs2qabRWIiIiInVS+1wARZeQgsudlyQoKAhNmjQpsaOFwvbt2xEbG4v58+erbA8MDHyhaSWkPrcfZuKvsBTk5D2b7HE2MhV/3k7G2chUnPgnWbnd0bYaapkZ4o1aJuhg82xedF0LI0zpVQ8D2taCDEREREQVl9pHrn19fYu8yVCSJKxduxYdOnRAr169AAAxMTHYunUrNm/eDENDQ+WxZ86cwccff4xVq1Yp2/T5+Phg+fLlmDx5Mry8vAA87b4RExODu3fv4tSpU+p+KlRAniSQmpmHmmaGygB8Pykby45GQQB4kJyNcd2tAAANahhDJns6v/qNWs/m3TeubYrv3YsfVSciIiKq6NQariMjIxEVFVXk3OmMjAx4e3sjNjYW7du3R5MmTZCSkoIdO3agZcuWKscGBwcjKCgIwcHBcHR0xO7duzF16lQAwMKFCwudu6gFZkh9cvMFvvjlLmKS5XCzrwX3/3pG5+YJ5c2JuQVGrpvXrQLvkc2QJwnUr14x2iQSERERqYNaw7WZmRlOnDhR5JQQc3NzREZGIjQ0FEZGRrC1tVUZrS5o9uzZcHFxUd78N27cOIwbN06dpVIxjt18jICwFLi0rgGX1k87sSRl5CImWQ4ACInNUB7btI4pZjg1QHyaXHmsQl2Lsk0LIiIiIqpM1BquraysYGVlVex+ExMTtG/fvtTzyGSyMs3BppcXl5qDgNBktG1ghjb1qwIA8iWBHy/FQxLAT0GPlIG5joURBrWthVsPM/BOJ9UFWt5sWnjlTCIiIqLXlUZa8dGrQwgg8lEmapsZoUbVZz/uDQExuJeYDf9bSdg0tjmqGOlDX08G+wZmuPbgCTramCuPlQEY3Y3LhxMRERGVhuG6kvO9/Ai/Xk+EiaEeVo5shhpVnv7ITQ2f9ok2MdSDgd6zHh0f97NBSkYeqlflrwYRERHRi2KCqiQiHmVhzckHqGqsj4UD30D1/0K0Yq50dq6E5IxcZbie5dwAl6PS0dKqCoyeW6ClBoM1ERER0UthiqpgcvIEfgqKR26+wLtd6ihXKjwbkYLUrDykZuXhRswT9Gz+3wItXevAQF+GRrVN0LjAAi1mxvrKRVyIiIiISD0YriuY0+EpOH4rCQBQs6oBhnV4urLlW82q4eK9NJibGMC+wbMFWupVN8asvg10UisRERHR60bn4VqSJAQGBha7v3v37iqt/SIiInD06FHUrVsXQ4YMQdWqVbVR5ivDuroRZAAEoNJDunndKtg4tgVXOCQiIiLSIZ2Ha39/fwwaNKjIfWZmZkhISAAACCEwdOhQXLhwASkpKcjNzUXLli1x/vx5VK/++kxvsKtXFV4jmiJPEmhUy0RlH4M1ERERkW7pPFz7+Phg7Nix6N69O2rWfLYQyZ49e1CtWjWYmDwNkJs3b8bkyZNx+PBhJCYmYtasWdi/fz/27NmDjz76SFfl60SDGlz1kIiIiOhVpNNwHRcXhy5dumDRokWF9nl5eWHSpEnKPzs4OKBt27YAAEtLS3h6emL//v0IDw/XWr1ERERERCXRK/0QzbGysioyWIeGhiIqKgr9+/dXblMEawVra2sYGBhg5MiRGq+TiIiIiKgsdD4tpCh+fn4YMmSIckpIUfbv349ly5bB0dFRi5Wp39it/2j9mnsmttb6NYmIiIheBzoduS6Or68vRo0aVeS+1NRUrF69GrNmzUKdOnW0XBkRERERUfFeuXAdHh6OqKgo9OvXr8j9O3fuRGBgICRJwgcffIC5c+dquUIiIiIioqK9cuHa19cXQ4cOhbFx0R0xZs2ahYMHD+Lq1auwtrbG5s2bkZmZqeUqiYiIiIgKeyXDdXFTQgqys7PDokWLkJ2djbNnz2qhMiIiIiKikr1S4ToiIgLR0dFwdXUt0/E9evQA8LQ1HxERERGRrr1S4VrRJaTgcuclCQoKQpMmTWBnZ6fhyoiIiIiISvdKhevipoRIkoQ1a9bg77//Vm6LiYnB1q1bsXnzZhgaGmqzTCIiIiKiIr0yfa4jIyMRFRUFFxeXQvsyMjLg7e2N2NhYtG/fHk2aNEFKSgp27NiBli1b6qBaIiIiIqLCXplwbWZmhhMnThQ5JcTc3ByRkZEIDQ2FkZERbG1tOVpNRERERK+cVyZcW1lZwcrKqtj9JiYmaN++vRYrIiIiIiJ6Ma/UnGsiIiIiooqM4ZqIiIiISE0YromIiIiI1IThmoiIiIhITRiuiYiIiIjUhOGaiIiIiEhN1NKKT5IkBAYGFru/e/fuyv7VeXl5OHLkCMLCwtCwYUMMHDgQNWrUKPO1Lly4gIsXL0IIgW7duuHNN98sd/1EREREROqglnDt7++PQYMGFbnPzMwMCQkJAICkpCQ4Ozvj6tWryv1169bFgQMH0LNnz1Kv4+HhgbS0NMydOxd6enpYvnw5qlevjh07dkAmk6njqRARERERvTS1hGsfHx+MHTsW3bt3R82aNZXb9+zZg2rVqsHExAQAMGfOHPTp0wd79uyBtbU11q5dC09PT7i7uyM8PBxmZmbFXmPv3r34+eefcf/+fVhYWAAANm7cCBsbGwwaNAijRo1Sx1MhIiIiInpp5Q7XcXFx6NKlCxYtWlRon5eXFyZNmgQAkMvlkMlk8Pb2Vu5fsmQJDh06hBs3buDixYvo27dvsdc5f/48TE1NlcEaAOrXrw9LS0tERUWV92kQEREREZVbuW9otLKyKjJYh4aGIioqCv379wfwdF72unXrCh03fvx4AFCObhfH3t4ecXFx2LBhg3JbWFgYHj16hGHDhpXnKRARERERqYXGuoX4+flhyJAhytD8/Kizgr6+PoyNjdG5c+cSzzd8+HDUq1cPs2fPxvfff4+0tDR4eHhgy5YtaN68uUaeAxERERHRi9BYuPb19S3TPOizZ89iwoQJMDY2LvG42rVr49ixY6hTpw7mzJkDOzs7rFy5EhMnTlRXyURERERE5aKRcB0eHo6oqCj069evxONCQkJw7tw5LF26tEzntbe3x5QpU1CnTh3ExMRg4cKFePz4sTpKJiIiIiIqN42Ea19fXwwdOrTE0WhJkrBgwQL89NNPKh1GSrJw4UKEhYUhIiIC/fr1w+nTp+Hi4oLMzEx1lU5ERERE9NI0Fq5LmxKyYMECjBo1Cg4ODmU658mTJ7Fy5Ur4+PjAwsICv/32G4YNG4arV6/Cz89PHWUTEREREZWL2sN1REQEoqOj4erqWuwxW7ZsgbW1NTw8PMp83r1798Le3h7m5uYAAAMDA+zbtw8NGzbEjz/+WO66iYiIiIjKS+3hWtElRLHc+fO2b9+O2NhYzJ8/X2V7YGBgidM7UlJSEB8fDyGEcpupqSmcnZ3VUzgRERERUTmpPVyXNCXEx8cHX331FUxMTODl5QUvLy94enpi4sSJWLx4MapUqQIAOHPmDLp27YozZ84oHztx4kTExsYiMDBQuS0/Px9//vmncqEaIiIiIiJdUsvy5wqRkZGIioqCi4tLoX27d+/G1KlTATy9MfF5BReYCQ4ORlBQEIKDg+Ho6AgAcHNzw65duzBmzBgMGzYMtra2OHbsGBYtWoThw4er82kQEREREb0UtYZrMzMznDhxosgpIePGjcO4cePKdJ7Zs2fDxcUFrVu3LnSOMWPG4M6dO5AkCdOmTYOBgVqfAhERERHRS1NrMrWysoKVlVW5zyOTyWBnZ1fkPj09Pdja2pb7GkRERERE6qaxFRqJiIiIiF43DNdERERERGrCcE1EREREpCYM10REREREasJwTURERESkJgzXRERERERqopZWfJIkqayc+Lzu3bsre1/n5eXhyJEjCAsLQ8OGDTFw4EDUqFHjpa4bHh6OK1eu4NGjR5g1a9ZLnYOIiIiISF3UEq79/f0xaNCgIveZmZkhISEBAJCUlARnZ2dcvXpVub9u3bo4cOAAevbsWebrhYSEYMaMGWjcuDFmzpyJkSNHlu8JEBERERGpgVrCtY+PD8aOHYvu3bujZs2ayu179uxBtWrVYGJiAgCYM2cO+vTpgz179sDa2hpr166Fp6cn3N3dER4eDjMzs1KvdezYMbz77rtYv349xo8fr47yiYiIiIjUotzhOi4uDl26dMGiRYsK7fPy8sKkSZMAAHK5HDKZDN7e3sr9S5YswaFDh3Djxg1cvHgRffv2LfFaDx48wJgxYzBjxgwGayIiIiJ65ZT7hkYrK6sig3VoaCiioqLQv39/AE/nZa9bt67QcYqQrBjdLo4kSRg7dixq166NpUuXlrdsIiIiIiK101i3ED8/PwwZMkQZmk1NTWFhYVHoOH19fRgbG6Nz584lnm/btm04ffo0PDw8kJCQgN9//x3nz59Hbm6uRuonIiIiInpRGgvXvr6+GDVqVKnHnT17FhMmTICxsXGJx506dQoAcOPGDSxfvhx79+5F79698dZbb+Hff/9VS81EREREROWhlhsanxceHo6oqCj069evxONCQkJw7tw53Lx5s9RzXrp0CVZWVti0aROqV68OAOjbty8mTJiA6dOn45dfflFL7UREREREL0sjI9e+vr4YOnRoiaPRkiRhwYIF+Omnn1Q6jBQlKSkJd+/eRYMGDZTBGgDGjh0LExOIz88UAAAgAElEQVQTHD58GCkpKWqrn4iIiIjoZWgsXJc2JWTBggUYNWoUHBwcSj1f1apVYWBgUKhVn5GRkXKudlRU1EvXS0RERESkDmoP1xEREYiOjoarq2uxx2zZsgXW1tbw8PAo0zmNjY3RokULREREFNrXvn17AEDDhg1frmAiIiIiIjVRe7hWdAlRLHf+vO3btyM2Nhbz589X2R4YGIjMzMxizzt48GDExsYiOjpaZfuVK1fQrVs31KpVq/zFExERERGVg9rDdUlTQnx8fPDVV1/BxMQEXl5e8PLygqenJyZOnIjFixejSpUqAIAzZ86ga9euOHPmjPKxS5YsQevWrfHJJ58otyUkJODatWsqC9MQEREREemKWruFREZGIioqCi4uLoX27d69G1OnTgUALFy4sND+ggvMBAcHIygoCMHBwXB0dATwdJEZPz8/uLu7w8PDAw4ODvjtt99w7NixMs3bJiIiIiLSNLWGazMzM5w4caLIKSHjxo3DuHHjynSe2bNnw8XFBa1bt1bZ3qpVK1y7dg137tyBoaEhJkyYoJa6iYiIiIjUQa3h2srKClZWVuU+j0wmg52dXbH7mjVrVu5rEBERERGpm8ZWaCQiIiIiet0wXBMRERERqQnDNRERERGRmjBcExERERGpCcM1EREREZGaMFwTEREREamJWlrxSZKEwMDAYvd3795d2fs6Ly8PR44cQVhYGBo2bIiBAweiRo0aL3XdnTt3ol69ekUuWkNEREREpG1qCdf+/v4YNGhQkfvMzMyQkJAAAEhKSoKzszOuXr2q3F+3bl0cOHAAPXv2fKFr/vnnn/Dw8MCnn37KcE1ERERErwS1hGsfHx+MHTsW3bt3R82aNZXb9+zZg2rVqsHExAQAMGfOHPTp0wd79uyBtbU11q5dC09PT7i7uyM8PBxmZmZlul5ycjI+/vhjCCHUUT4RERERkVqUO1zHxcWhS5cuWLRoUaF9Xl5emDRpEgBALpdDJpPB29tbuX/JkiU4dOgQbty4gYsXL6Jv375luuaMGTPw+eefY9SoUeUtn4iIiIhIbcp9Q6OVlVWRwTo0NBRRUVHo378/gKfzstetW1fouPHjxwOAcnS7NHv37oWNjQ2cnJzKUTURERERkfqpZVpIUfz8/DBkyBBlaDY1NYWpqWmh4/T19WFsbIzOnTuXes779+9j27Zt8Pf3R1pamtprJiIiIiIqD4214vP19S3TtI2zZ89iwoQJMDY2LvE4SZIwdepUbNy4Udl5hIiIiIjoVSILCwsTANC8eXO1nTQ8PBxdunTBo0ePSgzNISEh6NevH27evKlyI2RRVq5cCTMzM0ybNg0AkJiYCEtLS3z22Wfw8vIqd71ERERE9HpQZ+5VUORJjUwL8fX1xdChQ0sM1pIkYcGCBfjpp59KDdbXr1/HhQsXcPDgQXWXSkRERESkNhoZuW7fvj2+/vpruLm5FXvMxx9/jDZt2sDDw6PU840aNQoBAQEqc7YlSUJsbCwsLCxQrVo1bNu2jf2uiYiIiEgnNDZyHRERgejoaLi6uhZ7zJYtW2BtbV2mYA0Aw4cPR+vWrVW2ZWRkwNvbG23btoWzszNsbGzKVTcRERERUXmpPVwruoQUd9Ph9u3bERsbiy+//FJle2BgIDp27IgqVaoUeoy7u3uhbYmJifD29oajoyM8PT3VUjsRERERUXmoPVz7+vpi6dKlRe7z8fHB8uXLMXnyZOVNiHK5HDExMbh79y5OnToFADhz5gw+/vhjrFq1Co6OjuoukYiIiIhII9QariMjIxEVFVXk3Ofdu3dj6tSpAICFCxcW2l9wgZng4GAEBQUhODiY4ZqIiIiIKgy13tAYFxeHmJiYMi0IUxIhBP755x+0bt0aMpms3HUREREREWmSRm5otLKygpWVVbnPI5PJYGdnp4aKiIiIiIi0R2MrNBIRERERvW4YromIiIiI1IThmoiIiIhITRiuiYiIiIjUhOGaiIiIiEhNGK6JiIiIiNSE4ZqIiIiISE0YromIiIiI1IThmoiIiIhITRiuiYiIiIjUhOGaiIiIiEhNGK6JiIiIiNSE4foVIkmSrksgIiIionJguH6FnDt3Dl5eXroug4iIiIheEsP1KyI4OBienp5YuHAhA7YWZWZmIjExEUIIXZdSqUmShJiYGGRlZem6lNdaVlYW7t+/j5ycHF2XUqlJkoR79+7h8ePHfG/RkqysLCQkJPAbYB3Ky8tDTEwM5HK5rkvROYZrHcvPz8f06dOxePFivP322/jhhx8QFBSE5cuX67q0Ss3f3x9du3aFhYUFLC0tUbVqVbz//vu4ceOGrkurVGJjY/H++++jevXqaNiwIapUqQJ7e3ts2bIF+fn5ui7vtXH58mX07dsXFhYWeOONN2BiYoL+/fvj+PHjui6tUklNTcWCBQtQu3ZtNGnSBLVr10aDBg2wePFipKSk6Lq8Sunvv/+Gg4MDLCwsUKdOHVSpUgWjR4/G5cuXdV3aa+Pu3bt45513UK1aNTRs2BAmJiZ48803sW/fvtf2w6UsLCxMAEDz5s11XctraenSpQCAL774QmX7pUuX0KFDBxgaGuqirEpLLpdj8uTJOHLkCNq1a4c6derg3LlziImJAQAYGRlh7dq1mDJlio4rrfh+/vlnTJw4EY0bN0arVq1w7949XLx4EXl5eQCAvn374scff4SlpaWOK628hBBYvHgxNmzYgLZt2+KNN97AlStXcOvWLeUxc+fOxbfffsv3mnK6fPkyhg8fjlq1asHe3h4pKSk4ffq0MlQ3a9YMhw4dQtu2bXVcaeWQl5eH2bNnY+/evWjXrh2sra1x4cIFREdHAwD09fWxcuVKzJkzBzKZTMfVVl7bt2/HvHnz0Lx5c7Ro0QK3b9/GlStXlN8gjBw5Ev/73/9gZmam40q1Izw8/On/hIWFibCwMEHal5OTI6ysrEReXp6uS3ktJCcnCxcXF7F48WKRk5Oj3C5Jkrh48aJo3ry5ACAAiPXr1+uw0opv7dq1olevXuLu3bsq29PT08WMGTOUr3P79u1Fenq6jqqs3ORyuRg/fryYMmVKodc4OjpaODk5KX8OEyZMEJIk6ajSiu/o0aOia9eu4vLlyyrb8/LyxIYNG4SxsbEAIGrXri3u3Lmjoyorj/T0dOHm5iYWLFggsrKyVPZdvXpV2NnZKX+3ly9frqMqKzdJksTixYuFm5ubePjwocq+x48fC3d3d+XPwMXFReXf3MpMkakZrnXo9u3bokaNGkWGa0mSREhIiNi8ebPYtGmTOH/+vA4qrDySkpJEly5dxNGjR4s9Jj09XQwbNkwAEIaGhiI0NFSLFVYeXl5eYvjw4SV+aPTz8xP6+voCgJgzZ44Wq3s9yOVyMWzYMLFmzZpij8nLyxOfffaZ8h/AQ4cOabHCysPPz09069ZNZGZmFnvM9evXRd26dQUA0atXL36QKYe0tDTh4OAgfH19iz0mMzNTjB49WgAQenp64urVq1qssPKTJEnMnj1bzJgxo9jfZUmSxObNm5XvL97e3lquUjcYrl8B6enpQiaTiQkTJoibN2+KoKAgsXHjRjFixAhRu3Zt5S+l4r9JkybxTfklJCUliU6dOomPP/641GPT09OVI9izZ8/WQnWVy/Lly4WVlZVISUkp9dhvv/1WABAmJiYiOztbC9W9HhTBeuDAgaW+X0iSJNzc3AQA4eTkpKUKKw9fX19hYmIiIiIiSj32xIkTyvfykJAQLVRX+aSlpYkePXqIKVOmlHpsVlaWsLe3V34zQ+qhCNZ2dnZlet+eNWuWACBsbGy0UJ3uMVy/ImbOnFkoRCv+MzQ0FG+99ZYYMGCAMmzv379f1yVXKIpgDUA0bdpU3L9/v9THBAUFKacsUNkpwjIAsXbt2lKPz8/PFw4ODgKAOHPmjBYqrPwUwRqAMDMzE2fPni31MQkJCcLCwkKYmJgIuVyuhSorhwMHDii/fZk4caLIz88v9THTpk0TAMSGDRu0UGHlogjWAETDhg1FZGRkqY+5deuWACCaNWumhQorP0WwBiAMDAzEwYMHS31MVlaWaNasmQAg7t27p/kidUyRqdktRIv8/Pxw4sQJlW3fffcd1qxZg3bt2sHGxgbOzs5YsmQJTp48ieTkZJw9exa///47IiMj0bZtW/zxxx86qr7iycvLw5YtW+Dt7Y3u3bvjzp076N27Nx48eFDi4zp37ozGjRvj+vXr7GhRRseOHYOdnR2+/vprGBgYYNasWVi3bl2Jj9HT08OIESMAANeuXdNGmZXetm3bMH/+fLz77rt48uQJ+vXrh3PnzpX4mNq1a8PJyQnZ2dnPbsahEik6UezZswc1a9bE1q1bMWXKlFLbwCl+39mV6MVIkoRNmzZh2bJlyvfw3r17486dOyU+rnXr1rC3t0dkZCSePHmipWorrx9//BFDhgzB3LlzkZeXh3fffRcHDx4s8TEmJiYYMmQIgNfsfZ4j19rx5MkTMXv2bKGvry+2bdv2Uuf45ptvhIeHh5orq9wUX4vn5uaKUaNGCQCiSZMmpY5gjx07VlhYWGijxErn+PHjwsTEpEwj2BcvXhQAxO7du7VU3etBkiTx1VdflXkEW/Gtw4MHD7RUYeURHh4u6tevr5x+UNIIdkZGhgAgPv30Uy1WWDko3svz8vKEh4eHACAaNGhQ6gj2Rx99JAwMDMr0zQKV3e7du4Wenp4wMDAQfn5+JR578OBBAUAEBARopzgd4si1lkiShJUrV2LkyJGoVasWFi9ejCNHjuDLL7984f6PkZGR6NOnj4YqrTySk5Oxd+9eAFC2YDIwMMDevXsxatQo3L17F71798b9+/eLPUdKSgpf6zLIzc0ttM3V1RWHDx+GiYlJqSPYSUlJkMlkfK3LIScnB5s2bVLZJpPJ8MUXX+Crr74q0wh2UlISbG1tUb9+fU2XW6EVtTiGra0tAgICUL9+fWzbtg2TJ08udgT78ePHAABnZ2eN1llZKNp2As/ey/X19bF161Z4eHggJiYGvXv3RmRkZLHnSEpKQu/evaGnx7jzMoQQKj8HhbFjx2Lnzp2QJKnUEeykpCRUrVoVXbt21WSprxaOXGuOJEniww8/FOvXry90Y9G///4rcnNzi3xMfHx8oe3Hjx8XLi4u/PRdCsUc66SkpCL3Pz+CHR0dXeiY/Px8YWNjI/744w9Nl1uhrVixQnTt2lUkJCQUub8sI9heXl5i1KhRmiyzUpPL5WLIkCElzlkvywh2v379yjRP/nV24MABYWNjI27cuFHk/oIj2B9++GGR79WHDx8W9vb2bL9aBoquIMuWLSvyxtz8/HyVEeyibiqVJEm0bt1a/PLLL9ooudJRzLEeMGCAePLkSZHHKEaw9fX1ix3B/uijj8SsWbM0Weorgzc0asHmzZvF559//kKPkSRJfPrpp2L69OkiICBAHD16VMydO1f0799fJCYmaqjSyiEnJ0d582JJvU0LBuzGjRsXCtjr1q0TY8eO1XS5FdqKFSuEq6ur+O6778SYMWOK/EAoRMkB++HDh6J58+acilAOit/jUaNGldgZpKSAffz4cdGtW7ciP+zTUwcOHBBdu3YV69evF++//764cuVKkceVFLCzsrJEhw4dxLlz57RVdoWVlpYmevXqJWbNmiUWLFggvvzyyyKPKxiw69evXyhgb9++XQwbNoxdtl6CIli//fbbYvny5WL8+PHFrklQMGA/3yLx9u3bokWLFiI5OVkbZescw7WG5eTkiMaNGxc7gloSSZLE3LlzBQDRqFEjcfDgQb45lFG7du2UvU1//PHHYo8rLmAHBgYKJyenEnvWvu5WrFgh5s6dqwwO+fn5JY7EFRWw09LSxKBBg8Tp06e1UnNlNX78eGWHlk8//fSFA3Z4eLhwcHAotAgEPXPgwAHx9ttvi4yMDOW2kr5BLBiwPTw8RH5+vsjJyRETJkwQO3bs0EbJFVpaWppwcXER/v7+ym0lLUBSXMC+fPmy6Nmzp0hLS9N4zZWNIlgvXbpU5b6lkt5figrY8fHxonfv3uLmzZtaqftVwHCtYSdPnhRNmzZ96cdLkiTmzZsnTp48qcaqKr/Vq1eLNm3aCD09PaGnp1di68LnA/bSpUtF165dxePHj7VYccWyYsUKMW/evEJvss+vTPe8ggF74cKFwt7eXhw5ckSTpb4WTp06JZo0aSKqV68uAIjPPvuszAF72bJlok2bNmVqafa6OnDggBgxYkShFoWlLepVMGCPGTNG9OjRg9NuyiAtLU24urqKU6dOqWy/d+9eiQNVzwfsZcuWiY4dO4q4uDhNl1zpKIL189/+5ubmimvXrpX42IIBe+nSpaJly5ZlagdamTBca5iPj4+oWbPmC82t+9///qfyZ0mSuDT0C4qPjxctWrQQ+/btU/4lLy1gOzo6CgCiQ4cODNYlWLFihZg9e3aR4W3x4sXi999/L/Hx+/fvFwCEkZERg7Wa5OfnC1tbW3H8+HFlwP6///u/EgP21KlTX6hX8OvqwIEDYvjw4UX2/t6/f79YsWJFiY+/du2actlzBuvSKYJ1UR0lMjMzxYgRI0oM2Hl5eaJfv34CgGjdunWxU9WoeIpg/e233xa5f+bMmeLixYslnsPb2/uF+uxXNuwWomGSJCEpKanUHrMFPXz4UOXPMpkMZmZm6i6tUqtTpw5atGiBBg0aYO/evRBCYMyYMThw4ECRxxsYGODrr79Ghw4d8Mcff6BmzZparrhiWLlyJT755BPExMQUeee4tbU1hg0bht9//73Yc7z77rvo1KkTDh48CDc3N02W+9rQ09ODu7s7wsPDcfLkSVSvXh1eXl74/PPPi+1GtGzZMjRs2BABAQFo2rSpliuuGHx9fTF69GhERkYiLS2t0P4GDRrgk08+wcqVK4s9R7t27TBixAisXbsWM2fO1GS5FV56ejoGDBiAU6dOISkpqdB+U1NTxMXFwdnZucj9wNMuIsuWLYOdnR0CAgJQp04dTZddqQghMHfuXHz//fe4f/9+ke8fNWrUgIuLCy5evFjseebNm4dGjRrh+PHjeOuttzRZ8iuN4VpDWrduDQAl/iP3vIyMDE2W9Nr44IMPsHPnTri7uysD9nvvvQdfX98ijz937hyDdQn+97//ISYmBmZmZjh48CBGjx6t0oIvIiIC69evx7p163D+/HlcunQJwNMFA65cuaI87vTp0/jqq68YrNXs/fffx65du9C5c2eVgL1o0aIi33sOHjzIYF2Co0ePIjg4GA0aNMCNGzfQt29fJCYmKvc/fvwYc+fOxapVq2BkZIRDhw4BADIzM7Fv3z7lcZGRkXB2dmawLkV6ejo8PT1Ru3Zt5cIkitdUYf369crFqZYsWYKcnBwAwI4dO1TaHv799984deoUg/ULEkJg1apVyM3NhaGhITZs2ICZM2eqvH9cunQJfn5+WL16NQ4ePIiwsDAAwMmTJ1UWZvv111+xd+/e1zpYA2ArPk2Ry+XKOXfFfcVSUHZ2tpg8ebIWKqv85HK5aNKkifIGpB9//FE5ReTAgQOFjmeXhOJJkqTs5nHnzh1ha2srAIgRI0aInJwcER4eLnr16lXkojyJiYni7bffVv6Z7cc0x8HBQdy6dUsIIURQUJCoVq2aACA+//zzQlNE+HMoWWxsrBBCiOTkZNG3b18BQNjb24uEhASRkJAgnJycir3HwMnJSfn6sm1q2cTGxgq5XC4kSRKbN28WMplMZWltHx8f8eGHHypf14K/z9999504fPiw8s98L385crlcOT/98uXLwtLSUgAQM2bMEJIkiUuXLok+ffqodCxT/ByuX78uZs6cqdz+uv8MOOdaC9asWSMACJlMJvbu3VviscuWLSsy+JGqpKQksWXLllLbEs6cOVPlNS8YsJcuXSqSk5PFnj17NF1upRMTEyOaNWsmAIhBgwYVG6wVatWqJa5fv67FCisXuVwuNm7cKO7cuVPicVu3blVZ9e/SpUvKgD1+/HgRHx8vfvjhBwbrF5SRkSGcnZ2VAbt3794iODi42OMdHR1Lfa+nku3YsUMZsCdPnlxsz3AhhDh69Kjo0qULu2mpWUhIiDJgv/vuu6Jv377F3o+UkZEhTExM2HHoPwzXGqRo65afny8GDhyobJX1xRdfiOzsbJVjJUkSa9asEW5ubvyHrxSKBWIACENDQ/H222+LX375pcgbjoKDg4Wrq6vKtp07dyp/Fp06deLNiy/pwYMHyoA9ZMiQYttk3b17VxgZGRW685/KRi6Xi2HDhil/Zx0cHMSWLVuK7BebmpoqbG1tVd5DLly4oLyhjjcvvryCAbtNmzbFfrB/8uSJqFmzpvjhhx+0XGHls3PnTiGTyQQA8dNPPxV7nKenp2jTpo1Km0RSj4IBe/LkycV+gDl9+rQwNzfnIMp/GK415OzZs8La2lrZqik1NVXZ7g3/9a1euHCh2LVrl1i5cqXo2LGjcHBweKl+2K+TpKQk8d5774lu3boJAKJOnTrK17RWrVrio48+EpcuXVK+AUiSJNq1aydiYmJUzjNq1CjRsWNHButyevDggWjatKnKFJGCMjMzRY8ePdgV5CXJ5XIxc+ZM5YdzKysr5e+7sbGxGDVqlDhy5IjK6z5mzBhx/PhxlfN88803DNZqUDBgt2/fvlDAzs/PFyNGjGBXEDVSBOziVv47f/686Ny5M7uCaFDBgK2YIlJQYmKiaN++/WvZFaQ4DNca4O3tLRYuXCi2b98uJkyYIEJCQoQQT4Pejh07lMFQ8V/NmjXF0qVLixx5JVX37t0TWVlZIj8/XyxdulT07dtXHD16VLz//vuiatWqyte0ZcuWYtmyZeL+/fvC29tbpVdnXl6emDt3Lj/IvAQfH59CizEUF7AzMzOFm5sbg3U5JCYmKj8A+vn5iTZt2gh/f3+xYMECYW1trfx9t7S0FLNnzxaXL18WJ06cEO+9957KeTw9PRms1aRgwG7Xrp1ISEgQQjwN1pMmTWKw1oBdu3YVmoMthBBXr14VvXr1YrDWguICdnJysujTpw9XHH0Ow7WaXbx4USxevFhlW1Ffo8TExIiLFy+KkJAQTgMph2+//VY4OzuLzMxMkZ6eLnbu3Cn69Omj/CpRJpMJe3t70apVK+XPIT4+nsH6BeXm5oqlS5cKS0tL0aNHj0IB+/79+8qA7ebmJiIjI8WAAQMYrNXsyJEjok2bNiImJkbk5uYKf39/MXr0aOXCPIoPllWqVBGpqalCiKej31FRUTquvHIpGLDt7OzEzZs3hYeHB4O1Bu3evVsZsHfu3ClOnz7NYK1lBQP2hAkTREREhOjbty+DdREYrtVs3bp1KnPt/vnnH/Htt9+KCRMmiA8//FCEh4frsLrKafny5cLFxUVlqfLo6Gjx9ddfK7taACi16T0Vb9q0acqv/G7fvl3kiqH3798XDRs25AIxGlYwYCukpKSIrVu3KhdCAiC2bt2qwyorv4yMDJXXm8Fa83bs2KF8vdu0acNgrQM3b95ULlRlbm5e6iqlryuGazW7dOmSMDQ0FL179xY2NjYq0z8ACBsbm0KjflR+y5cvF66urioBW4in3xqcO3dOTJkypdAyrlQ2d+7cER999FGh7Tk5OYXmrJ86dYrBWguKCtgKd+7cEZ6eniptsUgzEhIShEwmY7DWonHjxjFY69iuXbuEhYUFg3UJuEKjmnXp0gUrVqzA9evXYW5ujrFjx2LDhg24ceMGgoKCIJfLVRbUoBeXmZmJ9evXq2z79NNP4eTkhGHDhiErK0u5XSaT4c0338TmzZvx6aefarvUSiErKwt//fUXLl++jFOnTmHx4sWws7ODqakpatWqBXd3d+UCDtHR0Vx5UQvc3Nzg5eWF/v37IzY2VmVfkyZNsGTJEqxdu1ZH1VUc0dHRRW4XQuDOnTulPv727dv4/vvvuUBMGSUmJioXfnlebGysykIwRZEkCebm5vjzzz+5QMxLysvLQ3x8fJH70tPT8fjx41LPkZCQgOPHj6N79+7qLq/y4ci1dowdO1Z5gyO9uLt37woXFxdRtWpV8d133xXa7+XlJfr166ccwWbf0/LLz88Xffr0UfkGRk9PT3To0EH0799fpX87f7e1q6gRbP7Ol01ubq7o3bt3oW9ZJEkSs2fPFgsWLCj1HP/884+myquUdu3aJd5+++1CXYX++ecfYW9vX2KvfCGEiIuL44h1OYWGhopOnToVeq3T0tJEr169Sv3WUZIk5UJVVDxFpjbQcbavlORyOW7cuIEuXboAAMLCwpCXl6dcEp1ezIMHD7Bo0SL4+fnBzMwMR48exaNHj1RGMD777DPI5XJ0794dK1aswJUrVzB//nwYGhrqsPKKTU9PD4cPH8aGDRtgYGCADh06oFOnTqhWrRqAp6+5YpTPzs5Ol6W+dtzc3CBJEjp37oyVK1fi4cOHGDduHKysrHRd2ivPwMAAhw8fxpAhQyCEwODBgyGEwNy5c5GXl4fVq1eXeo5WrVppodLKY9y4cUhNTYW7uzv2798PQ0ND3L59G+7u7ti3bx8aNmxY4uPr1q2rpUorrxYtWmDTpk14++238fPPP6Nhw4ZIT0/H4MGDMXXq1FK/dZTJZMwwL0AWFhYmAKB58+a6rqVSWbFiBXbv3g1zc3O0a9cOK1euhJmZma7LqpAWLlyId955Bx07dlRuE0IgMTERJiYmMDc3B/D0q8O+ffsiLS0NJ0+eRM2aNXVV8mvB09MTvXr1gpOTk65LeW3Nnj0bP//8MwICAtC0aVNdl1OhpKWlYciQIZg3bx5OnTqFvLw8rFu3DjKZTNelVVobNmxAQEAAFi9ejHHjxmHfvn38YK5lQUFBmDZtGnbv3o1p06Zh6tSpcHd313VZlUZ4eDgAgCPXGvLJJ59AkiQIIfB///d/ui6nQsvOzsbOnTthYGCAW7du4ddff+ZvSwkAABmrSURBVMXx48eRnJwMExMTbN++He7u7hBCoE2bNvjqq69Qo0YNXZdd6axatQq2trZo3LgxAgICIJfLGazLIS0tDVlZWUWOyv37778wMzODhYVFiecwMzNjsH5JFhYWOHz4MFq1aoXOnTvj8OHDDNYaNmPGDDx8+BBdunTBxYsXGax1oEuXLvD29kabNm2watUqBmsN4ci1hgkh+IZdTmFhYejYsSMyMzOV26pXr4633noL9+/fR1RUFB49eoSEhASYm5szWGtIeno6BgwYgBs3bmDTpk0YM2aMrkuq0C5fvowZM2bg119/VQnYsbGxGDp0KHx8fNCpU6diH5+RkYH4+Hg0adJEG+VWOkIILFiwAE+ePEFoaCjmz5/PG3I1TDEVZMCAAQgPD8dPP/3EqXta9uTJEwwdOhQ9e/bEr7/+ip9//hk2Nja6LqvS4Mi1ljBYl1+LFi1w6dIlHDp0CE2bNkW7du3QqlUr6OnpITc3F40aNUJKSgrfIDTM3Nwcx44dw5kzZzBw4EBdl1Phde7cGd7e3hgyZIgyYCuC9dq1a0sM1gBQtWpVBuuXpAjW2dnZ2LRpE9LT01XmYJP6hYaGKudY29nZYf369SpzsEnzFMF60qRJcHd3x6BBgzB8+HDlHGxSH45cU4WWl5eHAQMG4MSJE/wgQxXSmTNnMH/+fGzatAmTJ0/G2rVr8dZbb+m6rEqrYLAuOMe64BzsIUOG6LjKykURrPfu3asyFUQxB/vHH39kwNaw54O1QnBwMKZOnYpDhw4xYKuBYuRaf+bMmZ4AUKtWLV3WQ1QmDx8+xLJly2BsbIyoqCgsW7YMs2bNQqNGjXRdGtFLeeONN2Bubg5XV1ds3LgRLi4uui6pQsrJyUFcXFyp89Tz8/MRGxuLzz//XOUDubGxMYYPH47r16+jXbt2mi73tXLx4kVMmDCh0Bzrrl27Ijs7G/Xq1eMN/xr28OFDNGjQACNHjlTZXq9ePXTq1AmPHj3CG2+8oaPqKg9Fv3COXFOFExgYiP79+8Pe3h579+5F48aNdV0S0UuLiYmBm5sbPvjgA/z444+F5mBT2WRlZaFjx47w9/dnSCAineCca6qwHBwc4O/vj2bNmrGvL1VoMTExGDx4MNatWwdHR0d06tRJZQ42lU4IgT179uDLL7/EnTt34OTkhICAAAZsDcvKykJwcDAiIyNhaWmJbt26oXbt2rou67WSn5+PGzdu4Nq1azAzM0ObNm3Yg/0VwZFrIiIdiI2NhZubG9auXQtHR0fldsUcbAbs0kmShPfeew/W1taYMmUKzM3NcfPmTWzduhXff/896tevr+sSKx0hBPbu3YtPPvkEDx8+VG43MjLC6NGjsWrVKk4z1YLz589j5syZCA4OVtnu4OCANWvWlHpDNGmGYuSa4ZqISI2ioqJgY2MDPT29Eo+7ffs2Hj9+DAcHh0L7AgMDUatWLY5ClWL16tVISUnBl19+qbJdkiTk5eXByMhIR5VVTjk5OZg0aRJCQkLg6uqKVq1aITQ0FH/++ScuXboEAGjUqBGOHDmCNm3a6Ljaymvjxo3w9vbG0KFDYW9vj5SUFPz111/w9/dHTk4OjI2NsW3bNrZL1QGGayIiDdi2bRsuXLgAHx+fUgM2lU/79u3h5+eHZs2a6bqUSi89PR3u7u7o06cP5syZA319feU+IQR27dqF6dOnIzMzEw0aNEBwcDDq1Kmjw4orHyEEPvvsMyQkJGDNmjWFbt69evUq3n33XUREREBfXx/+/v5wdnbWUbWvJ0W45js/EZEaxMXFYebMmZg+fTq2bt2KyZMnQ5IkXZdVqcXGxuLevXsq24QQiIiIwA8//IBx48Zh0KBBmDFjBh48eKCjKis+xQJSI0aMwMcff6wSrIGn6zm8//77uHTpEszMzBATE8OVidVMCIG5c+fi33//xbZt24rsitOhQwcEBwejS5cuyM/Px+TJk5GTk6ODaokj10RE5XT79m2MGzcOn332Gd566y3o6elhz549SExMxPLly3VdXqXl7OyMGzduYNq0aahatSpu3bqFP//8E7GxsYWOrVq1KoKCgjjV5gUpgnVqaipu3LhR6noCe/bswbhx42BmZobk5GQYGLBvQnkpgvX69etx7969UvtR37lzBx06dEB6ejoCAwPRo0cPLVVKnBZCRKQGubm56NGjB3bv3o0WLVoU2sfFMdRDLpdDT09P5fW8ceMGevXqhZSUFJVj9fT00LFjRzg5OaFRo0a4ffs2fHx8MGDAABw+fFjbpVdY6enpGDlyJI4fPw4AmDFjhsrCO8Xp06cPAgICcOnSJXTp0kUbpVZaiqkga9euRXZ2Njp16oSTJ0+iRo0aJT7Oy8sLCxcuxDfffIOFCxdqqVritBAiIjW4du0ajI2NCwVrAAzWavTvv//Czc0NaWlpym329vYIDw/HV199halTp2Lx4sU4fvw4kpOTERQUhBUrVmD69OlYt24dli1bhmvXrunwGVQ8f//9N/z8/ODv7w9LS0ts2LABM2fOhBCixMf1798fABAdHa2NMis1xQqKt27dQvfu3REcHAwXFxckJyeX+DhXV1cAwP3797VRJj2H39cQEZXDw4cPERMTg5ycHJXuFFlZWTh//jz++usvnD9/HqampnBycsJHH33E0P2CwsLC4OXlhRMnTsDR0RFHjx5FgwYNAACWlpb44osvSj1Ht27d4Ovrq+lSK4XMzEyYmprCzc0NANCvXz/8/fffcHJywoYNGyCEwPr164sdwW7fvj0AsBViOQghkJGRgc6dOyu3/fHHHxg8eDACAgLg7OyMP/74o9gRbEW3FsXfE9IuhmsionJo3749Hjx4gJ49e+Kdd95BYmIizp////buPKipawED+JegIMWKywh1QToqWipVUekoUja1qBTjQt0VZFhHRBCt444jrri32opgxWFzQdsCAmqB2taq08Vxw2h1oCiIoGJJpEWS+/7oS54UEPCFBMj3+4uEc+58jMh89+bce37CxYsXa91MlJqaitOnTyMrK4tPEmmEqqoqLF26FM+fP8f8+fOxePFi/P7774iMjMSqVasaXHv6srNnz2Lq1KnNmLZtqKiowPbt27F69eoaJ4HW1tbIycmBi4sL9u/fDwD1Fuy7d+/C3Nwc77//vtZytyWCIGDbtm3qtesqJiYmSE1NrVGwz549i65du9Y6hupGX4lEorXc9D9cc01E1ATPnj2DqalpjfdU6xv/rUuXLnBycoKjoyOMjIxw/Phx5Obm4tSpU5g8ebK2IrdKgiDAx8cHbm5umDlzZqPnZWRkYNSoUejcubP6vZSUFOzfvx9ZWVm8we4VVDcvzpkzB0FBQXWOycvLg4uLC0pKShAUFIR9+/bVKtgzZszABx98gODgYG3EblNUNy/+8ccfOHnyZJ1j5HK5umAPGzaszoIdHR2NzMzMeo9BzYM3NBIRvYaIiAiYmpoiLCysxvsXLlxAeno65HI5bGxsYG9vj3feeafGFWqFQoHhw4dDIpHU2viEakpOTsaFCxewd+/eJs2TSqWYNm0axo4dC5FIhBs3bsDS0hK7d++GiYlJM6VtG3x9fREbGwszMzP8+uuv9S7r+HfB/uyzz9S/5+np6dixYwfOnDnDE5nXkJSUhNmzZwP455Mu1dKcf3u5YNva2uLcuXPqgv3gwQO4ubkhMzOTy0K0TFWuIZVKBalUKhARUf1evHghJCUlCVZWVgIAISQkRKiurm7ycRYsWCAcOHCgGRK2LSNGjBCuXLnyWnOlUqnQs2dPwdbW9rWPoY8OHTokABAACAMHDhSKiorqHXvz5k3B3NxcACAEBQUJCoVCyM3NFZydnYUnT55oMXXbUlBQIIhEIgGAYGxsLHz77bf1jpXJZIKLi4sAQLC1tRUeP34s5OfnC87OzsLPP/+sxdSkourUvHJNRNSAvLw8LFq0CFOmTIGTkxMqKyvxww8/QCaTNepmOpXKykqMGjUKaWlpvKL0CqWlpTAzM8OjR4/QvXv3Rs95eeydO3eQm5sLPz+/5orZ5lRUVMDa2hrvvfceMjMzMXDgQOTk5KBHjx51js/Ly4OzszMePXqkfiRiVlYWzM3NtZy8bRk7dix69OiB+Ph4GBsbIy0tDa6urnWOlcvlcHd3x3fffYdBgwZBLpcjISEB9vb2Wk5NAB/FR0TUKIWFhQgKCkJiYiIWLlwIGxsb2NnZISwsrN5iXVlZiVOnTtXYoVF1U97SpUtZrBug2k0xLy+v0XOOHj1a47WVlRWLdRO9+eabGDNmDHx9feHh4QGpVAoXFxcUFxfXOd7a2hpHjx6FWCxGWVkZzpw5w2KtAd7e3ujSpQt27tyJyspKfPTRR8jJyalzrImJCVJSUtC7d28UFBSwWLcQLNdERK+wYMEC7NmzB2ZmZo2eY2xsjEePHsHOzg7Lli2Dv78/XFxcMHv2bMydO7cZ07YNqseLJSQkNHpOdXU1nj171lyR9IaXlxeSkpJw4sSJRhVse3t7ODo6Ijs7u0n/R6h+U6ZMQVpaGhYuXIhdu3ahsrIS7u7uyM3NrXN8t27d4OrqiqysLBbrFoLlmoioHlevXsXTp08xZMiQJs8NCAiAn58ftm/fDlNTU2RnZ2PKlCnNkLLtsbS0hKmpKWJiYnD16tVGzSkrK0OHDh2aOVnb5+zsjKtXr0Imk+HEiROYNGnSKwt2dnY2jh49ymKtQSYmJnBxccHp06cRGhqqLtgTJ06ss2Dfvn0bgYGBLNYtCMs1EVE9Xmf96MOHD9VfBwYGYv/+/QgODuaTKppALBbDx8cHSqUSU6dORVlZ2SvHC4IAqVQKIyMjLSVsu8RiMWbMmIHk5GQYGhri+PHjkEgk6oJdVFQEAFAqlVAqlRg/fjyLdTPw9vZGXFwcACA0NBS7d+9WX8F+eYmIQqHAgAEDMGrUKF1FpTqwXBMR1aOwsBB5eXkNbvf8sn/vAhgUFARLS0tNR2vzlixZgq5du+Lu3btwd3dHSUlJvWOjoqLg4OCgxXStU0VFBebMmYOdO3fWOAn8Ny8vLxw5cgQAYGhoiGPHjqkL9tChQxEbG4stW7agoqJCW9HbDEEQsGLFCoSFheG3336r92+Lg4MDbt26pT6xXLx4Mfbs2YPnz59j3LhxWL16NXbu3NnoT3ZIu1iuiYjq0bVrV+Tn5+Onn35q9JwnT540YyL90bt3byQlJaFdu3a4fPky7Ozs8PXXX9coIzKZDMuWLUN2djY3LGmAaoOYxMREhIeHo1evXpg4cSKSk5NRWVlZY2z//v3Rrl073Lp1C8D/CvbIkSNRWlqKXbt2wdfXt9ZmSvRqwn83iNmyZQt2796NYcOGYfDgwYiKilJ/IqAiEokwa9YsJCUlqd8LCQnBypUroVAosGfPHowcORK2trba/jGoEViuiYjqMXToUABAeHg4FApFo+bIZLLmjKRXPvzwQ5w/fx59+vRBYWEhJk+eDCsrK8ycOROTJk1Cr169cOfOHRw/fhwGBga6jtti/f3331i3bh3mzJmDvn37wtraGv3790dGRgZmzZqFt956C76+vjh//rz6CTcvL0sA/inYW7duxaBBg3jz4mvau3cvrKysMGHCBHTu3BnOzs64ceMGPvnkE1hYWMDNzQ0JCQmQy+UAgPnz56s/QVCJiIiAubk5b15s4ficayKielRVVcHS0hIPHz5ESEgI9uzZ88rxly9fRk5ODpYvX66lhPqhvLwc8fHxOHHiBK5fvw6RSIThw4cjICAAEomkxi6YVDeFQgEDAwM8ffoUEydOhJ+fH959913ExcUhOTkZ5eXlAIC3334b8+bNg0QiwaxZs5CXl6c+cdm2bRu8vb1ZrF+TUqmEWCyGUqlEWFgYysrKsHHjRiQmJiIuLk79jOSOHTvC09MT8+fPR0REBPbt2wcbGxsAQEpKCnr06MFi3UJx+3MiokaIjo5GQEAAAGDlypWIjIyESCSqNU4ul8PNzQ0pKSl81i+1aOXl5ZgwYQL8/f2xYMEC/PXXX0hNTUVcXBwyMzPVn9KIxWJkZmZi3LhxAP452TQ0NNRl9DZDEASEhobi8ePHiIuLg1gsxqVLl2qd7IjFYixZsgRRUVEAgBcvXqB9+/a6jE6vwE1kiIgawc/PDz4+PgCATZs2QSKRqP+Aqly7dg0ODg4IDg5msaYWr3PnzsjIyEB0dDQOHz6MDh064OOPP0ZaWhru37+PHTt2YPDgwVAqlbWWhpBmiEQi7N69G127doWXlxeUSiVGjhyJzz//HMXFxTh27Bjc3d0hEokQHx+P6upqAGCxbiV45ZqIqAFKpRJRUVFYtWoVFAoFxGIxbG1tYWlpiYKCAly/fh1ffPEFvL29dR2VqNFUV7ADAgLq/N29cuUK0tPTsWrVKu2H0xOCIGDx4sV4+vQpDh8+XOvegYcPHyIxMREzZsxAr169dJSSGovLQoiImujatWtISEjAN998g9LSUnTr1g1jxoxBeHg4+vbtq+t4RE2mKtiBgYHw8vLSdRy9JAgCQkJCUF5eXmfBptaD5ZqIiIjUBdvHxwe+vr4QBAGlpaVc4qRFgiBg0aJFKC8vR0xMDDp06ICioiL07NlT19GoCbjmmoiIiNRrsLdu3QpPT0+Eh4frOpLeEYlE+PTTT6FUKmFnZ4fw8HAUFhbqOha9Jl65JiIiIpw8eRJr167lc6x16M8//0SfPn2QkZHBLc1bIV65JiIiIgD/LEu4desWi/X/QalUIiYmRr0Rz8tkMhm+/PLLBo+RmZmJzMxMFutWjuWaiIhIz4lEIixevJjF+v8gFotRXFyMgICAGgVbJpNBIpHA2Ni4wWN4eHhg5MiRzRmTtIDlmoiIiGBiYqLrCK3emjVr0KdPH3XBVhVrPz8/zJw5s8H5jSng1PJxzTURERGRBm3YsAH5+fnIz89vdLGm1o9rromIiIia6Pnz5w2OCQsLQ25uLkQiEaZPn66FVNSSsFwTERERNVJsbCyio6Pr/b5MJsOkSZOwceNGODo61lqDTW1fO10HICIiImrpqqqqcOjQIWzevBnFxcUAAH9//xpjKioq4OHhgcDAQPVSkPXr18PPzw8HDx6EWMxrmvqA/8pEREREr1BUVAQXFxcUFxcjNjYW6enpOHfuHA4ePKgeo1AoIJFIahRrAFi3bh0sLCwQHBysi+ikA7yhkYiIiKgeSqUS48ePR0REBOzt7Wt87+7du+jXr5/6dUFBASwtLes8zr1799C3b99mzUq6xRsaiYiIiBpw5coVVFdX1yrWAGoUawD1FmsALNZ6hGuuiYiIiOohlUohl8vr/F5paSm+//57XLp0CcbGxnB1dYWjo6OWE1JLw2UhRERERPX45ZdfMGLECAQFBcHT0xOlpaX48ccfkZ2djRs3btQav3z5cmzZskUHSUnXVMtCWK6JiIiI/ksQBIhEohqvPT09cfLkyTrH9+vXDw4ODmjfvj1SU1NRUlKCy5cvw87OTluRqYVQlWsuCyEiIiL6rw0bNsDV1RUODg4AAJFIhOTkZOzbtw+ZmZmQy+UYMmQIRo8eDQcHB1hYWKjnPn78GDY2Nrhw4QLLtR5juSYiIiICcPPmTZw5cwabNm3CkSNH1Lsrtm/fHqGhoQgNDX3l/G7dusHR0RFGRkbaiEstFMs1ERER6bWysjIEBwejU6dOCAoKglwuVy/xWLRoUaOPo1AokJeXh8jIyGZMSy0dyzURERHprfLycnh6emLnzp0YNmyY+n1/f39UVlbWOUcmk6GkpKTGo/iUSiWWL1+O6dOnw8rKqtlzU8vFck1ERER6KyAgAOvXr69RrFWMjY3rnGNsbIzNmzdDLBbDyckJ5eXlOHXqFBwdHbFy5crmjkwtHDeRISIiIr0klUpx584dODk5NWmegYEBDhw4gKqqKsydOxdnz55FdHQ01q5dC7GY1Urf8co1ERER6aWUlBT079+/SXOqq6vRrl07GBgYIDY2FmKxGJs3b4a5uXkzpaTWhqdXREREpJfy8/Px4MGDJs05ePCg+msDAwPExMSge/fumo5GrRjLNREREeklQ0NDXLx4Effv32/0nCdPntR4LRaLuRSEauBvAxEREeklGxsbKJVKrFixotFzKioqmjERtQUs10RERKSXpk6dCiMjI8THx+PIkSMNjr9+/To6deqkhWTUmrFcExERkV4yMzNDQEAAAMDX1xfp6en1jq2ursayZcswb948bcWjVorlmoiIiPTW1q1bYWdnhxcvXmDSpEnYsGFDrc1jysvLMW3aNIwbNw4WFhY6SkqthUgqlQoAMGDAAF1nISIiItK6p0+fwsfHB1999RUAoGfPnvDw8IClpSXu3buHY8eOITg4GJGRkRCJRDpOSy3V7du3AbBcExEREUEQBPXa65ycHCgUChgYGGD06NFYs2YNxo4dq+uI1MKxXBMRERHVQSaT4dmzZ+jSpQveeOMNXcehVkJVrrlDIxEREdFLOnbsiI4dO+o6BrVSvKGRiIiIiEhDWK6JiIiIiDSE5ZqIiIiISENYromIiIiINITlmoiIiIhIQ1iuiYiIiIg0hOWaiIiIiEhDWK6JiIiIiDSE5ZqIiIiISENYromIiIiINITlmoiIiIhIQ1iuiYiIiIg0hOWaiIiIiEhDWK6JiIiIiDSE5ZqIiIiISENYromIiIiINITlmoiIiIhIQ1iuiYiIiIg0hOWaiIiIiEhDWK6JiIiIiDSkneqL27dv6zIHEREREVGrJwIAqVQq6DoIEREREVFrNnDgQNF/ANBkqV7akbqfAAAAAElFTkSuQmCC;" vertex="1" parent="1">
          <mxGeometry width="727" height="430" as="geometry" />
        </mxCell>
        <mxCell id="rDMtgLqNduICIHuUhlhb-3" value="" style="shape=image;verticalLabelPosition=bottom;labelBackgroundColor=default;verticalAlign=top;aspect=fixed;imageAspect=0;image=data:image/png,iVBORw0KGgoAAAANSUhEUgAAAtcAAAGuCAYAAABbSyrJAAAACXBIWXMAAAsTAAALEwEAmpwYAAAgAElEQVR4nOzdeXxM9/oH8M8smWRmskd2iRCC2IrSxF67qtqulpbSUkqtbW97Fbd+7eW6RRdaFKVFF6p2qpQitlJLE0ssiSyE7Nskmf38/khzkumERDKSSD7v12tenXnme575HrU8OfM930cCANeuXRNAREREREQV1rRpU4mEhTURERERkW3Ii56EhIRU5zyIiIiIiB5b169fBwBIq3keRERERES1BotrIiIiIiIbYXFNRERERGQjLK6JiIiIiGyExTURERERkY2wuCYiIiIishEW10RERERENsLimoiIiIjIRlhcExERERHZCItrIiIiIiIbYXFNRERERGQjLK6JiIiIiGyExTURERERkY2wuCYiIiIishEW10RERERENsLimoiIiIjIRlhcExERERHZCItrIiIiIiIbYXFNRERERGQjLK6JiGqwX3/9FTExMVX+uZs3b4Zer6/yzyUietyxuCYi+pvFixejfv368PPzs3r4+/ujUaNGaNmyJQYNGoSNGzfCaDTafA5paWlo2bIlXnzxRTg5OYnxhQsXwtXVFTKZDHK5HE8//XS5iuArV65AJpOhY8eO5fr8r7/+Gg0aNMCff/5Z4XMgIqqLJNeuXRMAICQkpLrnQkRUY5w7dw5jxozB1atXxZhCoYCzszMEQUBWVhZMJhMAwNHREQcPHkRYWJhNPnv37t0YNmwYXFxcEBsbC2dnZwDAmjVrMHHiRHh4eODq1at46qmncOvWLYSGhuLy5csPzFmvXj3k5OQgPj4evr6+5ZrHK6+8gk2bNmHy5Mn47LPPIJFIKn1uRES11fXr1wHwyjURUanat2+PS5cuWRSU+/fvR2pqKtLS0qDX6zFgwAAAgEajQXh4OBYtWlTpz7169SqGDRsGLy8vJCUliYW1VqvFpEmTAADvv/8+PD09sWHDBgCFV6UPHDhw35yvvvoqMjIysHr16nIX1gCwfv16DB06FMuXL8frr79eibMiIqo7WFwTEd2HVCqFVFr6X5NSqRT79u1DYGCgGJszZw6Sk5Mr/HnZ2dl46qmnYDQacfz4cSgUCvG9nTt3QhAEAEDLli0BAF26dBGL/6VLl5aa8/Tp0/j6668RHh6OcePGPfScfvjhByiVSqxevRqbN29+6OOJiOoaFtdERJXw6quvis/NZjNOnDhR4Vx9+vRBbm4uwsLC0LBhQ4v39u7dKz53dXUVn8tkMgCwWL5Scj59+/aFQqHA7t27KzQnqVSKxYsXAwBGjx6NrKysCuUhIqorWFwTEVVCixYtLF5nZmZWKM+VK1dw9uxZAMD06dOt3i8oKBCfy+Vy8XnRlWuDwWB1zPDhw5GXl4ctW7bA3d29QvMCgEmTJkEikcBoNGLu3LkVzkNEVBewuCYiqoRDhw5ZvC5asvGw3n//fQCFxfILL7xg9X6/fv3E57m5ueLzop1KgoODLcYfOHAAO3fuRL9+/fDcc89VaE5F5HI5fHx8AACrVq3i1WsiogdgcU1EVEE5OTlYv369+Do4OBhPPfXUQ+fJzs7Gtm3bAABqtbrUdd7/+Mc/xKvUN27cAFB4Z3rROuxRo0aJY/V6PQYPHgyVSmWzddLdu3cHAJhMJuzbt88mOYmIaiMW10REFbB3717Ur18fOp0OQOE66MOHD1c4l9lsFvOUxtXVFTNnzgQAzJ07F2azGePHjwdQuM1eyd08+vXrB71ejz179ljskV0ZDRo0EJ9/9dVXNslJRFQbycseQkREAPD8889Dr9cjPz9fXI6hUqkwatQofPHFF7C3t69Q3mvXronPi5ZflObjjz/GvXv3sH37djg4OMBoNKJly5Y4fvy4eGPj5s2bcfToUYwcORI9evSwOP7KlSvQ6XRo27btQ88xKChIfH7q1KmHPp6IqK7glWsionIKCgpC69atLToy7tixA2vXrq1wYQ0A58+fF58HBAQ8cOx3332HgoIC5OTkwGQyISoqCi4uLgAK99seM2YMXF1dsW7dOvGYAwcOwMHBAa1atUKHDh1gZ2eHzz777KHmWHJNd0FBwSPpSklEVBuwuCYiKqePPvoIERERFjcXDho0COnp6ZXKGx0dLT4veYX4QRwcHKw6Jnbv3h0mkwkHDx6Eg4MDACA+Ph4DBw6ETqfDr7/+irS0NAiCgJkzZz6w8czfNWvWzOJ1SkpKuY8lIqpLWFwTET2kffv2iZ0TdTod+vTpU6l82dnZlZ7TqlWrcOHCBUyZMgXt27cX4yNGjIDRaIRarcbTTz8NV1dXtGvXDkDhTZLl9fcr6iW3BiQiomIsromIHpJUKkVERIR45fjChQuVan1ecg/qO3fuPPTxKSkpmDp1Kry9vfHJJ59YvFd0VdzLy0uMhYSEACjc0q+8HSX/Pq6s5StERHUVi2siogpo3bo15s2bJ75+7733cPny5Qrl8vf3F5/fu3fvoY/v0qULAODw4cMWDWaAwnXYgGUBX7LQLrne+0H+/PNP8blKpbJozU5ERMVYXBMRlVPRntJF/u///k/s0CgIArp27Yq8vLyHztutWzfx+cOuZV64cCFu3ryJOXPmoHnz5lbvF+2ZrdfrxVjJJR1Fa7PLcuXKFfG5t7f3Q82RiKguYXFNRPQARftPA8VXgUs6efKkeBU3MzMTTz/9tFURXpYhQ4aIzzMyMsp9XHx8PObNm4eGDRuKHR7/rugqdcm27CWvjv+9s+P93Lx5U3zetWvXcs+RiKiuYXFNRHQf+/btsyiUjxw5YjXG2dkZ27dvF1+fPXsWzZs3R2xsbLk/p02bNlCpVADwUK3FO3fuDKlUikOHDpXa1REAXnzxRQBAUlKS+MNBREQEgMK114GBgeX6rPj4ePH5e++9V+45EhHVNSyuiYj+ZvHixXBxccHAgQMt4p988glUKpXVLhvPPPMMXnrpJfH1tWvXEBwcDJVKJRayZXnzzTcBFC7fuHjxYpnj33rrLSQlJWHx4sUP3L5vyZIleOKJJ2A2m9GzZ08MHjwY6enpkMvl+Omnn8o1NwD4/fffAQChoaFo2rRpuY8jIqprJNeuXROA4rvHiYio6uXn58Pd3R06nQ7jx4/H2rVr7ztWo9EgMDAQrVq1wtGjR8vMbTQaMWvWLHz//fcoKChAaGgodu3aBV9f33LNTaPRwNnZGYIgYPfu3Xj22WfLfV5ERHXF9evXAbC4JiKqMZYvX47p06fD0dERubm51T0d0euvv44vv/wS7du3x9mzZ62a1xARUXFxzWUhREQ1xLRp0zBgwABoNBpMnjy5uqcDANBqtVi7di3c3Nxw5MgRFtZERGVgcU1EVIPs2LEDISEhWL16dbmWfDxKWVlZ8Pf3h1QqxZkzZ+Do6Fit8yEiehywuCYiqkEUCgWio6MxZcoUDBw4EJs2baqWedy5cwdBQUGQy+WIiopC48aNq2UeRESPGxbXREQ1jEQiwfLly3H8+HEsXboUFy5cqPI5DB06FOPHj8e9e/e4OwgR0UPgDY1ERERERJXEGxqJiIiIiGyMxTURERERkY2wuCYiIiIishEW10RERERENsLimoiIiIjIRlhcExERERHZCItrIiIiIiIbYXFNRERERGQjLK6JiIiIiGyExTURERERkY2wuCYiIiIishEW10RERERENsLimoiIiIjIRlhcExERERHZCItrIiIiIiIbYXFNRERERGQjLK6JiIiIiGyExTURERERkY2wuCYiIiIishEW10RERERENsLimoiIiIjIRh6L4jo6OhqHDx+u7mkQERERET1QpYtrjUYDmUwGiURi9fDw8LAY++GHH1qN+fnnn++b+9y5c3BwcEDz5s3Rq1cvSKVSTJ8+vbJTJiIiIiJ6JCTXrl0TACAkJKRCCfr06YNDhw7BxcUFTk5OYjwxMREDBw7Enj17xJi9vb3FGD8/P0RGRt43t6enJyQSCQYOHIj9+/fj3r17AIA1a9ZgwoQJFZovEREREZGtXb9+HYANrlz7+voiMzMTmZmZSEhIQEJCAg4cOAAAWLlypTjuueeeg1qtxoULF5CWloa0tLQHFtZRUVEYPHgwUlJSsH79ety9exdDhw4FAHz88ceVnTYRERERkc1V+sp1afr06YMTJ04gPz8fAJCamgpvb28IggAAUCqV+PXXX9GpU6eHynvlyhW0aNECr7zyCtatW2ez+RIRERERVYbNrlyXJiIiAr1797aITZ48GaGhoZDL5SgoKEDnzp0fuN66NKtWrQIALFy40GZzJSIiIiKyFZtfub5x4wZCQkJw584d+Pn5Wb1fUFCAwMBApKWlQa1WQ6PRlDu3o6MjWrRogd9//90mcyUiIiIisoVHduV66tSpUKlUpRbWQOGSkNTUVKhUKuTl5cFkMpUr74oVK6DX6xEREWHL6RIRERER2YzNi+tjx46hT58+ZY4rGnPx4sUyxyYlJWHWrFnYv38/FApFpedIRERERPQo2LS4jo2NhVarxYoVK8oc+9prrwEA2rdvX+bYli1bYvbs2ejZs2el50hERERE9KjYtLieMmUK1Gr1fZeElDR//nw4OzuXOS4oKAidOnXC/Pnzxdi5c+cQFRVVmakSEREREdmcTYvro0ePol+/flbxmTNnolWrVoiLiwMALFu2DH/++ae4HzZQ2OnR09MTkyZNEmMhISG4e/cuZDIZBg8ejIEDB+Kpp55CeHg4/P39bTl1IiIiIqJKs9luIXFxcWjYsCHu3r0LHx8fi/f69++PX375BQAgl8uhUCiwe/dui2UeP//8M5555hm4uroiMzMTnTp1wqlTp0r9LDc3N2RkZFRqvkREREREtlK0W4jcVgkNBgMWLVpkVVgDwP79+5Gamordu3dj9OjRpd6UOGDAAPz000/o0aMHAODkyZO2mhoRERERUZV4JB0aiYiIiIjqkkfaoZGIiIiIqC5icU1EREREZCMsromIiIiIbITFNRERERGRjbC4JiIiIiKyERbXREREREQ2wuKaiIiIiB7K4cOHce7cuXKNNRqN+O2336DRaB7xrGoGFtdEREREdZRWq4W9vT0kEonVQy6XIy4uzuqY7777Dr169cKwYcPKzN+9e3eoVCqMGjUKLi4uaN68OXJych7BmdQcLK6JiIiI6qhZs2bBYDDA0dER9evXR0BAAAICAiCRSODq6oqgoCCL8cnJyRg3bly5cnfr1g3Hjx/HkSNHcO/ePaxbtw7R0dFo3749BEGw/cnUECyuiYiIiOootVqNEydOIDc3F4mJiUhISMCpU6cgCALGjx9vNT48PBze3t5l5r106RIiIiKgUqnQqVMnAMDYsWPh4eGBmzdvYtOmTTY/l5qCxTURERFRHbVkyRKEh4dbxBYsWAC5XI6xY8daxKdMmYKcnBwsWLCgzLyHDx8GAOTn50On04nx1q1bAwB27NhR2anXWCyuiYiIiEi0ZcsWuLi4IDQ0VIwdO3YMGzduxObNm+Hs7FxmjlatWgEAzGYzTp48KcYNBgMA4Pbt2zaedc3B4pqIiIiIAAB3795Feno6XnvtNTGm1WoxZMgQjB07Fr169SpXnu7du0OhUAAA1q9fD6Cw0L5x4wYAoFmzZjaeec3B4pqIiIiIAAALFy60WhLSvXt3BAYGYtmyZeXOI5VKsXbtWkgkEmzcuBHu7u5wd3dHcnIyAKBr1642n3tNIbl27ZoAACEhIVX6wd988w3efvvtUt87e/asxd2pI0eOxKFDh8TXL7/8MpYuXfqop0hERERUp3h5eQEAUlJSAAAHDhxA//79YWdnB6m08Jqs2WyGXq+HRCKBk5MTduzYgaeffrrUfDExMVi4cCEcHBzQvHlzTJs2DVKpFOnp6XB1da2ak6oi169fBwDIq+PDzWYz3nzzTWRkZEAikVi8JwgCbt++LRbXhw4dws6dOy0Ww//yyy8sromIiIhsKDk5GWlpaZg9e7YYM5vNUKlUMBgMMJvNYqyIyWSCyWS6b87g4GB89dVXAIDGjRsDAEaPHl3rCuuSqqW4jouLg0ajgY+PDxo0aAA7OzsAQFRUFDQaDbp06QKg8H/ehAkToFAoLK6sL168uDqmTURERFRrlbZLSP/+/a06K+7YsQNDhw5FQEAA4uPjy5X7woULiI2NRXh4OL7++mtbTrvGqZbiOiUlBV9//TVGjRplEVcqlWjfvr34es2aNWJnoIyMDCxevBgjR46syqkSERER1Qk//PAD3NzcKrRUWKvVomXLlvDx8cGRI0cglxeXmImJiejcuTMaNWqEI0eOWK1aqG2q5YbGsLAwq8L64sWL0Ol0mDt3rhjbv3+/+Pz27dsYNWoU5s2bV2XzJCIiIqoLUlJSkJaWhkmTJlXo+MuXLyMmJgYnTpxAcnIyzGYzli1bhrZt26J58+Zo27Ytzp8/L+4gUptV2w2Nfzd06FDs2bNH3P8QAI4ePYoff/wRp0+fxrlz5wAAEokEUVFRaNGiRXVNlYiIiKhWuXv3LjZt2oTXXnutwuuhjx49Ck9PT4SGhkKv12PJkiVo0aIF+vfvD3t7exvPuOYpuqGxxhTXKpUKrVu3xunTp0t9//vvv8eYMWNgMpkwbtw4cc9EIiIiIqLqVlRc14h9riMjI6HVavHvf//7vmNGjRqFPXv2AACOHDlSRTMjIiIiIiq/GlFcf/jhh5DJZHjmmWceOK5///6QyWQWS0eIiIiIiGqKGlFc7927Fx06dChznMlkglQqxRNPPFEFsyIiIiqfxMREbN261aY5T548icTERJvmJKJHr9qL66ioKGi1WsyfP98ibjKZMH/+fJw5cwZA4RYvCxcuhMlkwowZM6phpkREVBf06NEDEomk1Mf9CuimTZuWuVWsRqOBTCYrNa+Hh4c4bv78+VAoFBgxYgR69uwJLy8vfPjhhzY9x8ddWloajh8/Xt3TqJPydCZsPZeKo9ezIFT3ZGqoar+h8fnnn8eOHTug1+st4nl5efD19UVubi5atGgBJycn5OXlwcfHBwcOHKiWuRIRUe2m1+vh4OAAhUIBd3d3ca/ejIwM5OfnW3SmKxIeHo7Tp09DJpPBaDTeN3efPn1w6NAhuLi4wMnJSYwnJiZi4MCB2LNnD6Kjo9G8eXPMmDEDn376KQBgxIgR2Lp1K+7cuQM/Pz8bn3H1e+2117Bu3bpS3zt69KjYWK4kf39/ZGdnWzU3KUmr1cLd3d2iw3OR0NBQ8eJeWWPqssQMHWRSwM+1eKeP9Sfu4tDVTADAnIEN0NxXXV3Tq3FqzA2NMTExpf7BkUgk4l9iN2/exJUrV9CpUycW1kRE5XDx4kUcPHjwkeQ2m804ceIEIiMjH0n+6vTzzz9jwYIF0Gq1SEpKQkJCAhISEuDq6ooGDRpYjV+1ahUuXrwIBweHMnP7+voiMzMTmZmZYt6if9NWrlwJAOKN+3l5eeJxTz75JIDCrdJqG6PRiG+++QYAIJVKIZPJIJPJAACCIKB+/fpWx7z88stISkqCVqt9YO6ZM2dCq9VCIpGIeWUyGcxms/gZ5RlTV/0Rl4vZ22Lw7tYYXE4q/v2oVhT+ukgAKO3q9q/R/VRLh8aS5syZY9GVsYhKpYJGo8HZs2fh6uqKJk2aVMPsiIiql9FohLe3NzIyMqzek0gkOHbsmNUFivPnz+PJJ5+Eg4MD8vPz75t77dq1mDhxIgTB+svdpk2bIjo62iJ248YN9OzZE3l5eWjZsiU++OCDCp5VzTV48GAMHjzYKp6UlITPP//cIpaamooZM2bgt99+Q+/evcvMvWHDBqvYtGnToFQqERAQAAB4++238e6772Lt2rXIz8/H4sWLMWfOHPTr16/Ufysfd2fOnIGPjw/atWuHpk2big1GVq1ahYKCAgQFBVmM37t3L3bv3l2uDn/p6elo3LgxevToAW9vbwBAbm4uPvvsM0yfPr3cY2q77AIj/vdzArILjJjZJwBNvJQAgKSswqv5wl/PW/gVXqEe3t4T/m728HSyQ1C9sn+orJOuXbsmXLt2TSAioppnw4YNgkQiEVQqleDn5ycEBAQIAQEBgkwmE+zs7KzG5+bmCm5ubgIAQalU3jevyWQS3N3dBalUKnh4eIh5PT09BQDCrFmzLMbPnDlTkMlkQnh4uGAwGGx+njXZokWLBIlEYhX38vIS3njjDUEQBEGpVAoymeyhc9vb2wuDBg2yiH311VcCCmsawc7OTnjppZcqNvHHQHx8vHD+/HmruFQqFUaNGmURy87OFtzc3IQ+ffqU69d73759gl6vt4iNHz9ekEqlQl5eXrnH1BZmQRD2RaYJXxy+LSRl6cR4xPUs4aU1l4WX1lwWvopIEuMarVFYffSOsP54klCgN1XDjB8/RTU1i2siohrs448/FjZu3GgRy87OFuRyudCtWzer8X379hVcXFzKLK7j4+OFyZMnWxUQU6dOFSQSiZCamirGJkyYIEgkEmHq1KmVPJvHU/369YWGDRtaxF544QWLWEWK6+vXrwsAhDt37li99+KLL4oFdps2bSo28cfUDz/8IEgkEuHy5csW8SeeeEJo1qyZkJKSUuEfZlxcXISQkJBKj6npUnL0QsT1LCFXaxRjt1ILxCJ68f54MZ6VbxDe2nJDmLQhWoi+W7t+oKhqLK6JiB5TmzZtEqRSqbBr1y6L+FdffSWoVCph165dZRbX9+Pi4iL4+PiIrz/66CMBgODo6CjodDrh+PHjte6KXlkkEonw5Zdfiq9/+eUXQaVSCTpd8dW/ihR7ffv2FVQqlVV83759glwuFxYsWCAW2B07dqz4CTxm2rRpI6jVaovY3LlzhYCAAOG3334TBKFiv95JSUkCAGH9+vWVGlPT5BQYBXOJ1zqDWXh9Y7Tw0prLwoI9cWI8M88gjP/6qvDSmsvCptP3LHKY/3pQ5bC4JiJ6TD355JNWS0JiY2MFV1dX4eOPPxaioqIqVFxfuHBBkMvlwltvvSXGGjduLBbX9vb2YrE3fPhwm5xLTbdkyRKrJSFqtVqQyWSCg4OD+Cj6dXFwcBCmTJlSrtwODg7C4MGDreISiUQYMWKEIAiCsHPnTjF3enp65U/oMSCTyYTRo0eLr8+fPy/Uq1dPeP/998VYRYrriRMnClKpVMjPz6/UmJrky6N3hJfWXBaW/pIgxvL1JmHsV1eEl9ZcFmb/FGMxPk2jF64kaQQTK+lHoqimrvbdQoiIqPxyc3Nx8eJFdOrUSYwZjUYMGDAALVq0wKxZsyqce/369TCZTHjvvffEWHx8PABg3Lhx0Gq1OHXqFCQSCX766SesX7++4ifymPjss8/QsGFDi5iHh4e4o0TRo4jZbLbaWrY0sbGx0Gq1WLFihUX8ww8/hCAI4v+D5557Dm+++SYAVOr/7eNi69atMJvNmDNnjhgbPHgwsrOzsWbNGvj7+8Pf3x9arRYmkwn+/v745JNPypX7xx9/REhICJRKZaXGVIfLSXn4v91x2HI2xWJv6bO3cgAAFxJyYTQXvqO0k+LNvgHo18IdU572t8jjobZDc181pGXfD0qVwOKaiOgxsmfPHpjNZrzzzjtibPLkycjIyMCRI0cqlXvDhg3w8fGBu7s7AODWrVswGAwAgAULFgAAwsLCxL4IdaGxye3bty0KPaDwBw6dTmfxUCqVkMlk0Ol0WLNmTZl5p0yZArVabbVv9a1btwAUNlIrsnTpUgBAXFxcJc+m5lu4cCHUajWaNWsmxor2oE5PTxcfwl873KSnp1vtalOa5ORkZGVlYfbs2ZUa86hpDWb8HJWOP+JyLeI/nEnBjeR87PozDcnZxT+8/eNJL3g5KfCPJ70gL1Ext67viDHhPqjvZg+qeiyuiYgeI59++ilkMhmeeeYZAIVNC9atW4fMzEw4OTlBqVSK+yIXFBTA0dGxXFf2IiMjodFoMHr0aDFWssBzdnYWn/fr1w8AkJKSYpNzqqk++eQTSCQSvPrqqxU6ftKkSfD09Cy10cnRo0fFX8eSvvjiCwDAW2+9JcZ+//13ALD4gaq2ioyMxPDhwy1ikyZNQt++fdG7d2/xUdTpsnfv3hgxYkSZeefPnw+pVPrAseUZY0upuQZk5BksYpvPpuDb35Px6a+JuJlSIMZDfVUAAG9nBdzVdmK8Xwt3fPxCYwx+ol6VzJnKp9r3uSYiovLRaDS4cOGCxb7WgiDA1dUVGo1GXJ4glNi32mw2i1efH6RoSci//vUvMdaoUSNIpVKYzWbExMQgODgYANC1a1csW7asXI1THmeffvopGjVqVOHjt2zZgqysLERERGDAgAFiPC4uDlqtViykS1IqlXjjjTewcuVK+Pn5ITAwEJGRkXjllVcwcODACs/lcbBt2zaYzWaLZUkASt1PXaVSQa/Xi013AGDJkiXYtGkTTp8+bfV7c/PmzWjatOkDl3uUZ4yt/JmowZIDCZBKJJg7sAGaeBcWzyWXa8hKvBj5lDeebuYGd7UcCvmjWdMxeu2VR5L3QTZNCK3yz6wKLK6JiB4Te/bssSqAmzZtivT0dItxly5dQqtWraBUKh/YRKakb775Bn5+fuKSEKCwY16jRo1w8+ZN7N27V2yqERMTAwBo27ZtZU+pRps5c2a5msMAKPXXOSYmBkeOHLEorAHAYDBg0aJF8PHxKTXX559/js8//xzbtm2DwWDA0KFDxeYqtdmCBQvg6OgoLjt6WMuXL0dCQgIiIyPRsWNHMZ6SkoKsrCwsX778vseWZ0xFaHQmfHIwEblaE6Y87Y8gj8Ki/2ZKAQQBMAkC4tK1YnH9fAcv+Lgo4O2sQMMSDVokAHxcav/vgdqCy0KIiB4Tn332GeRyOfr27fvQxxqNRnTp0gXBwcFWbaOjoqKg0WgwZswYq+O2b98OiUSCf//732Jsw4YNkEgkWLt27cOfxGNk1qxZaNWqVYWPd3d3x7Bhw6ziTZo0wbvvvlvm8cOGDcMLL7xQJwprAAgODsbrr79errHPPPOMRQENAL169SGQX3EAACAASURBVIJUKoW/v+VNfLm5uXB2drZabvKwY8py5FoWvjl5D+ma4m+Kzsfn4tq9fCRl6XD0WpYY7x3qhg5Bzujc2AVdmriKcXu5FH1C3dG6vmOF50HVj1euiYgeA3l5eTh37hy6detWoeOTk5Nx4sQJAMDly5ctWml/8803MBqNpRZ8LVu2xH//+1/MmTMHfn5+sLOzQ1paGvbv348GDRpU7GSISjFv3jyxDXxZtm7dahVbtWoV3n//favi2svLC0eOHHngMqbyjCmSXWBETGoBWvipYS8vvEaZkKHF2ogkAEBWgREzetUHADT3VcNVJUe+3owng5zEHC5KOWb0rl/2idJjSXLt2jUBQIW/hiEiokcvNzcXq1evxj/+8Y8KF7VXr15FSkoKunfvbhE/fPgw4uLiHnjjXkFBAXbt2oXg4GDxhkmi2s5kFizWPhtMAmZtvoGsfCPaBjrhrb6FPwykaQz45483YTAJ6NfCHWPCfSxymAXATlaz97/jmuvKu379OgAW10RERERWNp6+hwOXMtA1xBUTuxVumajRmTB50zUIAlDfzR6LhgeL429n6nAvW48nAh0ttsV7XLC4rryi4pprromIiKjOupGcjyW/JGBflOWNwUeisyAAiLiRBdNfDVoc7WV44+n66NrEFZO6Wy4/qe9mjyeDnB7Lwppsq9qK623btpV7Q/zs7GwcOHDg0U6IiIiIai2DScCRa1m4ejfPIr7xdDIuJmrw3e/JSM0tvhlxYGsPqO1leLZ1PYulIWGNnDGpu5/Fbh5EJVW6uNZoNOJm7n9/eHh4lHrMwoULMXz48FL3riypoKAAPj4+8Pb2xj//+U/4+fkhJCQEBQUFDzyOiIiI6i6NzoR8vckitvlsMtZGJGHB3ngkZBTvmNPgr+3x3NV2cFbKxPiwdp74ckxTvNDBq2omTbVGpXcLGTp0qNjEwMmp+E7YxMREhIeHW42PjY3FvHnzypW7devWSE9Pt2iAIJPJ0L59e1y5UvVrg4iIiKhmu3QnD4t/SYBcKsG/BwWJxbPWYBbHGIzFjZZe6eyLHk1d4euiEHf/IKqMShfXvr6+yMzMhIuLixiLjo5G8+bNsXLlSqvx7dq1Q7t27fDHH3+Umfv27dsACpeFFOW3s7NDbm5uZadNREREj7F8vQkrfruDPL0ZE7v5wfevJiuXk/JgMgswmQVcT84Xi+tRHb1Rz1EBXxcFgr2KuzBKJUCw56Pvykh1R6V/RNuwYYNFYQ0A06ZNg1KptNqvsl+/fqhXr16pjQpKM2jQIBiNRnh5eSExMRHPPvssDAYDIiIiKjttIiIiekz8fisHW8+lIqfAKMbOxuXiYqIGN5Lz8evVDDHes5kbQn3VeCLAEeHBxfWJ2l6GIW3r4alGzlU6d6p7HkkTmYiICKsOYps3b0ZERASysrKwatWqcuXZsmULvLy8kJqaiqCgIDg4OCA6OhpBQUGPYNZERERUnfL1JiRm6NDYSyneRJiQocXyQ4XfZKfm6jG5R+EuHSHeKqgUUuiMAlr5F3c09HSyw3sD2eCIqo/Ni+sbN25Ap9NZFNAajQbjxo3D/v37H7qNa0pKCuRyOUwmEwoKCnDr1i00adLE1tMmIiKiamQwCXhvWyzSNAZ0CnbBlKcLi2iFTAqpBDALsFgT7euiwLJRITCaBTjay+6XlqjK2by4njp1KlQqFfz8/MRYaGgoXn75ZauuYOXRtGlTtGjRApmZmUhMTET//v3x559/olWrVracNhEREVWRH/9IwS+XM9CrmRtGPeUNoPCqdZqmcAODkrt5+LgoMG9QQ9zN0iGskeUyVAc73oBINY/Nf1ceO3YMffr0EV+vW7cOiYmJ2LBhA5RKJZRKJd5++20Aheu13d3d75vr2Wefxc2bN3H+/HkkJCQgMDAQgiBgxIgRtp42ERER2VhcuhYrj9zBsetZFvF9UenQGszYdykdwl8bd7go5Xi1iy/aBTphXGdfi/FNvJToFuIKhZwNWqjms+mV69jYWGi1WqxYsUKMmc1mKBQKmM3FW+AIf/1JEgQBJpPJKk+RX3/9FR4eHpDJZGJ+pVKJmzdv2nLaREREVAkms4Bz8bnwclIgqERzlXXH7yI2tQAnbmajhb8aHmo7AEDP5m44eDkDPZu5QVKiXu7ZzA09m7lV9fSJbMqmxfWUKVOgVqstloRMmDABEyZMsBi3bNkyzJgxA2PHjsW6devum89oNEJS4k+dTCZDWFgYdwshIqIqN3pt1fZX2DQhtEo/r7z0RgESCWAnK/73ecvZFOyNSodUAiwaHgw/V3sAheuiY1ML4OQgg1pRvC56TJgPRj/lY1FYE9UWNl0WcvToUfTr169Cx2o0Gnh6emLSpElirH379khNTbUYd/36dXh5sVsSERFRVbt2Lx+vb7qGad9dR1KWToznaAu/hTYLQJ6u+BvpCV398E7/QPx3WLDV+mgW1lRb2ezKdVxcHLRaLb744osKHR8REYG0tDRs2bIFX375JQBg+/btCA0NhZ2dHTp37owrV67AbDYjMjLSVtMmIiKiv9EazFh/4i7ydCa80sVXXM5xISEXeqMZemNhs5aiK9QjO3rB0UEGPxcFGnurxDx2Mgla13cs9TPKwm8K6HFls+LaYDBg0aJF8PHxKXPs9OnTMX36dIvYgAED8NNPP6FHjx5izM/PD1lZWYiLi8Pu3buxZs0absNHRISqLzwAFh+1VeRtDe5k6tC9qRtUisKry6djc3DiZjYAYP+lDLz0144e3UJcEXUnDw52UjzVsLgZi4tSLo4hqutsVlw3adIE7777bqVyDBs2rNR4UFAQpk2bVqncREREdZneKCAlVw9/V3txScbtTB0+2p8gPn+tW+E9U408HWAnk8BoEtC0xJVoP1d7LBjaqMrnTvQ4eSQdGomIiKjmMJgEzN0Ri6QsHZ5u5obxXXytxpRcAx3o7oBPRzaBwSSgnqNdFc6U6PHH4pqIiKgW2f1nGn69komezd0w+Il6AACNziTegHgjOV8cW9/NHu/0D8SdLB16NLXcAs9FyRKBqCLY2oiIiOgxlJSlwzcn7+FsXI5FfOu5VKTnGbDtfCr+6s8CN5Ucz3fwQlMfFV7829ro1vUdMaClB5TsdkhkE/yTREREVIMJQuHOHMk5eov46mNJOHglA8sO3UZ2gVGMhzcqvNEwrJEzSu5291ybepj3bFCFd+8govLhdz5EREQ12NZzKdh5MQ12Mgn+949geDkpAADOfy3bUNrJYC8vvlY2qYc/Xu7kA1WJpi1EVHVYXBMREdVgRVesDSYB2flGsbie0sMfFxI0aOyltGjQIgFYWBNVIxbXRERENdgLHbyhkEvh72Zv0aDFwU6K8GDnBxxJRNWBxTUREVEN5ulkh4l/7T9NRDUfb2gkIiIiIrIRFtdERERERDbC4pqIiIiIyEZYXBMREf1Naq4BP/6Rgit386p7KkT0mGFxTUREdZYA4Faa1qIJCwCsOHIHOy+m4aOfE6DRmapnckT0WKq24nrbtm2Ii4t76OP0ej2+//576PX6sgcTERE9wM4LqZi3IxZvb7mJzLziAlshK+xtKJdJIJVI7nc4EZGVShfXGo0GMpkMEonE6uHh4VHqMQsXLsTw4cPxwQcflPtzvv32W6jVaoSEhGDXrl0wmXglgYiIyicuXYtZm29gzvZYi6vUt9K0AIACgxkpucUXbd7oWR/jOvvi/UENoVLwS14iKr9K73M9dOhQCIIAV1dXODk5ifHExESEh4dbjY+NjcW8efMe6jPatm2LyMhIrFy5EhMnTqzslImIqJYymARsP5+KAoMZI570FDsVRtzIQmquAYAB5+Jz0bOZGwDg+Q5eAIAAd3uElGjQ4uwgQ+/mblU+fyJ6/FW6uPb19UVmZiZcXFzEWHR0NJo3b46VK1dajW/Xrh3atWuHP/74o1z5GzZsiMTERERFRSE0NLSy0yUioloiIUOLlBwD2gY6QiYtXLpxMiYbu/5MAwA4OcgwrJ0nACCsoTMirmdBqZChdX1HMYe/qz1m9Qmo+skTUa1V6eJ6w4YNVrFp06ZBqVQiIMDyL6x+/fqhXr16GDNmTLmK66eeegpxcXGYNm0afHx8cPLkSXTq1KmyUyYioseIAEBnMMPBrnh5xt1sPebtuAWTWcCgNvXwwl9XoD0d7cQxnk7Fz5t4q7BqTDNIJABXUBPRo/RIFpJFRESgd+/eFrHNmzcjIiICV65cKXee8+fPAwC2bNkCb29vdO7cGXK5HIcPH7bpfImIqGYymQV8uDsOE76JFq9IA0BOgREmswAAyMwziPFQPzX+M7QR3h8UhK5NXC1ySVlYE1EVsHlxfePGDeh0OqxatUqMaTQajBs3Dj///DMUCkW5cxmNRsjlcuzduxcGgwHz5s2DyWTCgAEDbD1tIiKqZsdvZOM/e+JwMiZbjKVpDLienA8AOFUiHuKjwrhOvujX0h0jO3pb5AnycECTEuuniYiqks2L66lTp0KlUsHPz0+MhYaG4uWXX0b37t3LnWfz5s0AAC8vL7Rv3x4A8MEHH8DOzg56vR47d+607cSJiKhKZOUbsS8qXdypAwAEAVgbkYToe/n4KuKuGPdyVqBbiCs81HYY1KaeGJcA6B3qhjFhPnBVVXqFIxGRzdi8uD527Bj69Okjvl63bh0SExOxYcMGKJVKKJVKvP322wAK12u7u7uXmken0wGAxQ4kAODpWXhzyv79+209dSIisrHkHD0KDGaL2PLDt/Hd78n4cE8c8vWF70kkQBNvJQBY7NohATCxmx8+G9UEnYJdQERU09n0x/3Y2FhotVqsWLFCjJnNZigUCpjNxX+5CoIg/vd++1WPHDkSY8eORXp6ukW8ffv2SEpKsrpZkoiIapa9Uen4/vdkuCjl+O/wYDg7FG6L99c/ASi8VbHYuwMa4E6mDvXd7Kt2okRENmTTK9dTpkyBWq22WBIyYcIE6HQ6i8fSpUsBAGPHjkV2dnapuRQKBeRyObKysiziMTExAIAxY8bYcupERFRBtzN1mLs9Fgv3xlu0Co++W7hWOrvAiLtZOjH+Rk9/jHjSC+89E2TRoEUulaCBh4O4rR4R0ePIpsX10aNH0a9fvwodq9Fo4OnpiUmTJomxpUuXwmg0Yvbs2WLsxo0baNy4Ma9cExFVMZNZwJ7IdPx0LhV6Y/G3kb9FZyIuXYsrd/PwR1yuGB/Wrh6a+ajQJ9Td4gZDD7UdBj9RD429lFU6fyKiqmCz4jouLg5arRZffPFFhY6PiIhAWloatmzZIsamT5+Obt264aOPPkLHjh3h7OwMPz8/3Lhxw1bTJiKicjpxMxs/nEnG9gup2H8pQ4y3DXSCnUwCJwcZmvsWF9EN6ykx99kgjO3kA16MJqK6wmZrrg0GAxYtWgQfH58yx06fPh3Tp0+3iA0YMAA//fQTevToYRE/evQokpKSsGfPHrzwwgsWnSCJiKjqOCuL/8lw+mv9NAC09Fdj5eimkEklsJOxiiaius1mxXWTJk3w7rvvVirHsGHDSo37+flh4sSJlcpNRESV80SAI2Y/0wAGk4A2AY4W75XsnkhEVJdxc1AiIiq3Fn7q6p4CEVGNxksNREREREQ2wuKaiIiIiMhGWFwTEREREdkI11wTEdVgyTl6rI24C0cHGSZ18+ONg0RENRz/liYiqgEEATgcnYn9lzJgNBe3Bf/lcgau3s3D2Vs5Fg1aiIioZuKVayKiKpZdYER2gREB7g4o2hX6ZEw21h2/CwAQBAEDWnkAAEJ91Th4JQP2cimC2dGQiKjGY3FNRFSFUnMNmL0tBlqDGaPDfNC/pTsAQF6ihaFCXvyl4pNBTvj8xRDYySRQKWRW+YiIqGZhcU1E9AgIArDiyG1cvpOHl8J80LlxYXfZu9k6aA1mAMCttAJxfMdGzpgmqQ+zWUBYI8tOtC5K/lVNRPS44N/YRESVFHlbg1MxOeje1BXNfFQACovoUzE5AICfo9LF4rqFnxr9W7ojNdeAoW09xRwSAE81dK7yuRMRkW2xuCYiKietwYyo2xo09lLBTV3416fJLODTX29DbzQj8rYGX7wUAgDwdlagqY8KN5Lz0TXEVcwhk0owOsynWuZPRESPHotrIqJSGEwC5FIJJMVLobHs0G1E3tbARSnHpyObwE4mgVQigZtKjuQcPeo52YljZVIJ5j4bBLNZgKzEemoiIqrdWFwTEf3NsetZWBuRhPpuDnj/uSDY/3WDYbrGAADQ6EwwmMywk8kgkQDzn2uI68n5aO6rtsgjAVhYExHVMSyuiajOStcYsOHUPTgr5RgT5gOFvLAQPnEzG2YBSMjQIiFdiybeheuoX+/hj0NXM9A20Mli5w4nBxnaN3CqlnMgIqKapdqayGzbtg1xcXEPdUxiYiK2bt36aCZERLWWAOBUTA6O3ygsmovsiUzHufhc/BadiXPxOWJ8QCsPuKvt0L6BExp6Fu8t3bCeAyZ09WMhTURE91XpK9cajQYuLi4wm81W77m7uyM9Pd0qvnDhQsyZMwevvPIK1q1bV+7Patq0KfR6PYxGY6XmTES1V4HBjHydCR6OxeufT8VkY8VvdwAAepMZPZu5AQCCvZQ4eAWwk0kQ4O4gjn8iwBHLRjWp2okTEVGtUOnieujQoRAEAa6urnByKr6ak5iYiPDwcKvxsbGxmDdv3kN/Tnh4OAoKCiCTsYkC2cbhw4fh4uKC9u3blzk2MTERV65cQY8ePWBvb1/qmPz8fPzxxx8ICwuDQqGw9XSpHNI1Bry3PRZ5OhNe6+aH7n/t0mEqcbnaYCp+3qWxCxrVc4BKIYOriqvkiIio8iq9LMTX1xeZmZnIzMxEQkICEhIScODAAQDAypUrrca3a9cO7dq1e6jPWLVqFS5evAgHB4eyB1Odo9VqYW9vD4lEYvWQy+WlLj/67rvv0KtXLwwbNuyBuWNiYuDq6orAwED0798fDg4O6Nq1K7RarTgmPz8fQUFBUKvV6N69O+zt7TFp0iRbnyaVIAjAuuN38c8fb+J8fK4Yj0/XIk9nAgBcScoT410au2J8F1+M7eSD3s3dLHL5udqzsCYiIpupdHG9YcMGuLhYdhObNm0alEolAgICLOL9+vVDvXr1MGbMmHLnT01NxYwZM3Do0CFIJLzrnqzNmjULBoMBjo6OqF+/PgICAhAQEACJRAJXV1cEBQVZjE9OTsa4cePKlXvQoEEwGo0YMmQIgoODAQDHjx/HkCFDLMYEBQVh69at6NKlCwBg9erViI6Otsn51XXX7uVj4+l7iEsv/oHmbrYOh6MzcTdbj+0X0sR4q/qO6NrEFc19VXi2dT0xLpEATzdzQ59Qd+7eQUREj9QjuaExIiICvXv3toht3rwZERERuHLlykPlatmyJV577TV06tTJllOkWkStVuPEiRPIzc1FYmIiEhIScOrUKQiCgPHjx1uNDw8Ph7e3d5l54+Pj0bFjR6SmpmL79u24efMm3nnnHQDAoUOHAABmsxkffPABjhw5guHDhyMiIkLMnZycbMOzrP0MJgGXk/Kg+evKM1C4nGPxLwn45VIGPjmYKMY9nRQIcC9cntMhqHg5mp1Mgknd/TBnYJD4PhERUVWy+XehN27cgE6nw6pVq8SYRqPBuHHjsH///odaizpy5Eio1Wp8/vnntp4m1SJLliyxii1YsAByuRxjx461iE+ZMgU5OTn4+OOPrd77uwYNGuDrr7+2iE2dOhUfffQR/Pz8AABSqRSdO3cW39fr9dBoNOjbty+6d+9ewTOqm5Yfvo3z8bnwdLLDkhGNIZMWNmhRKWTQGsxwcii+38JOJsF/hjRCvt4yTkREVN1sXlxPnToVKpVKLD4AIDQ0FC+//PJDFRsHDhzA7t27kZmZaespUh2wZcsWuLi4IDQ0VIwdO3YMGzduxI4dO5Cbm/uAo+9v+/btkEgkeOONN6zey8rKQps2baDX60u934AKnYrJwVfHk9CwnhLv9A+EnaxwmUZSlg4AkKYxQGc0Q6UobNDy/qAgXE7KwxMBjhZ5ZFIJC2siIqpxbL4s5NixY+jTp4/4et26dUhMTMSGDRugVCqhVCrx9ttvAyhcr+3u7l5qnmHDhkGn08HFxUU8rqCgACaTCUqlstTihggA7t69i/T0dLz22mtiTKvVYsiQIRg7dix69epV4dwfffQR1Go1ZsyYYRG/dOkSGjZsiISEBBgMBoSEhODs2bMV/pzaILvAiNXHkvDDmWSL3Tp+i86E1mDG1bt5iC+xjnpCVz90aOiM17v7WzRo8XC0Q7cQVzgredMhERHVfDYtrmNjY6HVarFixQoxZjaboVAoYDabxYcgFP5DKwgCTCZTqbk8PDwgk8ksjiuZU6/X23LqVIssXLjQaklI9+7dERgYiGXLllU47+7du5GWloYdO3ZYbcfXsmVLZGZm4syZM3BwcIDJZMK7775b4c96nAgAIm9rcCEhFyX6s2DnxTQcu54lNmq5ePEiDh48iKebucLBTormvmo08CjeAaiZjwozetVH58aFN0jr9Xr8+eef9/1cg8GAY8eOIS0t7b5jiIiIqppNi+spU6ZArVZbLAmZMGECdDqdxWPp0qUAgLFjxyI7O7vUXPHx8VbHKZVKyGQy6HQ6rFmzxpZTp1pk8+bNcHNzQ7NmzQAULjE6e/Ysrl69CrVaDaVSiRdeeAFA4f7VLi4u+O233x6YMyMjAy+99BJeffXVB1757tChA3bt2gUAOHXqlI3OqOYwmgXk5Ovg4eEhbncY9GQ/fLQ/AUsPJKJJl2E4fvw4gMIt7oDC5RsZd2LQrl07DB48GOHBLlg7thnmDGwgLgkpSavV4tVXX4VKpUJYWJjV+yaTCQMGDICjoyPGjh2LDh06wM/PDxs3bny0J09ERFQONi2ujx49in79+lXoWI1GA09PT+4PTJWSnJyMtLQ0iyUhZrMZKpVKfP73b0JMJtN9v0Ep0rFjR7Rp0wZffPFFmXPo06cPpFJprds6MjPfiJk/3MAb392Ec+Mw8d4K7/pB4hgHR1dxO8Jezd0w/7mGeH+AL158rpf4jVVZVqxYgcuXL8NkMpV6zJw5c7B//34sWbIEt27dwq1bt2A2mzF27FhkZGTY5FyJiIgqymbFdVxcHLRabbmKj9JEREQgLS0NW7ZssdWUqA4qbZeQ/v37Q6PRWHwL8uOPPwIAAgICoNForLaOLCksLAxSqRQHDhwQC+aYmBgcO3as1PFpaWkQBAFt2rSx4ZlVHQHAD2eSMX/XLVwu0YglJqUAWflGCJBgxOuzkZeXhzt37uDUtlUY0toFUTuXw0MXL46XAGjspcTkcS9Y/DBTljfffPOB30wdPnwYQOEP5EUCAgIgCAJvgCYiompns+LaYDBg0aJF8PHxKXPs9OnTIQgC1q1bJ8YGDBiAn376CTExMfc9Lj8/H0aj0Sbzpdrphx9+gJubG0JCQh76WK1Wi8aNG6NLly7i77Pu3bvjjz/+QFBQEEaOHIlBgwahc+fOaNmyJU6dOgWtVotJkyZhx44dYp6JEyfCzs4OX331lc3O61GJT9di2/lU3MsuvochKUuHPZHpuJlSgK1/pIjxVvXVaNfACYHuDpg8qLhlvEwqge7GEVzatxpvvznTIv+6detw/Pjxh16y8aBurHPnzgUAvPfee5gzZw7Wr1+PCxcuYPLkyWKjHyIioupis9vvmzRpUukbuMpqRU30ICkpKUhLSxOLr4d1+fJlxMTEICYmBsnJyXjnnXfEq9MHDx60Gj969GhERUVh9erVWL16Nezt7SGVSuHs7IzIyEg0bdq0UudjSyazgIQMHfxcFbCXF/5MbTQLWLA3Hvl6E07FZGPxiMYAAA+1HTyd7JCaa0ALf7WYw14uxZt9AkrN/+mnn0Imk2HQoEFi7NatW3jrrbfwn//8Bw0bNrTZuTz33HMYMmQIduzYgYULF0KhUODdd9/FggULbPYZREREFcW9rajWMJlM+N///mex3vp+hgwZYrWet3379jhy5Ag8PT3h7++Pb7/9Ft9+++0D8/j7+8NgMGDXrl2Qy+Xo37//QzVKqiorj9zB6dgc1Hezx8JhwZBKCpdtyP767kpe4sZCBzsp/je8MbIKDPB0KvtccnMLdwIp2UzHaDRiwIABaNGiBWbNmoVLly7Z9Hy2b9+OgIAA3L59G3q9HhcvXrRpfiIioopicU21hq+vL/75z39WKkdFuirK5fIa863L+fhcfH3yHhp5OmBaz/qQSQuL5pspBQCAO5k66IxmKO2kkEklmPtsECITNejY0Nkij0IugVc5CmsA2LNnD8xms9gaHgAmT56MjIwMmxfVRaZNm4aMjAzxCva+ffvw/PPP854NIiKqdjZvIkMVFx8fj7y8vLIH/qWo1fb95OTk4N69e7aYGtUwGp0JG0/fw+4/01DyAvzPl9KRkWfAH3G5SMgobtAytpMPWvip8UoXXyjtiv/Y+7vaY0ArD3g42lV4LkVLQp555hkAwPXr17Fu3TpkZmbCyckJSqUSTz75JACgoKAAjo6O+OSTTyr8eT/++CNWrFiBmTNnYvv27Xj11VfF+IP+PBAREVUFFtePgNFoxBNPPAFPT0+rx/06S54/fx5NmjTB999/X2Z+rVaL5cuXo1GjRuKuFyVlZGRg0KBBcHFxga+vLxo3boyjR49W+ryoetxMKcD15HyL2PYLqfjlUgY2n03BhcTiVu5hjVwglQAN6znA37X4psC2gU6Y/UwD9GzmZtO5aTQaXLhwQdx+DyhsDuXq6gqpVHrfJlAGg6HCn/nf//4XZrMZEyZMAACsXbtW3NP8008/rXBeIiIiW2Bx/Qh89913uHz5MtLT0y0eaWlpWLt2LeLi4izGazQajBo1CgaDAR9++GGZ+fft24dvv/0Wd+7cKfXmvdmzZ+PMmTPi65iYGPTq1QuRkZGVgnYaSwAAIABJREFUPjd6dAQBFm3CgcJlHvN33cIHu+Pw+60cMe76VytwiQRwUxVfde7V3A1fjWuOD4Y0gkL+6PfZ3rNnD0wmE/71r3+JsaZNmyI9Pd1i68Pz588DAJRKJfLz8y2WkDys9PR0ABALdolEIub7+58tIiKiqsbi+hGIioqCTCZDYGAgwsLC0LlzZ4SFhUEikcDT0xNBQUEW46dOnYrU1NRy58/JyYFaXbiLw99vysvKykJcXBzkcjlmzJiBQYMGQSqVwmQyYcyYMZU+N3o0cgqMePvHm3htQzQuJhYvbUjVFF/hzSjx/NnW9fDPfoH4cEgjNKxnuW2dnUyCqmpf89lnn0Eul6Nv374PfazRaESXLl0QHBwMrVZr8Z5eX7g1YGnNfYoK6UWLFomx48ePQyKRsAkVERFVO97Q+Ai0atUKERER6NChgxhbu3Ytzpw5g3HjxlmM/f7773Hu3Dl4e3uXuwHGuHHj4OHhITbT+LuuXbtix44dUCqVAIBNmzZhzJgxuHr1asVOiGxGALDzQhpupORjWDtPBHsW/j+KvpeP5P9n776jojr6N4A/CwsISBFEEBvG3hUFsSsqiF0UC9hNogE1b2LyM7EkxBg1pphYEMtrIraI0Yi9RCygUVRsaAQLKBaqoNLLzu8PXm7cUJVlV+D5nMM5Mnfu5Qusuw+zc2de5AXK8/eeo3296gCAPs1MkZSaF6r7tvhnSodMBrT7Xx9NSU1NxeXLl9GzZ883Oj82NhZnz54FkLcMYseOeWtn+/v7Szem5uTkoFOnTtiwYQM6dOgAAJg6dSq2bt2KTZs2ITAwELq6unj06BG8vb2V/s8RERFpAsN1OZg4cWKBNl9fX+jo6MDd3V1qi4yMxIoVK5CZmYkFCxYo7SpYEj09vULbTU1NC0wVMTMzAwBusKFmT59n4fqjFNjZGMHMMG/qxpPkTPx+OW9jlqwcBeYPsgEAtLI2RFNLAzxLzYbjKyFaV66FsfaWaq+9NBQKBZYuXYpRo0aV2Ld169YF3mWpU6cObt26hbi4OClYA8Do0aMxevToIq+lr6+Pv/76C6mpqfjjjz9gYWGBvn37Qi7n0xkREWkeX43U4OXLl7h+/TosLS3RsmVLAHkjcjNmzJDmYb948aKEq7y5n376CXK5vFTrP9PrEwDiX2bB3FBHWvouVyGwaH8kXmbkIigiGYtHvAMAqGEgh7G+HC/Sc2BTU1+6hqGeNr4YYqOB6t+ckZER5syZU6ZrtGjRAi1atHijcw0NDTF+/PgyfX0iIiJVY7hWg99//x0KhUJpSsiXX36J6OhojBo1Co6OjkrbZ6vSrVu3cPXqVZiamha5UgmVzfrTTxB0JxlNaunji6ENIQOgEEBObt5IbVbuPyO2BrraWD6qEeJfZsOmZtFbfBMREVHFxHCtBmvXroWuri48PDwA5K0DvGLFChgaGuLu3bsYOXIknjx5AgBISEjAjBkz4OvrW+avm56ejvfffx8ymQy//fZbkVNJqHSuP0rB9guxaFxLH9O6W0P2v7sGbzzOuwHxTlw6MrMVqKajBR1tGT5zaYCr0Sno1thE6TrV9bRRXU9b3eUTERGRGjBcl7OUlBRcu3YNlpaW0lq8kZGRyMzMRG5uLg4fPgzgn1UR0tPTsX37dowZMwZ9+vQp09eePXs2YmNjMXHiRDg6OpbtG6lC0rIUOBKWiBoGcvRuXkNaeSPgagIeJWXiUVIm+rU0g4153sjzOHtLHL6RiC6NTFDtlQ1aGtXSR6Na+oV8BSIiIqqsGK7L2e+//47c3FxMmTJFarOxsUGjRo3w/PlzqS0zMxPPnz+HTCaDqalpoUuQvQ5vb2/cvHkTzZo1w/LlywHkbS6jpaUFU1PTMl27MnmUlAkAqFvjn1H9PaFxOBL2DABgYaSL1nXylj20rW+E8Jg0WJvqobbJP1uDd2tsUmB0moiIiKomja1zvWfPnlJv+HD79u0il5172/17SgiQt8lGREQEYmNjpY9ff/0VAFC3bl08fPgQ/fr1Q05ODmbPno0TJ04UuG7+Dnf/XoEByNvBbvPmzUhISICHhwd27dqFdevWwdXVFREREeXzjVZA16JT8Nnue/hs9z1cf/TP2tL6Ov9M2Xh1JHpQW3P4jG+Gpa7vQE/OJeKJiIiooDKPXKekpMDExERpe+N8ZmZm0m5qr1qyZAnmz5+PKVOmYNOmTUVe+/Lly+jWrRsyM/NGF2UyGWbOnImVK1eWtWy1SE1NxdWrV1G7dm00bdr0tc9//PgxVq9ejf379+POnTvSUmOnTp2Cj48PACApKQn79u3D0KFDAeStpz1v3jzpGq8u/WdkZISgoCDY29uX5duqcFIyc7Hs8AM8S83BLMe6aFHbAMA/o9YAEJ2UibZ189aNHt6hJqxNdVHDUAeN/zWtw7ga50oTERFR0co8/DZixAgIIWBqaop69epJHwDQpUuXAv3v37+PhQsXluraAwYMgLGxMSZPngwrKysIIbBq1Sps3LixrGWrRUpKCrS1tTF16tQS+zZu3BgApJ0XAUhh+sGDB4iNjZXaU1NTEReXt1ZydnY29uzZI90Qmf+HSFH1jB079vW/kQrk+K1nWHvqsVJwvvk4FVEJGXiRnoOgO8lSe5/mNdCneQ04/u8jn7aWDF0amaC5lYFaayciIqKKr8wj17Vr10ZSUhJMTP6Zc3r79m20aNECa9euLdDf1tYWtra2uHTpUrHXvXHjBoYNG6YUpF1dXfHHH3/gxx9/xLvvvlvW0sudgYEBNm/ejP79+5fYt6hNNvKncdSpU0dqHzRoEAYNGlTodby8vKrEknuJKdn4+2ka2tevLq288Tg5E5vPxQAAktNycPNJaoHzzkQk40xEcoH2wNul2x2zJFvfbamS6xAREVHFVOaRaz8/P6VgDQCzZs2Cvr6+NIKdz9nZGTVr1sSECRNKvG6bNm0KjFAvXrwYAODg4FDGqtXDyMgIbm5uZbqBsHHjxtKodlWVkpmLV//syFEIfLkvEr6nH+OHY9FSu3E1OQx08x7StU11QURERKRu5XJXVlBQEPr166fUtnPnTgQFBeHWrVtvfN38tZ+XLFlSpvqo4th8LgYztoTj+6MPpYCtUABpWXmrqbzMyJH6GlXTxtKRjfCZSwNMcLDSQLVERERU1al8Kb47d+4gMzNTaROUlJQUTJ48GUeOHIGu7puPKG7atAn29vawsmJwqmzCY9LgfykOTWrpY4y9pbS29IXIvG3hr0WnSBu06MplmONUH5cfvETvZsrvCpgb6sDcUEfN1RMRERHlUXm4njlzJgwMDGBtbS21tWzZEhMnTkSvXr3e+Lo+Pj7IyspCUFCQKsokDcnMUeDk7WTUMJSjc0Njqd3/UhzCY9IQHpOGbo1NUc8sb93pkbYWOHA9Ad0aK2/Q0sraEK2sDQtcn4iIiEiTVB6uz5w5A2dnZ+nzTZs2ITo6Gn5+fvDz8wPwz26Efn5+2Lt3L549e1bsNZ88eYKPPvqozCPfpF6JqXlrcb86krz7cjwO3chbntFksI20IkdzKwOEx6TBvLoOLIz+6d+3RQ30bVEDRERERBWBSsP1/fv3kZGRIa3BDAAKhQK6urpK62Dnr4ohhCjVToStW7fG559/zi28K5Cwx6n49sgDyAB8PrABWtTOG2XWkv3T59V/j+pUC92bmMLMUM4NWoiIiKjCUmm49vT0hKGhodKUkHfffbfAsnkrV67Ehx9+iEmTJhW7iQyQt1V4165d4e3tLbVdvnwZurq6aNOmjSrLpzeQlqXAT8ej8SwtG5696+Adi7xNV+7Hp0MIQAC4n5AhhWtX21qoWV0X5tXlaGr5zzrSMkBpS3GqeMZvfPObld8Ulz4kIqK3jUrD9enTpzFw4MA3OjclJQUNGzaEq6sr1q1bBwBo2rQpnj59inbt2mHYsGHIyclBQkICrly5gpiYGFWWTqUQfPc57sWlw6WNGWoZ5QXha9Evcetp3nrSgbeTpHDdu3kNRCVmQEsG9G76z02HunIZ+rXkNA8iIiKqnFQWrqOiopCRkYE1a9a80flBQUFISEiAv78/1q1bh65du+LOnTsAgH379in1rVGjBszMzMpcMxXuRUYu7sWloaW1oTRF40lyJnxPPQYAxL/MwifO9QEAzawMUMNQjpSMXNjZ/HODonE1bczuW1f9xRMRERFpkMrCdXZ2NpYtW1aqZfJmz56N2bNnK7W5uLhg9+7d6N27NwDg3LlzqiqNipGrENB+ZfJzrkLgy4D7iH+ZjdZ1DPGZSwMAgL6uNnTlMmTlCJi9coOimaEOfhrTBLmKvFFpIiIioqpMZeG6SZMmmDt3bpmu4erqqqJqqDR2XozDgWsJ6NrYBB/0zttePTtX4Flq3sYsCSnZUt8aBnIsHv4OHidlon19I6XraGvJoM17EImIiIjKZ4dGervcj0/Hj8eisf9aglL7ydtJEADO3n2OrJy8FVyq6WjBq08ddGtsghm96ij1tzbVg11DY+hoc4SaiIiIqDAqX+eaNCc7V+Cve89hXl1HaYOVbRdiER6ThtCHL9HJxlhalWNgW3McuJaInk1NlKZ02Dc0hv0rG7wQERERUekwXFdQKZl564NX19OW2vaExkuj018Na4hG/1u5o75ZNYTHpMFEXw5Tg39+5UPb1cTQdjXVWDURERFR5cZwXQGFx6Rh6aEH0NIC5g+ykUJ0RvY/G/Vk5wrp3xO6WKF7YxNYmuhCX4czgYiIiIjKC8O1Gql8kw0F8GVAZKGHFh+IApC3yYaWDGhUS1+1X5uIiIiICuAwJhERERGRijBcExERERGpCMM1EREREZGKMFwTEREREakIwzURERERkYowXBMRERERqQjDNRERERGRijBcExERERGpSIUK1wkJCQgODtZ0GUREREREhdJYuH7vvfegra1d6EdRAbpdu3YYMGCAmislIiIiIiodjWx/npOTg82bNwMAtLS0IJPJAAC5ubkQQqBu3boFzpk4cSKePHkCbW1ttdZKRERERFRaGgnXISEhsLKygq2tLZo1awZdXV0AgK+vL9LT02FjY6PU/+DBg9i/f78UwomIiIiI3kYaCdd169ZFQEAAOnTooNS+ZMkSjBkzRqntxYsXmDBhAuzs7BAcHIysrCx1lkpEREREVGoamXNdv379AsF6586dEEJgwYIFSu29evWCpaUltm3bps4SiYiIiIhem0ZGrguzdOlSGBgYoGXLllLbwoULkZiYCD8/P1hYWGiwOiIiIiKikr01S/GFhYVhxIgR0udXrlyBr68vpk6dit69e2uuMCIiIiKiUnorwvXvv/8OhUKB+fPnS23Dhg3D8+fPsWHDBtSpUwd16tRBRkYGcnNzUadOHaxYsUKDFRMRERERFfRWTAtZsmQJDA0N0bx5c6ktMzMTAJCYmCi1CSGkttu3b6u3SCIiIiKiErwV4fr69esYP368Utv06dMRGhqq1HbkyBEoFAr069cPbm5u6iyRiIiIiKhEGg/Xe/bsgUKhwLx585TaFy1aVKCvgYEBsrKycODAAXWVR0RERERUahqfc/3NN9+gevXqaNq0qaZLISIiIiIqE42PXDdq1Ah9+/YtVd+BAwfiyZMn5VwREREREdGb0Xi4XrhwIerVq1eqvr///ns5V0NERERE9OY0Hq7btGmj6RKIiIiIiFRC43OuiYiIiIgqC4ZrIiIiIiIVYbgmIiIiIlIRhmsiIiIiIhVhuCYiIiIiUhGGayIiIiIiFWG4JiIiIiJSEYZrIiIiIiIVYbgmIiIiIlIRhmsiIiIiIhVhuCYiIiIiUhGGayIiIiIiFWG4JiIiIiJSEbWH6+DgYDx79uy1znn+/DmOHTtWThUREREREalGmcN1SkoKtLW1IZPJCnyYm5tL/d577z3I5XL06NED5ubmaNasWYnXTk9Ph5WVFSwtLfHpp5/C2toaTZs2RXp6elnLJiIiIiJSuTKH6xEjRkAIAVNTU9SrV0/6AIAuXboAAHbs2IHjx49j/fr1+PjjjyGXyxEREYH169cXe+22bdsiMTERGRkZuHbtGp48eYJ79+6hY8eOZS2biIiIiEjl5GW9QO3atZGUlAQTExOp7fbt22jRogXWrl0LAKhXrx6ioqKk440aNYKXlxfCwsKKvfajR48A5E0Lyb++jo4OXr58WdayiYiIiIhUrswj135+fkrBGgBmzZoFfX19aQS7e/fuSscPHjwIU1NTrFy5sthrDxkyBDk5OahVqxaio6MxePBgZGdnIygoqKxlExERERGpXJlHrgsTFBQEJyenQo998cUXOHToELZv317idfz9/VGrVi3Ex8fDxsYG1apVw+3bt2FjY6PiiomIiIiIyk7lq4XcuXMHmZmZ8PX1LXCsT58+WLx4MQDA3d0d3t7eJV4vLi4O2traUCgUSE9PR2RkpKpLJiIiIiJSCZWH65kzZ8LAwADW1tYFjp08eRIKhUK60fH7778v8XrNmjVDq1atUK9ePQghMGDAANy4cUPVZRMRERERlZnKw/WZM2fQv3//YvucO3cOhoaGSE1NLbbf4MGDcffuXYSGhuLhw4eoX78+hBBwc3NTZclERERERCqh0nB9//59ZGRkwMfHp8S+bdq0KbHPn3/+CXNzc2hra0vX19HRwd27d8tcKxERERGRqqk0XHt6esLQ0LDQKSH/FhcXB319/WL75OTkQCaTSZ9ra2vDwcEBubm5Za6ViIiIiEjVVBquT58+DWdn5wLtq1atwrx586TPb926hcjISKU51ykpKbCwsMD06dOlto4dOyI+Pl7pWhEREahVq5YqyyYiIiIiUgmVheuoqChkZGRgzZo1BY4tXrwYS5cuhba2NkxNTWFra4tNmzbB09NT6hMUFISEhAT4+/tLbX/88QeMjY2ho6OD3r17o1atWsjJycGVK1dUVTYRERERkcqobJ3r7OxsLFu2DFZWVgWOxcbG4saNGzh79ixGjx4NMzOzAn1cXFywe/du9O7dW2qztrZGcnIyoqKisH//fmzYsAFNmjRRVclERERERCqlsnDdpEkTzJ07t8jjbdq0KfEmRldX10LbbWxsMGvWrDLVR0RERERU3lS+FB8RERERUVXFcE1EREREpCIM10REREREKsJwTURERESkIgzXREREREQqwnBNRERERKQiDNdERERERCrCcE1EREREpCIM10REREREKsJwTURERESkIgzXREREREQqwnBNRERERKQiDNdERERERCqi9nAdHByMZ8+evfH5WVlZ2LFjB7KyslRYFRERERFR2ZU5XKekpEBbWxsymazAh7m5udTvvffeg1wuR48ePWBubo5mzZq91tfZtm0bDA0N0bRpU+zbtw+5ubllLZ2IiIiISKXKHK5HjBgBIQRMTU1Rr1496QMAunTpAgDYsWMHjh8/jvXr1+Pjjz+GXC5HREQE1q9fX6qv0aFDB0ycOBErVqxAVFQUduzYAX19/bKWTkRERESkUvKyXqB27dpISkqCiYmJ1Hb79m20aNECa9euBQDUq1cPUVFR0vFGjRrBy8sLYWFhJV6/YcOGiI6Oxo0bN9CyZcuylktEREREVG7KPHLt5+enFKwBYNasWdDX15dGsLt37650/ODBgzA1NcXKlSuLvXbnzp0RFRUFT09PWFlZ4dy5c2Utl4iIiIio3JTLDY1BQUHo169foce++OILHDp0CD4+PiVeJzQ0FADg7+8PS0tLdOvWDXK5HIGBgSqtl4iIiIhIFVQeru/cuYPMzEz4+voWONanTx8sXrwYAODu7g5vb+9ir5WTkwO5XI6DBw8iOzsbCxcuRG5uLlxcXFRdNhERERFRmcnCw8MFADRt2lQlF3R2dkZwcDBSU1OL7NO1a1f89ddfMDQ0REpKSqF9du7cibFjx8La2hqPHz+W2nV1dZGdnY29e/di2LBhr11fRETEa59DRERERJWHqnLvq/IzpspHrs+cOYP+/fsX2+fcuXMwNDQsNoBnZmYCAIyMjJTaLSwsAABHjhwpY6VERERERKpV5tVCXnX//n1kZGSUaj51mzZtcP78+SKPjx07FpMmTUJiYqJSe8eOHfHkyRPpZsnXVR5/qRARERERASoeufb09IShoSGsra1L7BsXF1fsWtW6urqQy+VITk5War937x4AYMKECWUrloiIiIhIxVQark+fPg1nZ+cC7atWrcK8efOkz2/duoXIyEh8//33UltKSgosLCwwffp0qe2HH35ATk4OPv/8c6ntzp07aNy48RuPXBMRERERlReV3dAYFRWFhg0b4unTp7CyslI6Zmlpibi4OGhpacHIyAgZGRnw9fXF5MmTpT6HDx/GwIEDYWpqiqSkJKm9V69eCA4ORseOHXH79m2YmZkpbUhDRERERKRp+Tc0qmzOdXZ2NpYtW1YgWANAbGwsbty4gbNnz2L06NEwMzMr0MfFxQW7d+9G7969ldpPnz6NJ0+e4MCBAxgzZkyBDWuIiIiIiN4WKl+Kj4iIiIioqim3pfiIiIiIiKoqhmsiIiIiIhVhuCYiIiIiUhGGayIiIiIiFWG4JiIiIiJSEYZrIiIiIiIVYbgmIiIiIlIRhmsiIiIiIhVhuCYiIiIiUhGGayIiIiIiFWG41qC0tDTk5uZqugwiIiIiUhGGaw3y8fHBlClTGLCJiIiIKgm5pguoinJzc7FlyxasXbsW9+/fhxACv/76K7S1tTVdWqUmhMD169cREhICHR0dtGrVCp06dYJMJtN0aZXS8+fPceHCBSQmJqJBgwbo3LkzH+NERFTpceRazbKzszFkyBB4enqiZ8+e8PT0xJ9//olJkyZxBLsc3blzBy4uLmjfvj3ef/99TJkyBfb29mjXrh3OnTun6fIqlezsbCxfvhz16tWDs7Mz3N3d0a1bNzRq1Ai//PKLpsurUjIyMvDjjz+iX79+aN++PUaMGIFdu3YhOztb06VVSidPnoSbmxuaNm2Kzp0749NPP8W9e/c0XValFhoaikmTJqFdu3bo1q0bPvroI4SHh2u6rColNzcXGzduxLBhw2Bvbw83Nzc+z4SHh4vw8HBB6uHt7S1sbGzEgwcPpLaXL18KX19fkZmZqcHKKq/AwEBhYmIirK2txZAhQ8TIkSOFhYWFACAACLlcLrZu3arpMiuF5ORk0a9fPyGXy0Xr1q2Fi4uLqFWrlvSzBiA++OADoVAoNF1qpRcaGioaN24s6tevL3r06CGMjY2l30GXLl1EdHS0pkusNNLT04WHh4cwMzMTvXr1Eu3atRMymUwAEHp6emLjxo2aLrHSycnJER9//LEwNjYWDg4Ook2bNkrP6atXr+bzjBrcvXtXtGvXTtSsWVN06dJFGBkZSb+HTp06iaioKE2XqFb5mZrhWs0aNWokvv7660KPKRQK8fLlSz4hqNCuXbuEvr6+WLBggdIfLwqFQqxcuVLo6OgIAEJfX1/8/fffGqy04ouJiRFt2rQRdnZ24vbt21K7QqEQhw8fFpaWltKTLsNG+Tpy5IhwdHQUN2/elNpycnLEgQMHpN9DkyZNREpKigarrBwSExPFwIEDxYYNG5Seu+Pj44WHh4f0mP/tt980WGXlkpaWJsaMGSOWLVsmcnJypPa4uDgxZcoU6We+fv16DVZZ+YWEhIju3buL4OBg6bGfnZ0tDh48KKytrQUA0aBBA5GUlKThStWH4VpDjI2NxYgRI0RWVpZIT08XFy9eFL6+vmL8+PGibt26AoCoXr26mDdvnkhPT9d0uRWav7+/0NbWFj/88EORfYKDg6WA3bNnTzVWV7nExMSIFi1aCFtb2yIft0+fPhVNmzYVAISBgYF4+vSpmqusGgICAoSzs7PIysoq9HhMTIzo0KGDACDee+89NVdXuSQmJgoHBwdx6dKlQo8rFAqxatUqAUCYmJhUuVG88pCamir69+8vjhw5UmSfTZs2Sc8zr/6hT6pz9uxZ0a1btyL/QI+Pjxddu3YVAMTYsWPVXJ3mMFxryIABAwQAYWpqKuRyudLb5f/+mDNnjqbLrbDygzUAcfTo0WL7/vjjjwKA0NLSEsnJyWqqsPKIiYkRLVu2FADERx99VGzfK1euCF1dXQFAbNu2TU0VVh379u0Turq6Jb4Lc+fOHVG9enWhra0tXrx4oabqKpfExETRoUMHMWPGjBL7Tpo0SQAQ33zzjRoqq7xSU1OFo6OjGDVqVIl9Z8+eLQCITz75RA2VVS1nz54V1atXF8HBwcX2e/TokahZs6YAIB49eqSm6jSL4VpNZs6cqTS/+u7du6JRo0YFgnSLFi2Ep6en+OWXX8TSpUuFkZGR0NfXF7m5uRqsvmLy9/cXVlZW0rzqatWqFRuwc3NzhZmZmQAgjh07psZKK77Y2FjRqlUr6S1AAMLb27vYc/Lfti1NKKHS27dvn7CyshIAhL29fYlvxS5ZskQAKHYEkAqXmJgonJ2dhZaWltDS0ipxyseLFy+Erq6ucHJyUlOFlU9KSooYPny40NbWFjKZTPz3v/8ttn9GRoYwMzMTnTp1UlOFVcPZs2el5/vWrVuLuLi4Yvv7+voKAGL79u1qqlCz8jM1VwspR/Hx8Th16hQcHBxw5coVAECjRo0QFhaGnTt3wsfHB4cPH8azZ89w69YtrFmzBpMnT8Znn32GOXPmID09HS9fvtTwd1GxZGRkwMLCArdv38b169dhZ2eHjIwMDBs2DMeOHSv0HC0tLfTo0QMAuFTca0pLS8PPP/+M+/fv47333gMAeHt746uvviryHEdHR3WVV2Xk5OTAzMwMkZGR8PT0REhICJycnJCcnFzkOU5OTgCAmJgYdZVZaURFRSEgIACnTp2Cubk53N3dsXPnziL7GxkZwcHBAfHx8WqssnIJDw/H5s2bce7cOdSpUwfvvvtusasP6enpoUePHoiNjVVjlZWbEALp6em4f/8+Pv7lKUYPAAAgAElEQVT4Y4SFhcHR0bHYx7WzszMA4PHjx+oq8+3AkWvVy8zMFJ9++qmoVq2aqFOnjjA2NhaGhobi0KFDpb7G3LlzRbNmzcqxysrH399fuLm5KbUlJSUJe3v7EkewBw4cKHR1davUjRdlERsbW2CunUKhEF5eXtII9ldffVXouVu2bBEAxIYNG9RRaqX36k2LQuT9HubOnSsACDs7uyIf0/Hx8QJAiW/tUvHCwsJErVq1hLa2drEj2O7u7mL06NFqrKzyunv3rqhbt66QyWRi06ZNRfbz8vIS/fr1U2NlVcuiRYsEANGmTZsiR7CzsrKEtra2+OOPP9RcnWZwWkg5ycnJEQMGDBAdO3YUYWFhQoi8F7tTp06J77//vkD/R48eid27dyvdZX7gwAFRrVo1sWfPHrXVXdHlz7E+c+ZMgWMlBezMzExhZWUlJk2apKZqK7b8mxft7e1FfHy80rHSBOxZs2aJGjVqiGfPnqmr5Epr7969hQa60gTsM2fOiIYNG3LqWSklJiaKL774otAbRV8N2Dt37iz0/Pbt24v9+/eXd5mVSkpKili8eLHIyMgocOzOnTtSwP7ll18KPb9Pnz5i8+bN5Vxl5XfmzBlx/PjxQo+VFLDDwsKEubm5SEtLK+8y3woM1+Vk6dKlwsbGptQ3xj169Eg0adJEODg4iFmzZon+/fsLLS0tsXz58nKutPIIDw+Xbl4cPny40tJM+YoL2PPnzxcWFhZcvaIU8oN1q1atxIABA0SzZs3E8+fPlfr8O2AvWrRIOhYWFiZ0dXU5aq0C+/btEzo6OmLZsmWFHn81YHfq1KnAHzPu7u4Me6WUmJgounfvLkaOHCkmTpwoXr58WaDPzZs3pYDt7++vdOzUqVNi0KBBXGb1NaSmpgonJycxaNAg4eHhUeB5Roi8gF2nTh0hk8nEr7/+qnTs6tWrokuXLoW+HlDpnTlzRjRv3lz06dOnyHnTrwbsfw+4zJ49u0o93zNcl4PMzExRq1atYpd+K0x+wAYg+vXrJ65fv15OFVZO2dnZSmsoT5gwodQBe9myZcLQ0FCcO3dOA5VXLPnB2tXVVRqFuHv3bqF9CwvYN27cEI0aNRIzZ85kyFCBpUuXShtm7N27t9A+RQXszZs3i4ULF6qz3AorMTFRDBo0SFy7dk0IkbfpV2HhWoi8gG1paakUsB8+fCicnJxEYmKi2mqu6FJTU4Wrq6v0TmRKSopISEgotG9hATsxMVG4uLgoLSZAry8oKEiMGDFCeufrzp07RfbND9ht27aVAvb+/fvF9OnTq9TzPcN1Ofjrr78EABEQEFCq/q++XZUfsPm7eDNz5sxRWn2luIBtZ2cn9StpJRHKkx+sR44cqfS2+P/93/+JNWvWFHrOvwO2rq6umDJlCqchqEh0dLSoU6eOMDMzEzo6OqUK2B07dhQffvgh/8Appfxg/e+1kq9evVrkOa8G7IULFwp7e3uub/0a8oN1SEiIUvuNGzeKPCciIkIK2N7e3sLe3l6alklvJigoSIwcOVJp34LHjx8Xu3TnqwH7yy+/FO7u7iI7O1sd5b41GK7Lwe+//y4AiCVLlpSqf+PGjZVe4JKTk/mC94auX78uLe+WH+bGjx9faMB++vSpMDc3Z7AupfxgbWNjo7TLpRB5IxkAigzYubm50truDNaq5+zsLPbt21eqgD1u3DgBQHh5efF5phQSExOFo6NjoZuQeHt7F/vcceHCBSGXy0XDhg0ZrF9DamqqGDRoUIFgLYQQK1asKPLxLYQQ165dE9WqVRMWFhYM1mUUFBQkhg8fXmBDsPT0dDFu3LhiA3b+a/Do0aOrXLAWgkvxlQsLCwsAwMaNG5GZmVmqc5KSkqR/m5iYQCaTlUttlV2bNm3QoUMHGBkZYeXKlQCArVu3YtKkScjNzVXqq1AooFAoEBAQIC1HRoWLjY1Fnz598PfffyMqKgqzZ8+GQqGQju/ZswcA4OXlBR8fHwDAsWPHcPHiRQCATCaDnp4epkyZgo0bN0JLi085qjRx4kTcuHEDgYGBMDIygpubGwICAgr0k8lkmDZtGry8vLBq1So+z5Tg2bNn6NevHwIDAwtdwjMrK6vA8p7Z2dnSv+3s7ODi4oKTJ0+iQYMGaqm5oktLS8OQIUNw8ODBQn/mQogCj++cnBzp323btsWwYcNw8uRJtGrVSi01V0Znz56Fi4sLrly5UmCZTrlcjtDQULi4uEjLBAshlF4TPD09MXr0aGzbtg1yuVyttb9VOHKtOklJSUJPT08AEPPmzSu2b0ZGhqhevXqRWxTT6/v5559F7dq1RXZ2trTlMADh7u6uNIJ9/PhxjliX0uTJk8XatWuFp6en9PN8//33RW5urtixY4cwMDAQv/76q4iMjBRz584VOTk5wtfXVwwZMkQIkTf6N3fuXI5Yl5PU1FRhZ2cnFAqFuHr1qjA3Ny9yBHvv3r0csS6F7OxssWTJErFlyxZpU56VK1dKx3fv3i3Gjh0rHj9+LLZt2yaN7r164+61a9c4Yv0aFAqF+O6778SWLVtEvXr1CuxmeerUKTF06FAREREhduzYIc0BXrx4sfSYvnv3Lkesy+jGjRvi22+/FR988IEAIBo0aCAiIyOFEHnvQnp6eorvv/9eXL9+XVoVJzIyUmmFnICAgCo5Yp2P00LKydSpU6UQUtwdsitWrBA9e/ZUY2UV3549e8Tq1asL3I2cLy4uTsjlcnH48GEhhBCrV6+WfhcuLi7i8OHDYvDgwQWmNlDRXg1j+fPpAIi+ffsKAwMDcfDgwQLnXLhwQQAQV65cUWeplVZJgXjatGnir7/+EkIIpYC9a9cuIYQQz549q9IvdmXx8OFDaUfdlStXit27d4sZM2YU+seil5eXOH/+vAaqrFzyd33F/6ZYnj59Wnh4eBT6vP3FF1+81v4RVLxXn2vWrVsnBex79+6JmTNnFlgFR4i80N2tWzcOoPwPw7WKBQYGiqSkJPHkyRNRu3ZtKYR8/vnnIjU1VeqnUCjExo0bhZ6eHrfafg3561gDEDo6OmLYsGFi9+7dBdY/HT58uBg7dqz0+asj2JxjXXZff/219PMcPHhwoU+oO3fuFACKXCKOSm/fvn2iXr164j//+Y8IDQ0tNGgHBQUpbSV/7do1YW5uLi1N+fXXX3PEugxeDdg9e/YsMkR4eXmJCRMmqLm6yunVgN2+ffsiB0S8vb2Fi4uLmqurOvIDtr6+vvjpp58K7aNQKIS5uTnzzP8wXKtQRESEtKlGUlKSuHjxorC2tpZCiKWlpZgyZYqYNWuWaNeunQBQ6IYyVDh/f39hYWEhjIyMlFYEASBq1KghZsyYIc6dOycUCoX4448/RLVq1ZQ2zRg6dCiDdRlkZGQohbPFixdLP/9/j+I9ePBAerxzJKNsAgIChKGhodLjvVWrVuLbb78Vjx49kvopFArRqVMnpZuPjh07xpsXVejfI9j/Fh4eLmxtbbn0mwrFxsaKli1bFpgiki8mJkZpszYqH6+OYOdPEXnVhg0bxKhRozjF9X8YrlUkKChImJqaijFjxghHR0fRvXt3oVAoRFxcnBg7dqzQ1dVVenFs0KBBoW+tUNEOHToknj59KiIjI0WLFi2EsbGxmDRpkqhZs6bSz7Zx48Zi/vz5QldXV6xbt04IkfcE/c477zBYl8GsWbPE3LlzSwzYDx48EO+88w6DtQpkZmaKo0ePihcvXoixY8eKcePGiTlz5kjructkMtG/f3/h5+cnXr58Kb766iuleY/R0dFi1qxZDNYqVFTAfvz4sXB2dmawLgcxMTFSwF68eLHUnpSUJAYNGsRgrSZFBezDhw8LDw8PButXMFyrSKdOnYSfn5/0eVxcnEhOThaPHz8WQgjx/PlzERAQILZs2SLOnTvHB2EZPX36VDRv3lzY29uLuLg4ERAQIFxdXYWOjo5S0O7atasQIm/DB24Q82YyMjLE5MmThZaWlgBQIGB/88030s97+PDhon79+gzW5SA3N1dMmTJFLFmyRGRnZ4tDhw6JMWPGSDdPGxoaCkdHRzFw4EDpnKKmkFDZvBqwv/32WxEZGSkGDhwoHj58qOnSKq1XA/bChQtFbGysGDx4MIO1muUH7Pr164u///5bHDhwQEycOJGZ5l8YrlWkdu3awsvLS+zcuVPMnDlTutMZgJg2bRpf4MrBqwE7f/pHQkKCWL16tbQDIwARERGh4Uorts8++0w4OTmJR48eiYcPH4olS5YUmOPu7e0t/bwZrMvPqwE7X1JSkli3bp3o2rWrACC0tbXF06dPNVhl1fDw4UPpeb5Ro0YM1moQExMj7WJsbW3NYK0hPj4+0n1PY8aM4Y3ShcjP1LLw8HABAE2bNn39dfwIs2fPxqpVq5Ta8tfyVSgUOHHiBBwdHTVRWqVy6dIlpKamolevXgCAmJgY9OnTB8bGxjh69ChMTU2lvn///Tf8/PwwYsQI2Nvba6rkCq9t27b4+OOPMWnSJNy7dw979+7FtWvX8OzZM0yfPh1Dhw5Fbm4uatasiREjRnAd63KmUCjw7rvvokmTJvj888+Vjt29exd+fn7o0qULXFxcNFRh1XH48GHMmjULJ0+eRL169TRdTpVw/vx5DB06lOtYa5ibmxu0tLS4jnURIiIiAAAM12WUmZmJb775Brdv30br1q3RsWNHdO/eHSkpKWjVqhV++uknTJ48WdNlVmgPHjyAh4cHrly5gsOHD6Nnz54AgKdPn6JPnz4wMTGRArZCoWDAUxFXV1fs27cPZmZmiI+PVzqmra2NS5cu4cyZM7h69SqDtZoUF7Dp9Vy+fBlNmjSBsbGxUntUVBSys7PRpEmTIs9dvXo1hg0bxmD9mm7fvg1LS0vUqFFDqT0hIQHx8fFo0aJFkedu2LABXbt2ZbBWgStXrqBDhw4F2i9dugRbW9sin8tTU1Px3XffYcGCBQzWRcgP13w1LCM9PT0sWrQI/v7+cHZ2xoABA2BiYoKMjAzk5uaie/fumi6xQrt79y7s7OzQrFkzeHl5YfLkyVLQq127Nk6ePInnz5+jW7du2Lp1K7p3747nz59ruOrK4fvvv4eNjQ3i4+NhYWEBJycnLFmyBMuXL4dcLseRI0cwadIkBms10tLSwsaNG3Hnzh14e3tDoVAgPj4eKSkpmi6twsnIyICbmxtevHghtUVFRWH8+PElnvvuu+8yWL+BtLQ0jBkzRmln4oSEBIwePbrEXY3d3d0ZrFVACIH169dj/fr1Su179uzBN998o7TrZWEYrEuJc65VIzc3VwwfPlw0bNhQ9O/fX5iZmQlfX19Nl1Xhvffee+LTTz+VPk9LSxPh4eHi5MmTIiUlRQghxL1794SRkRGX2ysHOTk5Ii4uTqlNoVCIZs2aKd3IS+qVm5srnJ2dRceOHcWCBQt4b8cbCgoKEs7OzuLFixciMjJSdOvWjfdqlLPLly+L/v37i2fPnon4+HjRp08fERoaqumyqpTc3Fwxffp0aVWt3bt3ixEjRhS4p4ZeH+dcl4OsrCyMGTMGZ8+exf79+9G5c2dNl1ThjRkzBnfv3sXEiRNx+fJl7N+/H8nJyQCABg0a4MKFC8jJyUGrVq3g7+8PJycnDVdcOY0aNQqtWrVC+/btcejQIZw/fx4hISHQ19fXdGlV1uHDh3Hw4EGsWrUKMplM0+VUWMHBwVi0aBHS0tLwyy+/FDsdhFQjNDQUn332GXJycvDDDz8UOkWBypdCocAHH3wAIO/dg+3bt0NPT0/DVVV8+dNCOLavQrq6uti5cycuXrzIYK0i77//Pvr164fQ0FCpzcDAADVq1MCDBw+wYsUKdOvWjcG6nH377bfo06cPoqOjMWrUKAQFBTFYq4Cfnx9MTEwwbNgwpXYfHx/UqVOnQPur0tPTGaxVoG7dukhJSYGRkRGsrKw0XU6VULduXaSlpUEul6NBgwaaLqdK0tLSgpOTEz766CN88sknDNYqxpFreuv9+eefOHToEJo2bYr27dujY8eO0NbWhrOzM9555x2sW7dO0yVWCffu3cO3336LdevWMdCpSFZWFsaPHw8PDw8pSPv4+ODy5cvYsGED57KXs6ioKEycOBG//PILYmJisHjxYvj7+8PIyEjTpVVacXFxcHNzw4oVKwAAc+fOxc6dO2FmZqbhyqqWPXv2YNu2bdi2bRs++ugjtG/fHtOnT9d0WRUeVwuhCufo0aNo2bIl6tWrh6dPn6Jz585Yv349BgwYoOnSiN5YVlYWPDw8MH78eDx+/JjBWk1eDdaNGjUCkDdF5JtvvmHALievBmtbW1sAeVNE5s6dC39//wKriFD5yA/W+VNB8qeIdOzYEe+//76my6vQuFoIVTjx8fFo0qQJmjVrhsaNG2P69OkM1lTh6erqYuvWrVi8eDECAgIYrFUgLi6uxD5Xr15VCtYA0L17d8ybNw83b94sz/KqrNDQUKVgDQC2trb49ttvERISosHKqg4hBG7duqU0x1pLSwtr165FbGxsiau2UOlw5JoqlK1bt2LKlCn4888/pQ1liCo6Hx8fXLp0CS9fvsT48eOLnWtNJfP09ESPHj0wbtw4TZdCRFUIb2ikCmn8+PFwcHBA48aNNV0KkUrkz7HeuHEjcnJy4OHhAQAM2G/g4cOH+M9//oPTp09j+/btEELA3d1d02VVejExMTh69CgiIyNhZWWFQYMGcR1wDQgNDUVwcDCEEGjZsiUcHR2hra2t6bKqJIZrqnAYrKkiuHHjBtq0aVNsn+3btyvNsdbV1cW2bdswfvx4GBsbo0+fPmqqtuI7f/48vL298f3336N169ZIT0+Hr68vwsLC0Lp1a02XVykpFAr88MMP+Oqrr5Camiq1a2lpYerUqVi5ciVXFVKD6OhozJw5E/v27VNqb9iwITZu3AhHR0cNVVZ1cVoIEVE5aNu2Ldzc3LBw4cIi+yQlJcHExKTAHOusrCxkZmbyprrXYGdnh2PHjvGmODXJyMjA1KlTYWZmBg8PDzRr1gy3b9/GgQMH8P333yM7OxsODg44deoUl3krR9euXcPUqVMxY8YMODg4wMjICGfOnMGaNWsQEhICLS0tbN68uVQ7j1LZcbUQIqJycPHiRcydOxcnT54EACxatKjYgE1lFxMTg549e0ovbK8SQiAiIgIvX75Eo0aNGL5VIDU1FaNGjcKHH35Y6E3lly9fhpubGyIjI/HRRx/hxx9/1ECVld/Zs2exePFi+Pn5wcLCQulYdnY25s+fj++++w4GBgYIDQ1Fs2bNNFRp1cHVQoiIVOzgwYPo1q0bTE1NsX79eixfvhxr1qzB8uXLNV1apWZsbIx79+7B19cXT548wfHjx/Hdd99h7NixsLa2RvPmzWFnZ4cGDRrAz89P0+VWaKmpqRgyZAicnZ2LXK2pY8eOOHDgAPT19bFixQrcvXtXzVVWfsHBwZgwYQL++9//FgjWAKCjo4Ply5dj+vTpSEtLw9y5czVQZdXFkWsiIhVISUlBw4YNMXfuXHzyySdS+8uXLxEdHY2WLVtqsLrKz8vLCz4+PgXaZTIZOnToAGtra1y6dAmJiYkICwvja94byA/WJ0+exJAhQ7Br165ip3ysXLkSH374ITZu3Ihp06apsdLKLSgoCC4uLsjJycHevXuLXZI2PT0d7dq1Q1xcHBITE3mDYznjyDURkQqdP38eCQkJcHNzU2o3MjJCixYtcOvWLZw/f75UazBT8RQKBWbPnq20Ju/PP/+MlStXYsCAAejbty8+++wz7N+/H8+ePcPly5exf/9+3LlzBw0bNsSZM2c0WH3FtXPnTsyfPx+9e/fG/v374ebmVuy6yKNHjwaQd3MvqcaDBw9w7do1/PDDD5DL5Rg+fDiOHDlSZH99fX2MGDECz58/R3R0tBorrdq4WggRkQoIIQAA69atw8yZMxEWFobLly8jJCQEwcHBSEhIAJC3aYy3tzc+//xzTZZbYWVlZWH79u3YsGEDrl27hj/++ANmZmaQy+WYNWsWZs2aVeS51atXR58+fWBoaKjGiiu+zMxM6OrqYurUqQCAXr16wcPDA/7+/nBzcytyBNvKygp169ZFzZo11V1ypZSTk4MGDRpg5syZAPI24Onfvz+GDx9e7Ai2vb09AMDU1FRttVZ1HLkmInpD+YEayFutwsLCAkuXLkWdOnXg7OyMefPmYe/evVKwBvLC4bx58xAQEKCJkiu0s2fPYuzYsdDV1cXp06cxY8YMfP3113jx4kWpzs/KykJYWBj69u1bzpVWHqmpqfjxxx+hUCikNrlcjm3btmHMmDHFjmBnZWUhJiYGgwYNUmfJlVJQUBBOnDih1GZnZ4fjx4+jWrVqxY5gP378GF27dmW4ViOGayKiN3Dz5k04OzsjOTkZQN6okL+/v9LmGTo6OrC3t8enn36KgwcPIiwsDN999x0AYPfu3Rqpu6K6evUqfHx88Ntvv8Hd3R329vYYN24cVqxYAWNj4wL9r1y5glOnTkmfP378GOPGjcMnn3yCWrVqqbHyiit/jnVWVlaBubpyuRxbt27F2LFjiwzYgYGBGDx4MDp06KDOsiud4OBgDB06FHZ2dgWOlSZg//nnn/D29lZDpSQJDw8X4eHhgoiISic9PV2sXr1aABCtWrUSDx48kI6lpqaKq1evipCQEJGWllbo+e3btxeurq7qKrfCUygUomvXriIpKem1zvHy8hK2traic+fOolevXiI4OLgcq6x8/vvf/woAQk9PT1y4cKHQPtnZ2WLs2LECgBgyZIjIyMgQQgiRnJwsevToIZ48eaLOkiulDh06SD/f7OzsQvuEhIQIExMToaenJw4fPiy1b9++XcyePVtdpVZ5+ZmaI9dERK/h2LFjsLGxwerVqzF8+HDIZDI4ODjgypUrAAADAwO0a9cOdnZ2he5Ol5KSgocPH6J3795qrrzi+uuvv2BkZPRab2vLZDKsWrUKXbp0Qfv27XHixAl069atHKusfIYNG4bq1asDAJycnBASElKgj1wux5YtWzBu3DhpBPv69etwdXWFr68vateure6yK52RI0fC0NAQ+/fvh4eHB3Jycgr0+fcI9uHDh7FhwwYcOnSI64xrAG9oJCIqpcDAQIwYMQLr1q1T2vHs0qVLMDAwKNDfx8cHtWrVwsiRIyGTyfDgwQNMmzYN77zzDqZPn67O0iu00NDQUi8h9uLFCzx8+BCtW7eWAnZYWBiXIHsD5ubmGDBgABwcHDB//nw4OTnh2LFj0g1y+eRyOfz8/PDy5Uvs378fFy5cQGBgIJefVJEJEyYgMDAQhoaG8Pf3BwBs27YNcrlyhLOzs8PRo0fRs2dPDB48GCNGjMCOHTv42NcAjlwTEZVCeno63N3dsWjRogJbCXfq1KnQ3c8cHBzw/vvvo1WrVujcuTNatmyJnJwcHDhwALq6uuoqvcJ7+fIlzp49i4yMjBL76uvr49y5c9LnMpkMbdq0Kc/yKrXJkyfj6dOnCAgIQEZGBvr371/kCHb+hiaBgYFo1aqVBqqtnOrXrw9tbW38/PPPGDJkCPz9/Yscwe7cuTP+85//SMFaR0dHAxUTwzURUSn4+/sjPj4e77//fqnPsbW1xZ9//omYmBhERUVh06ZNOHnyJCwtLcux0sqnWbNmeP78OVauXFli39zcXKSmpqqhqqrB2dkZJ06cQN++fREQEIDMzEz0798fFy5cKNA3ODgYJ0+eZLAuBxMmTIC/vz927dpVbMDOyMiAmZkZg7WGMVwTEZVCcHAwdHV1pTmoxbl48SJ27doF4J+A3blzZ4wZMwYymay8S610+vXrB2NjY3h7e+PixYvF9j1//jzq16+vpsoqP7lcjr59++Lo0aNwdnbG3r17kZmZCScnJ5w/f16p7/Dhwxmsy4mrqyt2794NXV3dYgO2np4e5syZw2CtYQzXRESlEB8fj4yMDISFhZXYNyUlBQcOHJA+t7W15brWZWBsbIw5c+YgPT0dQ4YMKXLHv/T0dCxfvpzrKr+G1NRUfPzxx9i7dy+ysrIK7TNp0iRs3rwZADBgwAApYDs6OuKnn37Cd999h7i4OGhpMVK8qaCgICxevBhRUVGFHjc0NESrVq1w8eJF6OnpKQXsvn37Yv/+/di8eTNkMlmBudikfvyfQERUCvmjod9++22JffX09PD06VOlNo5Yl838+fMxYMAAxMbGomvXrli7di2ys7Ol4xEREejXrx9mz56NatWqabDSiiN/HesVK1ZgxIgRsLa2xsyZM3HhwgWlDZLatGmDx48fIykpCUBewN6yZQvS09OxbNkyDB48mGuHl0FwcDBcXFywcOFCNGzYEL1798amTZsKbI40efJk6Y+c/IDdpUsXnDlzBlu2bIG7u7smyqdCMFwTEZVC/tJ527Ztw++//15s35s3b3LLZxXT1tbGvn378OmnnyIlJQWenp6wtLSEo6MjbG1tYW9vj//7v/8rcgtoKmjTpk346KOP0KlTJ3Tr1g02NjZYs2YNHBwc0Lx5c6WR1HHjxmHnzp3SuW5ubujduzcCAwPRokULDX0HFd+9e/dw/vx5LFiwAMbGxhg2bBguX76MadOmwdLSEu7u7jhy5AhycnLQo0cPXLhwQdqsR09PD97e3hg9ejS2bdvGqSBvEVl4eLgAgKZNm2q6FiKit1Zubi6aN2+Ou3fvolq1ajhw4ECh22gnJSWhY8eOWL58OUaNGqWBSiu/iIgI7Nq1CxcvXoSWlhY6d+6MadOm8Q+aN5SWlgZXV1dMmjQJbdu2hZ+fH7Zu3YonT54AAHr16oWBAwciICAAZ8+eBZC3Y6aOjg7nWKvQsWPH8PXXX2PHjh04efIkNm/ejMDAQAghYGVlBQ8PD0RHR8PNzU16bsnfJZNTQd4OERERABiuiYhKLSQkBD169EBWVhbkcjkWLVqE//znP9JmMTdv3oSHhweMje0JLbQAAAb2SURBVI0RGBjIFzyqMNLT0+Hq6oqJEydi3LhxyM3NxYkTJ7B582b88ccfSE9PBwDcvn270GUnSTXyA/a+fftQo0YNREdHY8uWLdi8ebMU3AYPHoz9+/druFIqDMM1EdEbOHjwICZMmCDNP61evTrat2+P58+f48aNG2jbti2OHj0KKysrDVdK9HrS09MxcuRIjB8/Xmn+7osXL/D777/Dz88PPXv2xKJFizRYZeX374ANAEIIXLhwAZs3b8bu3btx48YNLun5FmK4JiJ6Qw8ePMCXX36JgIAAJCcnA8hb0cLT0xMLFiyAoaGhhiskejP5I9jjx4+Hh4dHgeNZWVncAEkNCgvY+TIyMqCtrc051m+h/HDN9yyJiF5TgwYN8OuvvyIrKwv379+HTCZD48aNuc0wVXj6+vrYs2cPRo4cCSGEtBupEAIymYzBWk2cnJwAAEOHDpUCdv7vgKvhvP0YromI3pCuri6aN2+u6TKIVEpfXx+7d++Gs7MzLl26BDMzM0yYMAENGzbUdGlVipOTExQKhbQSTnp6OmbPnq3psqgUOC2EiIiICrh79y66du3KLc017IMPPkBiYiKX26sA8qeFcJ1rIiIiKiA0NJTBWkUCAgKUtinPd/ToUTx79qzI89LT02FjY4Pt27czWFcgDNdERERUgKurK4O1imRmZmLy5MlKAXvPnj1Yu3YtDAwMijxPT08Pc+bM4bKeFQzDNRERERXAQKc6o0ePxpAhQzBp0iTk5ORgz5498PPzw2+//VbsDYpaWlr8PVRA/I0RERERlbMxY8YAyLtR0djYuMRgTRUXR66JiIiIVODMmTMQQhR5XEdHB1lZWTA0NOSIdCXGcE1ERERURsnJyfj666/x8ccfFxqw9+zZg23btuHEiRMYNmxYgTnYVHkwXBMRERG9ISEEduzYgUGDBsHU1BQ3b97Ep59+qhSw84P19u3boaenV2AONlUufE+CiIiI6A2tXr0ajx49QmBgIPT09AAAISEhuHfvHho3bgwgb9v4/GCdb8yYMdDX18fz589hbm6ukdqpfHATGSIiIqI3kJ2dDVtbW1y/fh0ymUzT5ZCG5W8iw5FrIiIiojcQFRWFjIyMAu0KhQJhYWE4ffo0MjIyYG9vj169emmgQtIEhmsiIiKiN1CnTh1ER0dj8uTJcHJywvXr13HlyhVcunQJSUlJSn1nzpyJVatWaahSUidOCyEiIiIqBSEE0tLSYGhoKLWtWrUKH374odINjFpaWrC1tUWvXr1Qu3ZtHD9+HEePHsXFixfRqVMnTZROapA/LYThmoiIiKgUcnNz0atXL2zfvh3169eX2i9duoTAwEAoFArY29vD3t4e1atXl44LIdC1a1e8++67mDZtmiZKJzXgnGsiIiKiUrp8+TJ++OEHXLlyBQ4ODjh06BDat28PAOjUqVOxI9IymQwNGzbEO++8o65ySYO4zjURERFRMRYvXozdu3fjxx9/RGpqKkJDQ3H27Fmkp6eX6vwHDx4gNjYW3bp1K+dK6W3AkWsiIiKiImzatAnVq1fHggULpDYrKyt4eXkV2v/8+fM4ceIEZs6cCW1tbezbtw+rV6+Gn58fdHV11VU2aRDDNREREVEh0tLS4OPjg5CQkFKf4+DggPDwcJiZmUEul+OTTz7BkSNHYGxsXI6V0tuE4ZqIiIioEAcOHECTJk2gpfV6s2gnTZoEAEhISMCcOXPKozR6izFcExERERUiIiKiwHrVRXn8+DEePHiArl27AsgL2KmpqeVZHr2leEMjERERUSG0tbVx5swZJCYmltjXzMwM169fV2p7dT1sqjoYromIiIgK0bZtW6Snp+PLL78ssW9ycjJ0dHTUUBW97RiuiYiIiArRv39/WFtbY82aNdi+fXuxfQMCAtChQwc1VUZvM4br/2/vDm2UCQIwDH+XEJrAowmKAigBgQCBpgQqwG8BCDSeDhAkOJLdCjA0QCB74s+5+5MTk1sueR41YsQnXzHJAAB8o9/vZ7vdJklWq1X2+/23967Xa47HY8bj8W/O402JawCA/1gsFtlsNnk8Hlkul5nP5zmfz3k+n7nf76mqKrPZLFVVdT2VN/FR13WbJMPhsOstAABv6XA4ZL1e53a7Jfn3pXnbtplOp9ntdhkMBh0vpGtN0yQR1wAAP/J6vXI6nXK5XNLr9TKZTDIajbqexZsQ1wAAUMhXXHtzDQAAhYhrAAAoRFwDAEAh4hoAAAoR1wAAUIi4BgCAQsQ1AAAUIq4BAKAQcQ0AAIWIawAAKERcAwBAIeIaAAAKEdcAAFCIuAYAgELENQAAFCKuAQCgEHENAACFiGsAAChEXAMAQCG9r0PTNF3uAACAP+8jSeq6brseAgAAf90nCTwYpGQOoYcAAAAASUVORK5CYII=;" vertex="1" parent="1">
          <mxGeometry y="500" width="727" height="430" as="geometry" />
        </mxCell>
        <mxCell id="rDMtgLqNduICIHuUhlhb-4" value="" style="shape=image;verticalLabelPosition=bottom;labelBackgroundColor=default;verticalAlign=top;aspect=fixed;imageAspect=0;image=data:image/png,iVBORw0KGgoAAAANSUhEUgAAAtcAAAGuCAYAAABbSyrJAAAACXBIWXMAAAsTAAALEwEAmpwYAAAgAElEQVR4nOzdeXiU1d3/8fdM9gWyQDbCHkiQNRRBQFEgFNlUEBC1SK1VsWhRqYKlagXaij4+UmvhCaI/HhBKIUAfDVKKIKgssoisYQ97QsKWPZlkMvP7Y8gdhgQIZCDb53Vdua7JmXOf+9yC4Zsz3/M9JoCDBw/aERERERGRWxYTE2MyKbAWEREREXEN95IX0dHRVTkPEREREZEa69ChQwCYq3geIiIiIiK1hoJrEREREREXUXAtIiIiIuIiCq5FRERERFxEwbWIiIiIiIsouBYRERERcREF1yIiIiIiLqLgWkRERETERRRci4iIiIi4iIJrEREREREXUXAtIiIiIuIiCq5FRERERFxEwbWIiIiIiIsouBYRERERcREF1yIiIiIiLqLgWkRERETERRRci4iIiIi4iIJrEREREREXUXAtIiIiIuIiCq5FRGqYCxcu8K9//euO33fLli3s2bPnjt9XRKQmUXAtInVWYWEhffr0ITIykkaNGlX4q0WLFqxbt+66Y6enp9OrVy88PT2ZM2eOy+b897//nebNm7Nx40ane3Xo0AEvLy/c3NwICAhg1apVFRrv3nvvxd3dne3bt9+wr9lspnfv3owZM4bi4uJbfgYRkdpMwbWI1Fmenp6sXbuWv//972RmZpKamkpqaippaWn4+/sbX76+vlgsFs6dO0dqairHjx/nu+++K3fM06dP061bN8LCwtiwYQNFRUUUFBRUeq6FhYV06tSJ8ePH8+abb/LBBx8AYLPZaNeuHXv37uWvf/0r//jHP8jKymLQoEHXnGOJzz//nM2bNzNmzBjuvvvuG86ha9eubN26leXLlxMREcGRI0cq/VwiIrWNgmsRqdPMZjPDhg3jD3/4g9Hm7+/PoUOHjK8jR45w4cIF8vPz6devHwCZmZllxsrMzOTRRx/Fw8MDNzc3l87zoYceYs+ePcydO5dJkyYZ7aNGjeL8+fN4eXkxduxYRo0aRbNmzbDb7Tz11FPXHC8jI4NnnnmGBg0aEB8fX+F5REVFcfz4cS5cuEC7du1ISUmp1HOJiNQ2Cq5FRIDg4OAb9nF3d2fZsmX4+fmRlZVV5v2AgAC2bt3Kxo0bGTx4sMvm9pe//IXVq1fTvXt3fvnLXzq9V5Ke0rhxY8xmx4/0rl27AnDy5EmSk5PLHbNXr17YbDbWrFmDp6fnTc2nYcOG/PGPf6SwsJBu3bpRWFh4s48kIlJrKbgWEYEKrzTXr1+fd999l+7du1+3X/PmzV0wK/jxxx958803AVi8eHGZ9y9dugRAYGCg0RYeHm68Pnz4cJlrZsyYwb59+5gwYQKdOnW6pXm9/fbb1KtXjzNnzjitpIuI1HUKrkVEbtJvf/tbnn322ev28fHxccm9XnnlFex2Ow0aNKBJkyZl3rfb7QB4eHgYbV5eXsbrq1eVU1NTee2112jcuDHTp0+v1Nz69u0LwMcff8zFixcrNZaISG2h4FpEpAJyc3OJjY0lJyenQv3d3d0rfc8zZ84YVUEefPDBcvsEBAQAzjngZ86cMV5HRUU59e/Zsycmk4m1a9dWOi/8hRdeAKC4uJh33nmnUmOJiNQWCq5FRCpg/fr1JCUlYbVa79g933//fWNl+lppKJ07dwYcVUpKlNSi9vf3p3Xr1kb722+/zYkTJ5g6dapT+60aMGAAJpMJcFQeERERqPzSiohILVNQUMCECRMAsFqtbNq0iZ07d97x2s7z5883Xrdt27bcPsuXLyc8PJzs7GwSExNp3bo1SUlJAMyePdtIFzl8+DB//vOfiY6O5ve//73L5uju7k5RUREZGRkcPnzYJUG7iEhNpuBaROQqhYWFzJgxo9z3Sipy3G7FxcVOFUmutfEwMDCQzZs3M2DAAEaOHElhYSEeHh7MmjWLJ5980ujXq1cvzGYzX3/9tbHaDI5fHtasWUOvXr3w8/O76Xn6+PhQVFQEOCqXKLgWkbpOwbWIyFXq16/vlMN84cIFBgwYwPbt27HZbHdkDmfOnDHuZTKZaNiw4TX7du7cmbS0NKxWK3a73WlzI8C4ceNIT09n1qxZTpsiu3fvztatW/Hw8KCoqIjmzZuzY8cOp8ojN1KvXj3jl4Djx4/fxBOKiNROyrkWEbmBBg0asHDhQmPz4J1w7Ngx43VFN0e6u7uXCax/+ukn4uPj6dKli7EBEWD48OFs2bKF6Oho8vPzeeKJJzh27Bj33HPPTaW/NGjQwHh98ODBCl8nIlJbKbgWEamAVq1a8eSTT+Lr63tH7nfhwgWXjNOnTx88PDxYuXKl0ZaWlsby5csBmDhxImaz2ThO/dChQyxYsKDC44eEhBivs7OzXTJnEZGaTMG1iEgFmM1mZs2addOnGd6q0NBQ4/WtVih5/PHHyc7OZsGCBU5B8JIlS4zXJYfdREREGLnYVwbiN1JyiA1AbGzsLc1TRKQ2UXAtIlINhYWFGa/tdvtNHzH+7bffsmTJEnr37s3IkSOd3vvmm2+M10FBQcbrkvSTTZs2Vfg+Z8+eNV7HxMTc1BxFRGojBdciIpSedFhdxmvWrJnTIS9Hjhyp8LVWq5VBgwbh7e1tpH9c6crj0UsqfQDGBsorT3i8kSsrmrRo0aLC14mI1FYKrkVEcJzAWMIV9ayvHM9isdz09Z6envzsZz8zvj906FCFrx0yZAgFBQX83//9X7mbMB955BHj9ZW53SXB9V133VXhe+Xn5wOOiiYdOnSo8HUiIrWVgmsRqfPsdjtffvml8X1eXh6pqamVGnP37t3G65ITE2/W888/b7zesmVLha754osvWL16NcOGDaN///7l9unfv79RVeTrr78GYNGiRcZq++uvv17hOZb8IvLAAw845XWLiNRVCq5FpM4qLCzk/vvvx9PTk/Xr1xvtdrudyMhIGjVqdNPHeo8aNYrAwEDWrVtntM2fP58GDRowadKkmxrr8ccfNzZQlpfecbW8vDwee+wx6tWr53S649XMZjPr16/HZDLxt7/9jWnTpvHrX/8agIEDB3L//fdXaH5Lly41Xv/lL3+p0DUiIrWd6eDBg3aA6Ojoqp6LiIhcZdq0abz99tuYzeYbpqu8+uqrfPbZZ6xevZru3bvfcOwNGzbwyiuvkJSUhK+vLxMnTmTixIkVnlu/fv1Yu3YtERERpKSkVPg6EZHaqCR9T8G1iEg1lp+fT3h4OFlZWcyYMYNXXnmlqqcEOFb9/fz8KC4uZtOmTRUK5kVEarOS4FppISIi1ZiPjw9btmzBbDbz+uuvk5eXV9VTAmDs2LEUFxfz17/+VYG1iMgVFFyLiFRzbdq0YdmyZdjtdnr06FHV0+Evf/kL8+bN45FHHmH8+PFVPR0RkWpFwbWISA0wdOhQDhw4wPnz57nrrrtu+dTGyho/fjxTpkzhN7/5DcuWLauSOYiIVGcKrkVEaohWrVpx8uRJevTowS9+8Ys7fv/PP/+cb7/9ln379jFz5kzMZv0TIiJyNW1oFBERERGpJG1oFBERERFxMQXXIiIiIiIuouBaRERERMRFFFyLiIiIiLiIgmsRERERERdRcC0iIiIi4iIKrkVEREREXETBtYiIiIiIiyi4FhERERFxEQXXIiIiIiIuouBaRERERMRFFFyLiIiIiLiIgmsRERERERdRcC0iIiIi15SXl8fx48ddOmZ6ejqFhYUuHbO6UHAtIiIiUkfMmzePkJCQcr+uFUCPGTOGJ598skLj//jjj4SGhhpjRkREcObMGeP9NWvW0KNHD8LDw/H392f69OmueKxqxb2qJyAiIiIit5/NZuODDz7g3nvvJSYmBk9PTwCOHj3Krl27aN68eZlr5syZw8qVK4mNja3QPd566y1GjRplfB8VFUVkZCQAycnJfP/998ybN4/09HQmT57M5MmTGTp0KG3atKn8A1YTCq5FRERE6oDTp08zf/58Onfu7NQ+efJkYmJiyvTfv38/q1atYsCAAZw9e/aG4y9dupSmTZvy3nvv4evrW+Z9f39/pkyZAkB0dDTx8fG0a9eOtLS0WhVcKy1EREREpA5o2rRpmcAaICEhgZEjRzq1WSwWJkyYQHx8PGbzjcNFi8XCxIkTmT17NoGBgYwYMYJz58459QkNDXX6fu/evTz//PM88MADt/A01ZdWrkVERETqqJ07d+Ll5UXbtm2d2t944w0mTZpESEhIhcf67LPP2LFjB1988QXLli1jw4YN/Pjjj0ZayJW2bt3K7373O7799ttKP0N1o5VrERERkToqISGBxx57zKktMTGRoKAgevfuXeFxvLy86NOnD7/73e9Yt24d48ePJy0tjddff71M3/nz5/P4449z+vRp7rnnHrZt21bZx6hWFFyLiIiI1FFLly51Cq5TUlJYsGABb7755i2P6ebmxkcffcTjjz9OYmIidrvd6f0xY8aQnJzMnDlzuHjxIjNmzLjle1VHVRZcnzhxgtzc3Ju+zmazkZycjM1muw2zEhEREakbdu/ejZeXl9NmwokTJ5KSksLIkSMZPnw4w4cPZ/PmzRw8eJDhw4ezbt26Co8/cuRIcnJyuHTpUrnvP/vsszz++OOsXbu20s9SnVQ6uLZarcTGxpZbL/HFF18s95odO3YQHR3Nxo0bK3yfo0ePMmrUKKZMmUJSUlKZ34JEREREpOLKSwlp2bIlAQEBWCwW48tms2Gz2bBYLBQXF1d4/G7duhEaGkpwcPA1+/Tu3Rs3N7dbfobqqNIbGhcvXkxBQQHDhg0jLCzMaJ87d265uTo5OTk888wzN3Uqz8cff8yCBQuYN29erSrVIiIiIlJVEhIS+PLLL53apk6dWqbfiBEjSElJYcWKFTc1fmJiIoMGDbpun7S0NHr27HlT41Z3lQ6ug4OD2bNnDx4eHkZbVlYWs2bNYvDgwWX6v/rqq4wdO5Zx48ZVaPwpU6bw9ddfs3r1agICAio7XREREZE6b8+ePXh7exMdHX1L169du5YvvviCDz/8EHd3d7777jt+/PFHnn/+efz8/Ni7dy/Lly9n0aJFxjX79u0jOzub7t27A5CZmUlCQoJTn9qg0sH1wIEDy7QlJiYSFxdXpoD4okWLaN68Ob169arQ2LNnz+add95h/fr1+Pj4cO7cuZsqCSMiIiIiZZWXEnIzlixZwqeffsqkSZOIjIwkJSWF3//+97z55pvcc889hIaG8vnnn9OwYUPjms8++4wZM2bQrVs3OnToQFpaGkuXLqV169aueKRqw3Tw4EE7cMu/uZRn6NChjB49mhEjRhhtx44d4/XXX2fJkiUkJSXRoUMH/vOf/9C/f/9rjtOnTx927tzJM888w08//cTGjRvp1q0bCQkJhIeHu2y+IiIiInXJnj17aNKkCYGBgbd0fWFhIampqTRr1sxos1gsnDhxglatWl3z4JmMjAxSU1OJiooyjl+vLQ4dOgTchuA6OzubFi1acOrUKXx8fADHpseRI0cSHx9PWFgYe/furVBwHRQURMeOHfnXv/5FcHAwW7dupVevXvTr14+vvvrKJfMVEREREamskuDa5aX4VqxYQb9+/YzAGhx50y+99JLThscbOXbsGBkZGfTs2dPYZdqtWzd69erFypUrOXnypKunLiIiIiJSKS4//jwhIYHRo0cb3x86dIjZs2eTlJTErFmzAMeGR3DsSF2+fDnx8fFlxikp9XL1xxVdu3Zl7dq1HDlyhKZNm7p6+iIiIiIit8ylK9c5OTls2LDBaZOj3W6nW7duTvUSS8rwFRUVXbMkX8uWLfH29ubMmTNO7V26dAHKBt0iIiIiIlXNpSvX5aWExMTElKmLWJJzPW3atGvmXJvNZrp3786ePXuc2k+cOEFgYKDqXYuIiIhItePSlevKlHWxWq2MHz/e6QjMjz/+mM2bN7N582ajbfXq1bz++utlyvyJiIiIiFQ1l61c5+bmsnHjRhYuXHhL16elpTFz5kwsFgtxcXEAtG/fnvj4eMaNG8fYsWP54Ycf6NGjB5MnT3bVtEVEREREXMZlpfiys7M5evQosbGxtzzGiRMniIiIKFP3MD8/nxMnThAVFeV0EqSIiIiISHVw2+pci4iIiIjUNbetzrWIiIiISF2l4FpERERExEUUXIuIiIiIuIiCaxERERERF1FwLSIiIiLiIgquRURERERcxKXHn4uIiIhIzTP606Q7fs8Fz7a94/e8E7RyLSIiIiLiIgquRURERERcRMG1iIiIiIiLKLgWEREREXERBdciIiIiIi6i4FpERERExEUUXIuIiIiIuIiCaxERERERF1FwLSIiIiLiIgquRURERERcRMG1iIiIiIiLKLgWEREREXERBdciIiIiIi6i4FpERERExEUUXIuIiIiIuIiCaxERERERF6my4PrEiRPk5ube1DV5eXkcP3789kxIRERERKSSKh1cW61WYmNjCQkJKfP14osvlnvNjh07iI6OZuPGjTd1rzFjxvDkk09WdsoiIiIiIreFe2UHWLx4MQUFBQwbNoywsDCjfe7cufTu3btM/5ycHJ555hkKCwtv6j5z5sxh5cqVxMbGVnbKIiIiIiK3RaWD6+DgYPbs2YOHh4fRlpWVxaxZsxg8eHCZ/q+++ipjx45l3LhxFb7H/v37WbVqFQMGDODs2bOVnbKIiIiIyG1R6bSQgQMHOgXWAImJicTFxeHr6+vUvmjRIpo3b06vXr0qPL7FYmHChAnEx8djNmv/pYiIiIhUX7clWk1ISOCxxx5zajt27BjLli3j97///U2N9cYbbzBp0iRCQkJcOUUREREREZdzeXCdnZ3Nhg0bnFJCrFYrEyZMYObMmTe1+pyYmEhQUFC5udsiIiIiItVNpXOur7ZixQr69euHj4+P0TZlyhReeuklpw2PN5KSksKCBQtYtGiRq6coIiIiInJbuDy4TkhIYPTo0cb3hw4dYvbs2SQlJTFr1izAseERYOrUqSxfvpz4+Pgy40ycOJGUlBRGjhxptP3www8UFBQwfPhwXnrpJfr06ePq6YuIiIiI3DKXBtc5OTls2LCBhQsXGm12u51u3bphsViMtpIyfEVFRdcsydeyZUsyMjKcrrPZbNhsNiwWC8XFxa6cuoiIiEitZ7XZ+evXp0g+X8CveobTtUX9qp5SrePS4Lq8lJCYmBhWrFjh1G/v3r106NCBadOm0b9//3LHmjp1apm2ESNGkJKSUmY8EREREXG2et9FdpzMZkjHhrSP9APg+PkCdp7KcbyfdFHB9W3g0g2N5VUJqSir1cr48eNZu3atK6ckIiIiUqsdP1/AP7akkXwu32jLKihm/uaz7D2Ty/9uSjXamwZ70zLEBzeziV6tA6tiurWey1auc3Nz2bhxo1NKyM1IS0tj5syZWCwW4uLiXDUtERERkVohv8jGTyezaRXqQ2g9T6P9v/5zksx8KxsOZzBzdAwmwM/TTESAJ6mZhbQKKc0o8HQ3MeWRFthsdtzMpip4itrPZcG1zWZj1apVeHt737Bv+/btsdvtTm2RkZEkJycTERFxzeuWLl1a6XmKiIiIVHdnMwsJ8HXHx6M0yeDjtafZfToHfy83PnqiNV7ujvd8PM1k5oO3h5vR181s4k/DWpKSUUizBs6xmeny+3J7uCy4rlevHrGxsZUao1mzZi6ajYiIiEjN9MXO8yRsTyfAx533RkTh7+UImrPyrYBjBbuo2I7X5SjuD4Oas+t0Dh0b+3FlyOzlbqZFwxsveoprubwUn4iIiIjc2P7UXD5ac5oAH3f+MKQ59b0dQfSB1DwAMvOtpGcV4n85rWPsA5GsPXCRTo39jYAbIMjPnd4xyp+uLhRci4iI3AYnTpygYcOG+Pn53bBvVlYWeXl5hIeH34GZyZ2WmW/l0+9TMZvgufsbGYHxhsOZ5FiKybEUs+9MLj2iHJU7Hu0SQmGxjZYNfWjRsDRfukmwF0/3vHb6rFQPLj/+XEREpDaxWq3ExsYSEhJS5uvFF18s95odO3YQHR3Nxo0brzv2xYsXeeihhwgICCAiIoLWrVvz7bff3o7HkDvAZoevdl9g0dY08gptRvu6A5f46WQ2P57I5tuDGUb7fa0D8fdyo2mwt1EqD6B1qA9vDWnOL7qHYVJqdI2jlWsREZHrWLx4MQUFBQwbNoywsDCjfe7cufTu3btM/5ycHJ555plrHpJ2pSlTphAVFcWqVatYs2YNn3zyCYMGDWLHjh3ExMS48jHExY6k55OSYaF7ywA83R0R8PbjWSzamgY4Ng0+3s3x9yU63Bc3swmzCWLCfY0x7orwJf4p/TnXNgquRUREriM4OJg9e/bg4eFhtGVlZTFr1iwGDx5cpv+rr77K2LFjGTdu3HXHzcjIYMiQIfz85z8H4MEHH6Rnz548+uijJCYmKriuJvKLbKRmWGje0IeSAhupmYVMTTyGzQ7J5/ONVI0An9KwKsi39O9L2wg//vZEa0wmk5FXLbWXgmsREZHrGDhwYJm2xMRE4uLi8PX1dWpftGgRzZs3p1evXjccNzAw0AisS/Tt2xeAjh07VmLGtV9eXh7p6ek0b968wtdcuHCBBg0aXPP9c+fO4entS0C90vSMQqudN5Yd5UJOEX3bBPHMfY4guqDIhu1yReGCK9I/YsJ9mfJwC3IsxXRs4u80/pWBt9Ru+pMWERG5SQkJCYwePdqp7dixYyxbtowlS5aQlJR0S+Pu3LmTRo0acf/997timjXCvHnzeO2118p9b9u2beUG0GPGjCElJYVNmzbdcPxdu3bxpz/9iRMnTrB169Zy7zF58mRaDn6FXP8W+FzYywv9oujSpQtZBVYu5BQBcOx86emHLRp682KfxpzJsNC/XbDTeFGhPkjdpuBaRETkJmRnZ7NhwwYWLVpktFmtViZMmEB8fDxm863XCpgzZw5vv/12hQ5kqw1sNhsffPAB9957LzExMXh6Ok4dPHr0KLt27So3sJ4zZw4rV66s0Nkap06d4vDhw2zZsoXQ0FAAvj+cwVe7L9CtRX36tfJi0KBBLFm6jM8ONwTA2vAuBgzoy8mTJ2no78MT3cLYl5LLI7ENncYuqewhcjUF1yIiIjdhxYoV9OvXDx+f0hXKKVOm8NJLLzlteLxZSUlJnDt3jueee84V06wRTp8+zfz58+ncubNT++TJk8vNOd+/fz+rVq1iwIABnD179rpjn8mwsDLZjZgO/bj77rs5efIkAIu3pZORZ+X0pXM0xsr58+cpLipkcIcGfHc4g9gGVpZZLOTn5+Pj48Pgjg0Y3PHa6SQiV1NwLSIichOuTgk5dOgQs2fPJikpiVmzZgGODY8AU6dOZfny5cTHx193zPz8fCZMmMC8efMqtfJd0zRt2pSmTZuWaU9ISOCLL75warNYLEyYMIH58+fzm9/8xmgvtNr47lAmofU96Ni4NM/5fzeeZX9qLt8fzsA7KAIuB9edm9Zj3YFL3BXhS9efNadz5848/PDDJCQk8OHwvvTp04dPPvmE4GDndA+RilJwLSIiUkE5OTls2LCBhQsXGm12u51u3bphsViMtpIyfEVFRRUqyTdhwgSmTZumQ2Rw5J17eXnRtm1bp/Y33niDX7/yB4o8nNMxlmxPZ9XeiwBMG9rSOO47rL4H+1PB19ONHGuB0f+Z+yJ4tHMIgb7umIB//vOf9OrVi6FDh/LAAw/w9ttvM2jQoNv7kFKrKbgWERGpoPJSQmJiYlixYoVTv71799KhQwemTZtG//79rzvmO++8Q9++fenatavRdvHiRcxmM4GBde9I64SEBEaOeoKCIhveHo5V/MTERNwadeT/TgXzxemjmAKbQkoKANaSsh2AzV76+lf3RtCtRX0iA7347arSzYgmHMeFl4iOjub//b//x0MPPcQ333zDww8/fJufUGq7uvPZk4iISCUlJCTw2GOP3dK1VquV8ePHs3btWqPt3XffZdu2bZjNZqPSyOzZsxk1alSZMn91xVfrt3CqyTB+s+Ag+1NzSUlJYcGCBXTr7VhNttvB7B9i9H+8axhP3BPGqz9vQlRI6S89bmYTHRv708Dfo8w9rnTmzBk+/PBDtm/fTtOmTXn55ZeZPXv27Xk4qRO0ci0iIlIBubm5bNy40Skl5GakpaUxc+ZMLBYLcXFxfPrpp0yePBmAlStXOvUdO3asUTmjtrJYbfxt7WnSsgp5/v5GRIf5snv3boJaxFJgBbCz+3QuiR9NJCUlhSUfvo5HTH/sxRY2/WsOeTmZDB8+nJdeeonBffrc8jwGDBjAn//8Z372s5/x/fff0717dyZOnMivfvWrWv9nILeHgmsREZEKsNlsrFq1qkJl8tq3b4/9ihQFgMjISJKTk4mIcBxE8uyzz/Lss8/elrlWN//ec4FD6fkMjW1IswaO/35JKbnsOpUDwNdJF4kO8yUhIYEH2obhFu5LodXGA9GB7GvZkoyMDAqyL1Kw/Z8AWAvzsdlsWCwWiouLb3leP/74I3v37jUO/WnSpAmLFy+mV69efPPNNwwYMKCSTy51kYJrERGRCqhXr16FaitfT7NmzVw0m+rp6Ll8dp3K4d5WAYTVd6z6pmRYWLglDYCcgmL+MNjx3yAqxIeG/h5cyrPStbljk2JCQgJffvkl0dHNjTGnTp1a5j4jRowgJSWlTK77zbpw4QJubm5Ovwjdd999NG3a9Ial/kSuRTnXIiK1UF5eHsePH7+pay5cuHDN92w2GydPnnSqiCF1V36RjR9PZJNjKV01LrTaeXflCZbvOMdHa04b7QE+7vh7uQHQJNjLaK/v485/P9aK2U/F0K1Fffbs2YO3tzfR0dG3NKe1a9cyfvx4rFZrmfcKCwvJzc0t0x4XF0d4eDiJiYlG2/nz58nPz6dfv363NA8RBdciItXcvHnzCAkJKffrWgH0mDFjePLJJys0/q5duxg5ciQDBw4s9/1//vOfhIaG0qxZM/z9/Rk3bhwFBQXl9pXa52JukVNFDo4k5ugAACAASURBVID3/n2CGV+fYsqXx7jyHbPJBIC7m8lo8/Ny4/0RUbw1pDmjuzuXGnQzm4yKIJXZLAqwZMkSZs6cSVpamtGWmZnJzJkz+e6770hOTub9998n5XKVEQA3NzcWLFjAjBkzmDRpEp988gnjxo1jwYIFNG7c+JbnInWb6eDBg3bgln9TFBGR28dms9GpUyeioqLKPR563759Za6ZM2cOL7/8MrGxsWzatOm64586dYotW7YwYcIEQkND2b59u9P7x48fZ/To0fzyl78kICCAjz76iE2bNvHrX/+aTz/91HUPKtXS4m3pJO46T5NgL6YNbYm72RE0j1t4iKx8K57uZuaMicHtcvvpSxb2ncmlW8v6BPneXObpnj17aNKkyS2XHywsLCQ1NfWWU29OnDiBzWajWbNmdeognxKjP0264/dc8GzbG3eqQQ4dOgQo51pEpFq7ncdDg2MDV5MmTfjHP/5hHA99pb179/L1118bdZ1HjBjB3XffzeLFixVc1yI7T+Uw57sUGgd58bv+TfF0N11uzwbg1EULGXlWGl4ua/fbvpF8ezCDHlEBRmAN0DjIi8ZBXmVvUAEdOnSo1DN4enpWKqe9tufDy52j4FpEpBpzxfHQFXGtChhDhgxx+t5sNvPAAw9UqGKGVD/nc4pY8MNZ/L3cGNMjwgii1yRdJDPfSma+laPn8rgrwg+AEV1CWfbjOTo1ca4XfVeEn9FHRJwpuBYRqWGudzz0pEmTCAkJucaVrrv/E088cVvvIZVTbLOzat9F7HYY0D7YSOf4avcFth93rEbfFeHHva0CAOjZKoC9Z3JpHORFi4alB7F0aVaPLs3q3fkHEKnBFFyLiNQw5W38SkxMJCgoiN69e9/Wex88eJCTJ0/y/PPP39b7SMUdTc8nI99K56b1KMnQWHcwg0WXy995upno3y4YgKhQH75OAg83k1FvGqBnVAD3tKiP2WzCVOYOInIzqiy4PnHiBA0bNsTP78YfK2VlZZGXl0d4ePgN+4qI1HZLly51SgkpOR560aJFt/3e06ZN47PPPsPL69byauXWFRTZyMizEhbgaQTAR8/l887lih2juobyUKeGAPh5uhnX+XqVvr6vVQBRIT74eJgJvGrD4ZW50yJy6yq9HdZqtRIbG1tuiagXX3yx3Gt27NhBdHQ0GzduvO7YFy9e5KGHHiIgIICIiAhat27Nt99+W9kpi4jUWLt378bLy4s2bdoYbRMnOo6HHjlyJMOHD2f48OFs3ryZgwcPMnz4cNatW+eSey9cuJDWrVvf9tVxAftV3+dYivndkiO8lnCExF3njfbMfKvRNyu/tOZ096j6vPZgUyb8vImR+lEiIsCzTGAtIq5T6f+7Fi9eTEFBAcOGDSMsLMxonzt3brk/gHNycnjmmWcoLCy84dhTpkwhKiqKVatWsWbNGj755BMGDRrEjh07yt0lLyJS25WXEtLy8vHQVx7wYrPZXHI8dIl9+/bx9ddfM3fu3EqPJddmt8PfvjnNTyeyeaxrKIM6NAAgNbOQzHzH4SgHUvN4uJOjf+cm9fhF9zCy8osZ0rGBMY4JiG3if6enLyK4ILgODg5mz549eHiU7iLOyspi1qxZDB48uEz/V199lbFjxzJu3LjrjpuRkcGQIUP4+c9/DsCDDz5Iz549efTRR0lMTFRwLSJ1Usnx0Fe6ncdDg6PW9R//+Ec+//xzTKbS1IGjR48SFRVV6fHrqnUHLrHuYAZxdwXxQLSjtvPFvCK2HcsC4JsDl4zgulWIDw+2C+bkRQsjupRuWDWZYGD7BmUHF5EqU+ngurwTvRITE4mLi8PX19epfdGiRTRv3pxevXrdcNzAwEAjsC7Rt29fADp27FiJGYuI1EyuOB76iy++4MMPP8Td3fnH/7WOhz59+jSDBw9m/PjxrFy5EoD8/Hz27t1LeHg4r7zyyi3NpS45ebGAtfsvEdvEn85NHZU37Hb4301nKbbZOX3JYgTXwb4edG1Rn12ncujfNtgYw2SCp3po35FITXBbkq4SEhIYPXq0U9uxY8dYtmwZS5YsISnp1k4B2rlzJ40aNeL+++93xTRFRGoUVxwP/emnnzJp0iQiIyMBx/HQCxYs4LvvviMzM5P333+f0aNH06hRI3Jzc4mLi+PQoUO88MILTmOZzeZyD52pywqKbPyQnEWzBs7l7GatO8PpSxbWH8zgf0bH4OtpxmSCuyJ82Xsml/aNSjf2m0zwcpyO3RapyVx+/Hl2djYtWrTg1KlTxoleVquVkSNHEh8fT1hYGHv37qVDhw785z//oX///hUee/To0fTq1YuxY8e6ZK4iIjVJVR8PLaVOX7Lg5+XmdMR3/PozbDiSiZvZxIejWtHAz5Eu+d6/T7LnTA4BPu789fHWeLg5UmuKbXbSs4sIq++JCnVIVdPx55V3244/X7FiBf369TMCa3BsTHzppZecNjzerKSkJM6dO8dzzz3nimmKiNQ4VX08dF1UbHPU4nAzmyocfBTb7Ly86HCZ9sx8K7+au7/C965tgYdIXeHy4PrqlJBDhw4xe/ZskpKSmDVrFuDY8AiOTTjLly8nPj7+umPm5+czYcIE5s2bh9lc6eqBIiIiN3TsfD7T/30SNxO8OaR5VU9HRGoIlwbXOTk5bNiwgYULFxptdrudbt26OZWIKinDV1RUVKGSfBMmTGDatGk6REZERFwu11LMrPVnyLUU88IDkYQHeAKw/Xg2uRZHGcNdp3OqcooiUoO4NLguLyUkJiamTCmokpzradOm3TDn+p133qFv37507drVaLt48SJms/mW8w5FRKTusQMrd18gNdPCsM4hNPB35ERvO57NrlOO4Hnt/kv8orsjhfHeVgFsPZaFp7uZbi3qs/CHtKqauojUIC4NrhMSEnjqqadu6Vqr1cqECRN45JFHiIuLA+Ddd99l27ZtdOjQgWXLllFcXMylS5dYunQpX331lSunLiIitciR9HwOp+dxX6tA6nk7jv8+eDaPRVsdAbLFaufFPo6KKdFhPvh6mrFY7XRoXFq5o1GgF/81stWdn7wAd36DnXLcxVVcFlzn5uayceNGp5SQm5GWlsbMmTOxWCzExcXx6aefMnnyZACjtmqJsWPH4unpWek5i4hIzZZXaOPY+Xxah/ri6e4ouZGZb+VPK45jtdnZdyaX1x5sCkCQrzsebiaKiu2E1S/9N6RRoBd/eyKaYpsdPy+3KnkOEak9XBZc22w2Vq1ahbe39w37tm/fHrvd7tQWGRlJcnIyERERADz77LM8++yzrpqeiIjUcDmWYvy83CipWme3wztfHiMlw0L7SD/eGFhaCaXkXxjbFf/UhNX35N1Ho7iQW0TbiNIVagBvD22WFxHXcFlwXa9ePWJjYys1hkpEiYhIef53Yypr9l+iUxN/XnuwKSbAarOTluXYFH8mo3TTfICPO78f1IxDaXnGyYclwgM8jQ2LIiK3w205oVFERORWbD2WxaKtacSE+zL2/khMl5eptxxzlHDddSoHS5ENbw8zHm4mftM7ki3JWcTdFeQ0TptwX9qE+97p6YuIKLgWEZE7Ly2rkITt6YQHeDL8Z6FGEJ246zznsos4l53Jw50a0ijQC4DhPwvlqz3n6dU60CmFo3vL+nRvWb8qHkFEpFwKrkVE5LYpKrazdv8lfD3N9IoONPKll2xPZ0uyYzW6bSM/Iwe6W4v6HDtfQFSID6FXbDrs1zaIfm2Drh5eRKTaUXAtIiIukXwun6JiOzFXpGOs3HOBhO3pAPh6unF383oANA32ZktyFl7uZkLrlQbRD3VqSL+2wXi7m43VbBGRmkTBtYiI3BSL1UZBkY0An9J/QnafzuH9VScBGNcnkp5RAQC4u5VGyFe+fji2Ie0a+dHAz4MgP+d/inxUuUNEajAF1yIiUmEXcot461/JZBcU80LvSO5t5Qiiz2UXGX3OX/F6QLtg6nm54eflRmwTf6PdBLQKLT3NV0SktlBwLSIiZRTb7Hy05jSH0/N4umcE91zeNJh8Lp+sgmIA9pzOMYLr+6MDOZ9TRLHNTv92wcY4bmYT919VDk9EpDZTcC0iUgPdyaOhP/7mNB9/4zgeulNjf7q1qM+l3CIGdWxg9PFwMzGqa+gdm5OISHWl4FpERCrM093M+LjGVT0NEZFqS7tGRERERERcRMG1iIiIiIiLKLgWEakB7Je/RESkelPOtYhINbc/NY+P1pyivo87fxjczKm+tIiIVC9auRYRqSYy86389+pT/PfqU2TlW432jUcyyLEUk5JhYV9KbhXOUEREbkTBtYjIHWa3w1d7LvCPLWnkWoqN9m8PZvDTyWx+OpnNt4cyjPb7WgdSz9uNpsHetI/0L29IERGpJvTZoojIbXQkPZ8zGRZ6tKyPp7tjPWP78SwWbUkDHCcVPnFPGACtw3xwM5swATHhvsYYbcJ9+Z/RMXd66iIicgsUXIuIuEB+kY2UDAstGvpgNjnazmYWMiXxGHa742TDX90bAUCgb+mP3kC/0td3RfjxtydaYwLqK69aRKRG0k9vEZGbVFRsx8PNZHxfaLUzeflRzmUX0TsmkGd7NXK0F9uwXy7xUVBkM/q3DvNlyiMtyCkopmNj5zQPbVYUEanZ9FNc6pz09HQCAwPx9PSs8DU2m43U1FQiIyOv26+wsJDCwkL8/ZUXW1vFrz/DhiOZ/LxtML/sGQ5AtsXKuewiAI6dLzD6Ng32ZnxcY05etPBgu2CncaJCfO7cpEVE5I7Rhkap8axWK7GxsYSEhJT5evHFF41+a9asoUePHoSHh+Pv78/06dMrNP706dMZNGgQM2bMoG3btnz55Zdl+hQUFPDxxx8TFRXF+vXrXfVoUoU2HMlk4tKjLP3xnNFmtdnZcCQTgO8Pl244bODnwS/uCaNTE3/G9Ah3Gqdbi/qM6BJCPW+3OzNxERGpUlq5lhpv8eLFFBQUMGzYMMLCwoz2uXPn0rt3bwCSk5P5/vvvmTdvHunp6UyePJnJkyczdOhQ2rRpc82x//SnP/Hdd9+xevVqAEaNGkXPnj35z3/+Q9++fY1+a9as4cyZM5w+ffr2PGQtczs/PbhZKRkWvtx1ntahvsTdFWS0L9mWzsXcIv7vp3MM6hCMr6cb7mYTQzo24NtDGQxs38BpnIEdGjCwQ4OrhxcRkTpGK9dS4wUHB7Nnzx4++eQTpk2bxrRp03j99dfJz89n8ODBAPj7+zNlyhSio6O57777iI+Px263k5aWds1x09LSmDJlCk8++aTR1rVrVwYPHsxzzz3n1HfIkCFO/eqa6vDpwY0UWm2sSbrErlM5Tu3zN59lw+FM5m5M5WxmodHeuakjtadNuC8+nqWrzo93C+N/RsfwcGzDm56DiIjUflq5rgZuZRWvqKiIc+fO0ahRo2v2uV0rfdXNwIEDy7QlJiYSFxeHr6+jnFloaKjT+3v37uX555/ngQceuOa4Bw4cwGq1curUKaf2Ll268MUXX5CSkuL039/b27syj1GjVYdPD6504kIB7m4mIgO9jLYl29NZtfciAFMeaWHkPIfU8wRy8fU0439F6sbT90YwtHMIgT7umBAREamYGhVc5+XlkZ6eTvPmzat6KtdltVq5++67OXPmTJn3HnvsMWbOnAk4VvHeeusttmzZgru7O1OnTuWNN9647tjFxcVMmjSJI0eO0KdPH86cOUNQUBATJ07Eza00MJg+fTrr16+nffv2rFy5kunTp/Pwww+79kGrsYSEBEaPHl3ue1u3buV3v/sd33777XXHaNy4MVD651SiqMixce38+fPX/eWmLin59MDDw8Noy8rKYtasWWU+PQCIjo4mPj6edu3akZaWds3guuTTgzlz5hhtV356cODQEYptdrw9Sj+E+yE5i79/cxoTMHlwc+6KcPyCVVK1A8B2xeune4bTtXk9IoO88Pcq/X/IBAT51qgfkSIiUg1U2b8c8+bN47XXXiv3vW3btpUbQI8ZM4aUlBQ2bdp0m2dXObdzFe+9995jx44dfPPNN0Zb586dcXd35/XXXwdubaWvNsnOzmbDhg0sWrSozHvz58/nnXfe4fTp09xzzz2sXLmSrl27ljtOy5Yt6dSpEz/88APp6emEhoZit9s5cOAAUBp8S9V8erBuy25eXHCAIhtMHNCUuyL8ADh9yQKAHTibaTGC65F3h9LQ34PQ+p60Di2t1OFmNpUphyciInKrqiS4ttlsfPDBB9x7773ExMQY6RBHjx5l165d5QbWc+bMYeXKlcTGxt7h2d6827WKB45fPOx2O0VFRcb4zZo1IzPTUcHgRit9R48edfnzVjcrVqygX79++PiULXU2ZswYxowZw6effsrYsWOZMWMG//jHP8odx2Qy8emnnzJ48GB69uzJ4MGDyc3NZfXq1URGRhIcHFzudeLgqk8P3D292WWL4XdLjvD8/Y2ICfelqKiI8DbdyStyLEHvPJljBNcD2geTkVeEt4eZe1sFGmN5e5i14VBERG67KgmuT58+zfz58+ncubNT++TJk4mJKXvE7/79+1m1ahUDBgzg7Nmzd2qat+x2reIB/OpXv+KRRx7hkUceYenSpXz11VekpqaycOFC4ObzhGuj6wV1JZ599lnWrVvHmjVrrtvv7rvvZv/+/WzYsIGQkBA8PDz47LPPGDt2rCunXOvc6qcH/95zgQNn8xjauSEtGvrQsmVLug98HO/I9qRlFbI66SLRYT4cOHCAkz+u5YmXp1KMmd5tSqt8+Hu5GYe4iIiI3GlVUi2kadOmZQJrcARFI0eOdGqzWCxMmDCB+Ph4zOaaW9wkISGBxx57rNz3SlbxJk2adMNxHn74YV5++WX+/e9/06tXL5YvX86aNWvw83Os2l2ZJ3ylK/OEa7OcnBw2bNhQ7i84V+vdu7dTnvq1BAcH8/DDD9OjRw8++eQTQkNDnSpgSFk3+vRgzZZ9/GHOKorc/ZkxYwbgOCp84ZY0fjyRzcIfHFVcTCYTf3njJQoyzmK3FbNv/TKee+45Vq9eTYP6PrwztBXThrYkIqDim4FFRERup2oTre7cuRMvLy/atm3r1P7GG28wadIkQkJCqmhmlVeyileSEnKl+fPn8/jjjxureNu2bbvheH/961+555572LFjB3v37iU7O9t47+o8YaBO5QlfL6i7WlpaGj179qzw2CkpKSQmJrJy5UqaNm1amWnWeiW/TOYV2vjxRDbZBcXGe4VWO39ZeYLjNGHIG//L2rVrAajv42YctNIkuLTySq/uXfifpzsxPOw4vxzYjRdeeIHMzEx+8Ytf3NmHEhERqYBqE1yXt7KbmJhIUFCQsQmwprrRKl5ycjJz5szh4sWLxire9UyfPp0nnniCN998k7179xIXF0dGhuO0uJI84cDAQHr27MnLL79srPTVhTzha31CsG/fPn744Qfj+8zMTBISEpg6darRZrVaGT9+vBHsXSkzM5PHHnuMuXPn0qVLl3LvXVjoqJGcm5tb2ceokS7kFmG12Z0+PfivVSeY8fUppiQeM6p1mEzgbnYUt6vn52N8euDr6cZ7w6N4+6HmZU45DGnYgEcfeUifHoiISLVXbepMLV26lC+++ML4PiUlhQULFpSbs1nTuDIHOCEhgYSEBLZv347JZMJkMjFt2jRmz55tpJXU1Tzh3NxcNm7caOSfX+mzzz5jxowZdOvWjQ4dOpCWlsbSpUtp3bq10SctLY2ZM2disViIi4vDbrezdetW1q9fz/bt23nrrbd48MEHy733+vXrjU2kc+bMwcfHp06VPlyyLZ0vd52ncZAXHYu2G79Mns9xpCNdzC3CZrfjZjLh4WbirYeas/d0LpsT5zp9elDfx536Ptf+saRPD0REpLqrFsH17t278fLycqqSMXHiRFJSUpxysH/44QcKCgoYPnw4L730En369KmK6d6UklW88gK+q/Xu3Zt169Zdt8/8+fPp1asXJpNj5W/KlCls3ryZf/3rX0452yV5wgDPP/98nVjps9lsrFq1qtzDXD788EPefvttUlNTiYqKKvfAnsjISJKTk4mIiDDGs9lsPP300zfMh+/duze9e/eu0J9zTbbzVA5zvkshMtCL1x5sgqe72WgHRxm8I9+uYfTlTw9e6tuY9Qcz6N6yPgf2J5GdnU337t2JDPTC31TAxH/Od/oF2mq1MmHCBB555BHi4uKc7l2RTw9ERESqWrUIrsv7KL9ly5ZkZGRgsViMtpJgx2KxUFxcfPUw1ZKrc4AvXLjgtNpqMpl48sknjbJ+V6tLK3316tW7bqnGwMBAAgMDr/k+OMoalnBzc6NHjx4um19NciGniM9/OIuvpxtP9ww3gug1SRfJzLeSmW/lUFo+7SMdG2lHdAlh2Y5zxIR4MvGtFSyY8zEAMeG+xIQ7KuRMmHB7Pz0QERGpDqpNcP3ll186tV2ZC1tixIgRpKSksGLFijs1tUpLSEjgqaeeKtO+b98+YxUPSnOAb7SK98tf/pLp06fz4YcfOo01bNiwMvfQSp/cSLHNzn/2XaTYZmdA+wZ4uDk+EVm59wLbjzs2yrZt5Md9rQIAuK91IPtScokI8KLVFQex/KxZPX7WrB7Z2dl0/Pe/q+TTAxERkeqgyoPrPXv24O3tTXR0dFVPxeVcnQMMjg2Q27dvp0+fPjz99NP89NNPWK1W/uu//gtAK31yTUfS88nMt9K5aT0u7yfku0MZ/GOLo+ydh5uZAe0dG16jQnwut5lodkXlju4t69O1eT3MZhOmcu6hTw9ERKSuq/Lg+nr1n2s6V+cAA/j4+DBnzhxyc3M5fvw4jz76KPXq1XO6p1b66raCIhsZeVbCAjyNAPjouXymfHkMO45jwB+JbQg4KnSU8Pcqfd0zKoCWDX3w8jAT5Ov8Y8LNXF5YLSIiIlANguuRI0fSpEmTCvVdunTpbZ6Na7l6Fe9Kfn5+tGvXrky7VvrqFjs4rSDnWIr5/bKjXMqzMqJLCEM7O+rD5xQUc7kSHln5VqN/t5b1ec2jKTa7nc5N63GlcB3MIiIictOqPLju0KFDVU9BpMaxA39fe5rtJ7J5rGsogzs0ACAtq5BLeY7g+cDZPKN/xyb+jOkRzqU8K0M6NjDaTUBsE/87OXUREZFarcqDaxG5vnUHLvHNgQz6tgmkT5sgAC7lFrHlWBYA3+y/ZATXLRv6MLB9A45fKGDk3aHGGCagf7vafYCQiIhIdaDgWqSaOHmxgDVJl+jUxJ8uzRwpGnZg/uazFBXbmb+5wAiug/w8uKdlfXaezKF/29Kg2WSCX3QPq4rpi4iICAquRe44i9XG5qNZNA32omVIaTm7+PUpnLxYwPqDl/if0TH4eblhAu6K8GP36RzaNfIz+pqA3/ZtfOcnLyIiItel4FrkNjp9yYKfpxtBfqX/q83dmMqGw5m4mU3892OtaOjvAUCgrzsnL4K/tzsebmaj/2sPNiUtq5Cw+tpgKCIiUt0puBZxgWKboxbHlWXqvjlwif+3IRVPdxN/GtqSRoFeAFiK7MY1RcV2o/9v4xqz+1QOrcJ88HQvHcdsgghV7hAREakRFFyLVNLx8wW8++8TuJngD0OaE3k5iD52vgCAQqud1MxCI7h++t5wIoM8ad7Axylo9vEwc0/L+nf+AURERMRlFFyLVFBeYTGz1p0hu6CYF3pHGoHxjyeyybUUA7DzVI4RXD/cqSE5lmKC/dydyt0F+Lgzokto2RuIiIhIjafgWuQqdmDlngucuWRhWOcQQuo5cqK3Hc9m56kcAL5OusiYHuEA9GwVwJZjWXi4mbinRenKc0g9D16O06ZDERGRukTBtdRpR9PzOZSWx72tA6nv7Tj++3BaHou2pAFQaLXx0uWqHNFhvvh6mrFY7XRsXLoSHRHgyfsjou785EVERKTaUXAttdboT5Mq3Hfh5WD6aj8kZ/FDctlxPvjPyXL7L3i2bYXvKSIiIrWP+cZdRGqWHEsx9ht3ExEREXE5rVxLrTJv01m+TrpIh0j/G3cWl7qZTwpcRZ8UiIhIdaOVa6mRth3P4tXFh/mf9WewX7FMveVYFgB7zuRU0cxERESkLtPK9R2klb2bl5ZVyJLt6YTV82TE3aGUnNHy5c4LnMsu4lx2Jg91akjjIEf5u+E/C+Gr3Rfo2SqA//vpXBXOXEREROoiBddSLRQV21m7/xLeHmYeiA7EdDmIXvbjObYkO1aj20X60a6RHwDdo+pz7Hw+LRr6OB0LHndXEHF3BQEouBYREZE7TsG13HHJ5/IpKrYTE+5rtP177wWWbEsHwMfTbNSLbhLsBUfBy91MaL3SIHpwhwb0bROEt4cZEyIiIiLVg4JruW0sVhsFRTYCfEr/mu0+ncP7qxxl7F7oHcl9rQIAcDeXhsgebqWvh3RqSNsIP4L9PAjyc/7r6uOhLQMiIiJSvSi4ltviYm4Rb/4rmayCYl54IJL7Wgdcbrcafc5nFxqvH2wXTD1vN3w93ejctJ7RbgKiQn3u2LxFREREKkPBtVRKsc3OR2tPczgtj1/2jKB7S0c6x/HzBWQVFAOOyh0lwfW9rQI4l11IYbGdB9s3MMZxM5vo1Trwzj+AiIiIiAspuJYK+zrpIluPZTO4YwNimzjqSJ+6ZGHHiWwAVu+7aATX7SP96RFVn/PZRQzuWBpEe7iZGHl36J2fvIiIiMgdoOBayjh+voCNRzPp1rwercMcmw5zLcXM23QWgPM5hcSOag1AZKAXrUJ9OHa+gPujS1eePd1NvNin8Z2fvIiIiEgVUnBdhxUU2dhxMpuoEOdydv+9+iSX8qx8e/AS8U+1wWwCbw8zkYFenMmw0Dq0tMqHh5uJPz7cApvNjptZdTtERESkblNwXUeczSykvo87vp6lFTZmrT/DjhPZ+Hq68bcnWuN9ufqGj6cbl/Ks+Hm5GfWm3cwmpg5tQWpGIU0beDuNbbr8voiIiEhdd8eD+tD2BwAAIABJREFU6/T0dAIDA/H09Lxx58uKioo4d+4cjRo1uo0zq70Sd51n8bZ06vu4M314FPW93QDIzHdU7igoKqaw2I63h6P/7wc1Y9epHDo29nOqIe3lbqZ5Q29EREREpHyVLhRstVqJjY0lJCSkzNeLL75o9FuzZg09evQgPDwcf39/pk+ffsOxi4uLee211xg5ciQJCQlMnDiRd999l+Li4spOu045eDYPgKx8K2lZpeXvXnggkv7tgnmlXxMj4AYI8nWnd0wgwX4ed3yuIiIiIjVZpVeuFy9eTEFBAcOGDSMsLMxonzt3Lr179wYgOTmZ77//nnnz5pGens7kyZOZPHkyQ4cOpU2bNtcc+7333mPHjh188803Rlvnzp1xd3fn9ddfr+zU64zhXUIpLLbTNNiLViGlNaMjAjwZ0yO8CmcmIiIiUrtUOrgODg5mz549eHiUrnJmZWUxa9YsBg8eDIC/vz9TpkwBIDo6mvj4eNq1a0daWtp1g+tt27Zht9spKioyxm/WrBmZmZmVnXad0qKhN5MHNavqaYiIiIjUepVOCxk4cKBTYA2QmJhIXFwcvr6OqhKhof+/vXuPy/n+/wf+6KhS5JDzB/sQG/b55hSV0CpyDOkgh2azg9l8bOYwzAjbPvMZn9ns09AoFVYMOUURKtGQVBRyLh2QTlRX1+v3h0/XT+vqQO+ua1097reb22293q/31XNX3a4e1+t6HSrua5yYmIj3338fw4YNq/axZ86cicjISDg7O6OoqAjBwcHIyMjAF198UdeyiYiIiIgkVy8LGoODgzFt2jSl186dO4f58+fj5MmTNT7O+PHj8c9//hM//PADbG1t0aNHD4SHh6Np06ZSl0xEREREVGd1Hrn+s/z8fERFRSmmhLzI398fHh4euHfvHgYNGoS4uLgaH+8///kPBg0ahAsXLiAxMRH5+flSl0xEREREJAnJw/WBAwfg4OAAQ0PDStdmzJiBtLQ0bN68GY8ePcL69etrfLxvv/0WU6ZMwbJly5CYmAh7e3vk5uZKXTYRERERUZ1JPi2kuikh5WbNmoUTJ04gPDy8xscKDg7GH3/8AS0tLWhpaWHVqlX45ZdfsGjRIinLJiIiIiKqM0lHrgsKChAVFYVRo0bV2Hf48OHQ0dGpto+/vz9sbW2h9b9jAleuXAkHBwf8/vvvktRLRERERCQlScN1dVNC/iwzMxPW1tbV9nn48CG0tf9/iVpaWvD09MSDBw/qXCsRERERkdQkDdfBwcFwc3Or1J6UlITY2FjF10+ePEFwcDC8vb0VbTKZDHPnzkVERISizcvLq9IodVJSEiZOnChl2UREREREkpBsznVhYSGio6MRGBhY6Zqvry/Wr18PS0tLvPnmm8jMzERISAjMzc0VfTIzM7Fx40YUFxfD3t4ewPMFkH/88Qfs7Ozw9ttv4+LFi5DJZFi7dq1UZRMRERERSUaycC2Xy3HkyBEYGBhUurZu3TosX74cGRkZ6NatG/T19Sv16dixI9LS0tC+fXtFm6GhITZv3ozCwkLcunULkyZNgomJiVQlExERERFJSrJwbWJiAgsLiyqvm5qawtTUtNrH6NJF+RHdTZs2Re/evetUHxERERFRfZN8n2siIiIiosaK4ZqIiIiISCIM10REREREEmG4JiIiIiKSCMM1EREREZFEGK6JiIiIiCTCcE1EREREJBGGayIiIiIiiTBcExERERFJhOGaiIiIiEgiDNdERERERBJhuCYiIiIikgjDNRERERGRRBiuiYiIiIgkwnBNRERERCQRhmsiIiIiIokwXBMRERERSYThmoiIiIhIIgzXREREREQSYbgmIiIiIpIIwzURERERkUQYromIiIiIJKLycJ2VlYWSkpJXvl8ulyMtLQ1yuVzCqoiIiIiI6q7O4Vomk8HCwgJmZmaV/s2ZM0fRLzw8HFZWVmjXrh2MjY3x7bffvtT3uXHjBtzd3bFy5UokJydDCFHX0omIiIiIJKVb1wfYtWsXnj17hokTJ6Jt27aK9q1bt2L48OEAgLS0NJw+fRp+fn7IysrCkiVLsGTJEkyYMAGvv/56jd/jxx9/REBAAPz8/GrVn4iIiIhIHeocrlu2bInLly9DT09P0ZaXl4eff/4ZY8aMAQAYGxtj5cqVAIAePXrAx8cHvXv3RmZmZo1heeXKlTh27BiOHj2K5s2b17VcIiIiIqJ6U+dwPWrUqEptoaGhsLe3h5GREQCgTZs2Fa4nJibi/fffx7Bhw6p97F9++QUrVqxAZGQkDA0NkZ2dDTMzs7qWTERERERUL+plQWNwcDDc3NyUXjt37hzmz5+PRYsW1fg4O3fuhKmpKfbv3w8nJyd06tQJtra2ePDggdQlExERERHVmeThOj8/H1FRUYopIS/y9/eHh4cH7t27h0GDBiEuLq7ax4qPj8c//vEPLF26FMePH8fp06dx7tw5vPvuu1KXTURERERUZ5KH6wMHDsDBwQGGhoaVrs2YMQNpaWnYvHkzHj16hPXr11f5ODdv3kRubi6sra3RsmVLAIClpSVsbW1x6NAh3LlzR+rSiYiIiIjqRPJwXd2UkHKzZs2Ch4cHIiIiquxTVlYGADA1Na3QPnDgQADA9evX61gpEREREZG0JA3XBQUFiIqKUrrI8c+GDx8OHR2dKq///e9/h4GBAe7fv1+hvX///gAqh24iIiIiInWTNFxXNyXkzzIzM2FtbV11YdraGDx4MC5fvlyh/fbt2zA1NeV+10RERET0lyNpuK5qSkhSUhJiY2MVXz958gTBwcHw9vZWtMlkMsydO7fCVJEff/wRZ86cwZkzZxRtR48exYIFCxTb/BERERER/VXUeZ/rcoWFhYiOjkZgYGCla76+vli/fj0sLS3x5ptvIjMzEyEhITA3N1f0yczMxMaNG1FcXAx7e3sAQJ8+feDj44OPPvoIH3zwAWJjY2FlZYUlS5ZIVTYRERERkWQkC9dyuRxHjhyBgYFBpWvr1q3D8uXLkZGRgW7dukFfX79Sn44dOyItLQ3t27ev0P7222/D3d0dt2/fxrvvvlvhJEgiIiIior8SycK1iYkJLCwsqrxuampa4yLELl26KG03NDTkHGsiIiIi+surlxMaiYiIiIgaI4ZrIiIiIiKJMFwTEREREUmE4ZqIiIiISCIM10REREREEmG4JiIiIiKSCMM1EREREZFEGK6JiIiIiCTCcE1EREREJBGGayIiIiIiiTBcExERERFJhOGaiIiIiEgiDNdERERERBJhuCYiIiIikgjDNRERERGRRBiuiYiIiIgkwnBNRERERCQRhmsiIiIiIokwXBMRERERSYThmoiIiIhIIgzXREREREQSYbgmIiIiIpIIwzURERERkURUHq6zsrJQUlLySvcWFRXh1q1b0hZERERERCSROodrmUwGCwsLmJmZVfo3Z84cRb/w8HBYWVmhXbt2MDY2xrfffvvS32vGjBnw9PSsa8lERERERPVCt64PsGvXLjx79gwTJ05E27ZtFe1bt27F8OHDAQBpaWk4ffo0/Pz8kJWVhSVLlmDJkiWYMGECXn/99Vp9n82bN+PQoUOwsLCoa8lERERERPWizuG6ZcuWuHz5MvT09BRteXl5+PnnnzFmzBgAgLGxMVauXAkA6NGjB3x8fNC7d29kZmbWKlxfuXIFR44cgZOTEx48eFDXkomIiIiI6kWdp4WMGjWqQrAGgNDQUNjb28PIyAgA0KZNmwrXExMT8f7772PYsGE1Pn5xcTE+++wz+Pj4QFub6y+JiIiI6K+rziPXygQHB2PatGlKr507dw7z58/HyZMna/VYixcvxqJFi2BmZiZliUREREREkpN8KDg/Px9RUVGKKSEv8vf3h4eHB+7du4dBgwYhLi6u2scKDQ1FixYtFHO3iYiIiIj+yrRSUlIE8HwutBR27NiBffv2YefOnVX22bJlCz744AO4u7sjKChIaZ/09HR8+umn2LFjh2I6yOTJk5Geno6YmJhXri81NfWV7yUiIiKihk+q3Pui8owp+bSQ6qaElJs1axZOnDiB8PDwKvssXLgQ6enpcHV1VbTFxsbi2bNncHFxwccffww7O7uXqo3BmoiIiIhSU1PrJWADEofrgoICREVFITAwsMa+w4cPx4kTJ6q8/ve//x25ubkoLi5WtMnlcsjlchQXF6OsrOyV66yvJ5MqKn8zw+dbNfh8qxafb9Xi861afL5Vi8+3atX3YKuk4frAgQNwcHCAoaFhjX0zMzNhbW1d5XVvb+9KbeXTQg4cOFCnOomIiIiI6oOkCxqDg4Ph5uZWqT0pKQmxsbGKr588eYLg4OAKAVomk2Hu3LmIiIiQsiQiIiIiIpWRbOS6sLAQ0dHRSqeE+Pr6Yv369bC0tMSbb76JzMxMhISEwNzcXNEnMzMTGzduRHFxMezt7aUqi4iIiIhIZSQL13K5HEeOHIGBgUGla+vWrcPy5cuRkZGBbt26QV9fv1Kfjh07Ii0tDe3bt6/ye4SEhEhVLhERERGR5CQL1yYmJrCwsKjyuqmpKUxNTat9jC5dukhVDhERERGRykm+zzURERERUWNTvguJ5Cc0EhERERE1VgzXREREREQSYbgmIiIiIpIIwzURERERkUQYromIiIiIJMJwTUREREQkEYZrIiIiIiKJMFwTEREREUmE4ZqIiIiISCIM10REREREEmG4VqOMjAw8fvxY3WUQERERkUQYrtUoMTERjo6ODNhEREREGkJX3QU0Rk+ePMGyZctw6tQpGBoaYuzYsThw4ABatGih7tI02sOHD7Fx40bExMRAT08P//d//4d3330Xr732mrpL0zhCCBw8eBCHDx9GdnY2unTpgilTpqBfv37qLq1Rkcvl2LVrF44cOYLs7Gx07doVU6ZMwZAhQ6ClpaXu8jROYmIiNm/ejMuXL6N58+YYMmQI3n77bbRq1UrdpWmsO3fuwMfHB+fPn0ezZs0wePBgPucqJoRAWFgYQkNDkZ6ejk6dOsHNza1xv86kpKSIlJQUQaqRl5cn3nrrLREREaFoS0tLE4GBgWqsSvPt2LFDtGjRQrRv31507dpVABAAhLa2tvj222+FXC5Xd4ka4+7du8LOzk5oa2uL9u3bK55rAMLDw0MUFBSou8RG4caNG2LgwIHCwMBAmJubCy0tLcXPYdy4ceLx48fqLlFjyGQysXDhQqGvry969uwp2rRpo3iumzdvLg4ePKjuEjWOXC4X69atE4aGhqJTp06idevWiufc2NhYhISEqLvERiEzM1M4OTkJbW1t0blz5wqvMyNHjhQ5OTnqLlGlyjM1w7WKLV++nEFaheRyufj666+Fq6uruH//vqL9zp074uOPP1a8CCxfvlyNVWqOy5cvi8GDB4v9+/eLoqIiIYQQ9+7dE99//71o0qSJACCGDBkiSktL1VypZouLixNWVlYiIiJCyGQyIYQQjx49Er/88oto2rSpACAGDBggiouL1Vxpw1dYWChcXV3FypUrFb/zcrlcJCQkCHt7ewFAaGlpibCwMDVXqjlKS0vF7NmzxSeffKIIb2VlZSIhIUGMGjVK8boeHBys5ko1W0pKirCyshLBwcGK3/2HDx8KX19f0axZMwFA9O7dWxQWFqq5UtVhuFYTJyenCqPW5WQymfjjjz/E9u3bRXh4uOIPIr06uVwuFi1aJL788ssqR6ZDQkKEjo6O0NbWFqdPn1ZxhZrl/PnzwtbWVjx8+FDp9YSEBNGlSxcBQKxYsULF1TUe0dHRYtiwYSIvL0/p9dTUVGFubi4AiEWLFqm4Os1SUFAgHBwcqgzOMplMLF26VAAQbdu2FZmZmSquUPOUlpYKd3d3ERAQoPR6WVmZ8Pb2FgBEixYtxN27d1VcYeOQmJgoBg0aJB48eKD0elpamujTp48AIGbPnq3i6tSH4VpNZs2aJSwtLUV4eLgIDg4WS5YsEU5OTqJ58+YVPj4fMGBAlSGFalYerPv06VPjG5Wvv/5aABDOzs4qqk7znD9/XrRs2VJcunSp2n5nz54Vurq6Ql9fXzHSQdKJjo4WJiYmIjExsdp+Fy9eFPr6+kJPT69RjSpJqaCgQNjZ2Yn333+/2n5yuVyMHz9eABDfffediqrTTKWlpcLNzU1MmjSp2n5yuVx4enoKAGLp0qUqqq7xSExMFGZmZuLEiRPV9ktJSVF8UtZY3lgyXKtIWVlZha9TU1OFsbFxhSANQOjq6gorKysxZ84c4eHhIbS1tcXHH3+spqobNrlcLhYvXix0dHQEALFu3bpq+5eVlYk+ffqIli1bVvp5Uc3KgzUAMWHChBqnGixatEgAEMePH1dRhY1DdHS0MDU1Vcx1fPr0abX9ly1bxp/DKyooKBBOTk4CgDA0NBTh4eHV9s/OzhY6Ojpi7NixKqpQ85SWloqpU6cKAEJPT0/s27ev2v55eXnCxMRE2NjYqKjCxiExMVG0bdtWABBDhw4V+fn51fb//vvvBYBGMwe+PFNzK7569s033yAsLEzxtbm5OZKTk7FgwQLMnDkTq1evxvHjx/H48WPExMTgp59+wo4dO7BhwwbExMSosfKGKyUlBTNmzMDZs2fx97//HZ999hnWrVtXZX9tbW2MHDkSjx49QlFRkQorbfhkMhlSU1MRHx+PUaNGYe/evXB3d0dJSUmV94wdOxYAcOPGDVWVqfFkMhmysrKQmpoKFxcXhIWFYcKECXj27FmV94wePRoAcOvWLRVVqTni4+MREBCA4OBg6OjoYNy4cYiIiKiyf+vWrTFw4EDcvXtXhVVqlgsXLuDbb79FaGgomjZtismTJyM0NLTK/iYmJrCxscHt27dVWKVmE0LgypUruHTpEtzd3XHq1CmMGTMGBQUFVd4zZswYAEBaWpqqyvxr4Mh1/SgtLRU7d+4U5ubmQkdHR/j6+r7U/WfPnhWjR4+up+o0k1wuF2lpaRXa7t27p5hf+v3331d5r4+Pj2jVqhV3DamD0tJS4erqWuMI9sOHDwUAcezYMRVXqJlu3bpV4euysjIxc+bMGkewy38OHLmum+joaGFsbFzjCPa0adPEhAkTVFiZ5jp//rxo0aKF0NPTE/v376+y3yeffCKGDh2qwsoaj7KyMvHhhx/WOIItk8mEjo6O2LVrl4orVA+OXNejO3fuYPLkySgrK8Pp06eRmpqKoqIiREVF1foxQkJCMHPmzHqsUrMIIeDt7Q09Pb0K7R07dsSJEydgbm6O+fPn4/vvv1d6f0pKCjw8PBrvnpwv6cKFC7h27VqFNl1dXQQFBcHV1bXaEexr167BzMwMQ4cOVVW5GisqKgonT56s0KatrY0tW7Zg5syZ1Y5gp6SkoF27drC1tVVVuQ1aUVERNm3aBCFEhXZra2uEhYVBV1e32hHsq1evwsPDQxWlaozS0lL4+vpCLpdXaO/Xrx/Cw8NhbGwMFxeXKkewU1JS4O7uropSNVpSUhLi4+MrtGlra2Pjxo2YPXt2tSPYN27cgJGRkeKTskaDI9fSys/PF6NGjar15P3S0lKxZs0ace/ePSGEELm5ueKTTz4R8+fPr88yNYpcLhdffPGFMDQ0rDRyXe7+/fuiR48eAoD497//XeFaXl6esLCwqHLVM1X0xx9/iK5du4q+ffuKuLi4StdLSkrE5MmTqxzBnjdvnti0aZOqytVYUVFRwtjYWPz8889Kr9c0gj179mzh7++vilIbvMLCQjFy5EhhY2MjPvroI1FSUlKpT0xMjDAxMVE6gl2+kw7XdNRe+etI3759xTvvvCOePXtWqc+LI9ihoaEVrl2/fl3069eP203WUWJiojA3Nxd9+/ZV+smMXC4Xs2fPrnIE+8svv6z0N1eTcUFjPfnqq6/Ejh07Xuqeq1evitdee020b99evPHGGyIkJITTE16CXC4XvXr1EgBE3759xaNHj5T2ezFgr127VgjxPIC89957nKJQS3FxcWL8+PEiKytLyGQycebMGaX9SkpKhIuLS6WAffz4ceHl5cXfbwmUL0g0MDAQp06dUtqnqoB98OBB8eGHH/LnUAuFhYXCxcVFsTNCRkZGlQdjKAvYjx8/FiNHjhR37txRVckNXklJiZg2bZpin+oHDx6I9PR0pX2VBeyioiIxbtw4kZSUpLKaNVFiYqIYPXq0uH//vpDL5SI2NlZpP7lcLj766KNKATs2Nla4u7s3qq2FGa7rSefOnUVWVtZL33f16lUxePDgGlf4k3L/+te/RLdu3QQA0b9//yoDdnp6uiJgr1ixQowdO/al3ww1VnFxcWLSpEkVTljMzMyscjTuzwH7559/FpMnT+ZIkkSuXbsm2rZtK4yMjETTpk1rHbDXrl0rpk6dyoN8aqGwsFBMmjRJnDt3rkL7jRs3qrznzJkzioC9ceNGMXjw4Bq3RqT/rzxYHz58uEJ7dW9OygO2vr6+8PHxEba2tiI6Orq+S9VoiYmJYuzYsRVOcs3Ozlb6CYIQlQO2j4+PGDduXKPbcpXhuh7k5eUJAOL27du16v/nI3FfPEGQXs79+/eFvb29+OKLLwQA0a9fvyoD9p07d0TLli2FtrY2g3UtxcXFiYkTJ1Y6ujwjI0PMnTu32oA9bNgwAUCMHTu2yhdmejXDhw8Xu3btqlXALt86zs3NjcG6FgoLC8WECRMqBWshnn9qoGxKVLmjR48KLS0tYWZmxmD9EqoK1kII8d1334moqKgq7z19+rTQ0dERxsbGDNZ1pCxYC/F82up7771X5QCJXC5XLGp3cHBolHvoc0FjPSgtLQUAHD58uFb9r1+/XuHrDh06SF5TY9GhQwfo6+vjvffewxdffIELFy7AwcEBjx49qtT3b3/7G6ZPn47AwEAuMKqFuLg4ODg4ICsrq9LCIjMzM+zbtw+zZs2qdA0A9PT0sHLlSowZMwYhISFo0qSJqspuFKZOnYr79+/j4MGDEEJg1KhROH36dKV+2traWLx4Mdzc3BAYGAhdXV01VNtwFBYWYuzYsdi/f7/SLSMNDAzg6OiI8+fPK9rECwsdHR0d4ejoiBMnTqB3794qqbmhKy0txdSpUxEYGIj09PRK15s3bw4nJ6cKGwO8+JwPGTIE48ePR1hYGKytrVVSsyZKSkqCnZ0dbt26VWlBerNmzXD27Fm4ubkpXayupaWFr776Cg4ODti3bx+MjIxUVfZfDsO1hFq2bIl27dph9erVtdovubq9IenleXl5Yfv27VizZg0WL15cZcDOzc2Fo6Mjg3UtxMfHY/fu3ejfvz+io6MxatQo5OfnA3j+h23BggXw9PSEs7MzQkJCAAAJCQmIjY1VPMbt27exe/duBut64OrqiuDgYAwfPrzGgJ2ens5gXQsymQxr167F6NGj0bRpU0ydOhU7d+5UXD916hSioqJw9OhRxMbGKnZiWb9+vaJPQkIC1q1bx2BdS0IIrF27Fv369UOzZs0wa9Ys/Prrr4rr8fHx2LlzJw4ePIj4+Hjk5uYCAH788UdFnxs3bmDhwoUM1nWQkpKCgIAA2NjYIDExEfb29sjKylJcX7FiBd566y189NFHCA4OBvD89f3gwYOKPsnJyY0+WAPgbiFSW7BggQAgXF1dq10ZXlxcLObNm6fCyjTf06dPRf/+/YVcLlccf47/LXIsnwffGD+mqovyaRwymUzMmTNHABA2NjYiLy9PLFq0SGzbtq3SPQUFBWL8+PGqLrXR8vT0FPHx8UIIIU6cOKGYIlK+AO/p06dcuPiSyl+7k5KSRNu2bRVTyCIjI4Wnp6fSj8U//PBDcenSJVWXqjHKpypdu3ZN/O1vfxNaWlrC19dXxMfHC2dnZ5GXl1fpni+++EKcPn1a1aVqrPLfa7lcLlauXCkAiD59+ojMzEyxYsUK8dNPP1W6RyaTCXt7e77G/A/nXNeT9PR00bp1awFAzJo1S+mWTXK5XHz66aciMjJSDRU2TOVHmo8YMUIEBARUmvtb7oMPPlC82L4YsNu2bSvmzJlTabsmqj25XK4I2B06dBA//vij0n6lpaWiadOmIiEhQcUVap7o6GgxcOBA8e2334q7d+8q7RMWFiY+/fRTxdflAVtHR0d8+OGHYunSpZxjXQfJycmKgG1nZ1flfNN58+YJLy8v1Ranoa5fv64I2IMGDVIarIUQYs2aNWLcuHEqrq7x8Pb2FgCEmZmZ+Prrr5X2kcvlok2bNjyM6n8YriV25MgRkZycLIQQIiIiQhgaGgoAYvDgweLUqVOKkZCbN28KT09PsWjRInWW26CUB2sAin/GxsbCy8tLhIeHV9jmJyYmRsyaNavCvW5ubly8KJEXA3b5CPaf+fv7i3HjxnHxYh2Vn/xX/juvpaUl7O3thZ+fX4W9ZGUymejXr1+FN/I7duwQAISLi4vSN/j0cl4M2MpeR9LT04WFhQUXL0roxYCt7ITj3Nxc0a9fP45c17PygF0+gv1nv//+u7Czs6tywKuxYbiWUGBgoHjrrbeEhYWFImAnJiaKPn36KP4wtmjRQnTo0EEYGBiIb775hh+hvITExERx8eJFcfLkSdG9e3excOFCMXz4cMVz26lTJ7F48WKRlJQk5HK5GDhwYIXtf3x9fRms6yAjI6PCFpHVBeyTJ08KV1dXBus6Ki4uFjt37hS3b98WDg4OwsPDQ0ydOlXxpt3IyEhMnz5dHD16VMhkMrF48eIKx0Dn5OQINzc3BmsJVRWwHz9+LEaPHs1gXQ+qCthPnz4VEydOZLBWkaoC9rlz58T48eMZrF/AcC2RPXv2CD8/PyHE84/DX9y0vqysTJw5c0Z89dVX4p///KfYsGFDlR/tUu1cvXpV9O3bVyQnJ4ubN28Kb29v0b17d0XQ7t+/vxgwYIAICgoSQjwPgtVt30TVKygoEDNmzKh0wt+fA/bjx4/F8ePHhYeHB4O1xJ49eyacnZ2Fr6+vePLkifD19VVsb1jF7a8OAAAbM0lEQVQ+RWfSpEnCxcVFcU9UVBSDdT14MWD7+/uLnJwcMXbsWAbrevRiwPbx8REFBQXCzc2NwVrFXgzY9+7dE7GxsUq3Z23sGK4l4unpqfjlksvl4ty5c2Lz5s1i69atDBn15OrVq6Jfv36KTwnkcrmIjo4W77//vmjevLnisAyqm4cPH4pZs2aJmJgYERoaqngTWe7FY2/btWsnJk6cyN/5evJiwC6XlpYmVq5cqTg8SV9fXzx8+FCNVTYOycnJolWrVgKA6N69O4O1Cly/fl20b99eABCdO3fmgImarFixQgAQpqamwsnJicFaifJMrZWSkiIAoEePHvW5KYnGWrZsGY4ePYpu3bohJiYGd+7cUVyztrbGqVOnoKOjo8YKNVNqaiqmTJmCgIAAvPHGG4r2p0+fIjQ0FAEBAQgKCoKxsbEaq2zYvL294e7ujp49eyrahBAoKSlRbKtXVlYGa2trmJmZcbu9elZcXAx3d3eMHz8e77zzjqJdCIGYmBj4+flhzJgxcHZ2VmOVjcPu3bsxe/Zs7mOtQhEREZgwYQKOHDkCGxsbdZfTKAkhMHbsWMXf2aZNm6q7pL+c1NRUANznus4WLVoECwsLnD17Fv369cPq1atx8uRJHDp0CDdu3MDNmzfVXaJGuHTpUoU9TXv06IGdO3di+vTpuHLliqLd0NAQbm5u2L9/P4N1HeXn52PHjh2IiYnB999/D2trazRt2hStWrXC119/DeD5wQ82NjYM1irQpEkT7Nq1C/v376+wB7CWlhZsbGywadMmBuuXkJaWhuLi4krtWVlZyMjIqPbenJwcButXcP/+faVnQBQUFOD+/fvV3pueno6wsDAGawncu3dPaXtaWlqFg3n+TCaToXfv3gzWtcFpIfXHzc1NPHnyRN1lNHh79uwRU6ZMEY6OjmLjxo0VrqWmpor+/fsr9vlVtpqZXs21a9eEmZmZYm5v27ZthYuLi3B1dRW6urriypUrIjMzk1NBVKx8ioiPj48Q4vm8+BcX8FLtHDx4ULi4uFT4/c3MzBRDhw4VFy9erPbe7Ozs+i5PI0VGRopx48ZVOG8gPz9fODk51bg1LV/bpSGXy4Wnp6fYu3dvhfYTJ04IBweHCmtr/uzhw4ecClKD8kzNo7okdPjwYXTu3BmvvfYa9u3bpzhtil5dfHw8EhMTERQUBADIzMyscN3c3Bzbt2/HkCFD4OjoiClTpnD0TiLdu3fHjRs3EBMTgz59+qBDhw7Q0tICAMyaNQu5ubl4/fXX1Vxl41M+gj18+HAcOHAAffr0wapVq9RdVoMzevRolJWVKY7cfvLkCVxdXbF+/XpYWFhUe2/r1q1VVKVmGTZsGEpLS+Hh4YGdO3dCLpdj8uTJWLBgAYYNG1btvW3atFFRlZpNS0sL27Ztw/Tp0yGXyzFx4kRERkZizZo12L17NwwMDKq8t2XLliqstGFjuJaQra0txowZg/j4ePj4+GDRokXqLqnBi4iIgKWlJYDnH0ldvnwZmzdvxqNHj/Dee+/hjTfewBtvvAEXFxe89dZbDNYSMzExwciRI5Gdna1oKy4uRlFREfr376/Gyhq3Jk2a4KuvvsLWrVuxatUqHmn+isaNGwchBKZMmYKHDx9i/fr16Nevn7rL0mgODg4QQsDDwwMlJSX4/PPPYW9vr+6yGhU9PT34+/tj+vTpiI+PR0xMDHbv3s3BQAnxFVlCxsbGOHjwIM6fP1/ju3CqnYEDB2Ls2LHo378/Ll26hMePHyuu+fj4IDk5GcbGxhg/fjzGjh2rxko12/379zFjxgy0bdsWxcXFWLVqFfT09NRdVoO3c+dOdOrUCUOGDKnQvmfPHhgYGGD06NFV3pudnY3AwEAG6zoaPHgwvL29YWZmxjnUKmJlZQVvb2/o6urC2tpa3eU0Svr6+pg1axZcXFzw448/MlhLjAsaJWZsbMxgLaGhQ4di06ZN0NbWhqurK3x8fHD58mWkp6dj6NChOHXqFFq3bs1gXc8sLCzwzTffQCaTYdu2bejevbu6S9IIY8aMwerVqxEdHa1o27NnDwIDA2sczZs+fTqDdR1lZWXB1dUVmzZtwocffoipU6cqXeRI0ikoKICrqytWrFiBZcuWwcPDQ+kiR6pfkZGR+O6775CWloaDBw9iz5496i5Jo3ArPmqw1qxZAwcHBwwaNEjdpRC9sry8PLi6umL58uXIzMxEYGAggoKCuPtKPSsP1i9OBdm3bx+2b9+OwMBAPv/1oDxYvzgVJDw8HBs2bMDOnTthZGSk5gobhxfnWDdr1gwlJSWYNm0aPDw8MGnSJHWX16CVb8XHcE0NRnx8POLj4zFo0CBcuHABV65cwerVq9VdFlGd5eXlYcSIETAxMcGBAwcY7OqosLCwxq3Ctm/fjt69e1eaY71v3z60aNECQ4cOrc8SG6Xff/8dzZo1q/SpzLFjx1BUVMQ1MyoghMC8efOwatWqClNBSkpKsGDBAnz33Xd8/akDhmtqkNavX4+lS5fip59+wsyZMxW7VxA1ZHv27EFAQACePn2KpUuXVpqDTS/n888/x4gRIzBixAh1l0JEjQjDNTVYFy9eRN++fdVdBpEkyudYBwUFoaSkBG5ubli2bBkPy3gFubm5WLp0KXx8fKCvr499+/YxYKtAQUEBoqOjcfPmTbRr1w729vYwMTFRd1mNzv379xETEwMhBPr06YNevXqpu6RGhyc0UoPFYE2aIjQ0tMIcaxMTE/z2229YvXo1zp49q+7yGpTk5GS4uLhgwoQJKCgowK1bt3Dy5EkkJyeruzSNtn37dnTv3h1OTk6YPXs2Jk6ciI4dO2LFihUoKytTd3mNQm5uLubMmYPOnTvDzc0N7u7u6N27N6ysrBAfH6/u8holjlwTEdWDiIgIDB06tNotC+/duwczM7NKcxzz8/NRVFSEtm3b1neZGsPW1ha//fYb2rdvr+5SGoWysjLMnz8f9+7dw9SpU9GzZ09cvXoVBw4cwNatWwE83w1n37590NHRUXO1muvWrVtwc3PDqFGjMHjwYJiYmCAqKgq//vorrl27BgMDA4SEhGDMmDHqLrVR4LQQIqJ6kpOTAy8vLxgYGGDnzp3cE7yeZWdnw9bWFlevXlV6/fHjx3j69CnatGnD7QslIJPJ4OXlhREjRmDGjBmV1r4cPnwYM2bMQE5ODry9vfHll1+qqVLNlpSUhE8//RT//e9/0a1btwrXCgoK8NFHH2H79u1o2bIlEhIS0LFjRzVV2nhwWggRkcSEENi2bRtcXFzQqVMnGBgYYPr06SgpKVF3aRrNwMAA169fx/79+yGTyZCUlISAgADMmzcPffv2RatWrdCxY0d06dIFBw8eVHe5DVppaSk8PT1hbm4OLy8vpYvKR40ahf3790NHRwcrVqzAnTt31FCpZktKSoKzszM2btxYKVgDz8/c8PPzg6urKx49eoSFCxeqocrGi2/hiYgksmnTJty5cwcRERGKEdIbN27g2rVrPP2vHpmYmGDy5MlwdnaGrq4uZDJZhett2rRBhw4dkJqaCjc3N1y5cgWdO3dWU7UNV3mwDgkJwcyZMyGXy6GtrXyMzsrKCitWrMCXX36JkydPYvr06SquVnMlJSXBzs4OJSUlyM3NrbKflpYWNm3ahDNnzuDYsWMQQnCHLRXhyDURkQSEEPjhhx+watWqClMPunXrxmAtMblcjjVr1kAulyvafH19sXDhQvTq1Qu9e/eGl5cXfHx8kJycjAcPHuDixYu4du0aWrVqhePHj6ux+oZry5YtmDBhAt58801s3boVs2bNqvAz+DMvLy8AwIULF1RVosa7c+cO9u7di/fffx8FBQVwdHTEuXPnquxvamoKFxcXZGdn4+7duyqstHHjnGsiIgnk5OSgR48eyMjIqLBAsbi4GOfOnUNkZCTy8vJgYWGBKVOmVDniR9UTQiAsLAxubm5wcnKCv78/DAwMan3/Bx98AGtra0Xwo5r9ecSz/MCX8PBwvPPOO9i8eXOVv8+dOnXCu+++i5UrV6qqXI0lhAAAxc/i8OHDmDhxIgwMDHD06FFYWloqvS84OBhubm7IyclBq1atVFZvY8Q510REEmrVqhWaNGmCUaNGYcOGDfjggw9gaWmJ5s2bY+jQoVi+fDn+/e9/Y9q0aZgwYYLiDyXVXlJSElxdXZGYmAg/Pz9YWVlh/vz5yM/Pr9X9crkcV65cgYODQz1XqjlKS0vx73//u8JUGyMjI+zbtw8ODg749ddf8d577ykdwZbJZMjJyeFe4xJISkrCkSNHKrzJGTVqFPbu3Ytnz55VO4KdnZ2tWHtAqsE510REr0AIgUePHin+YGlpaeGXX36Bh4cHTpw4oehnaGgIBwcHDB8+HJ06dUJ0dDQ2b96Mw4cPY/To0eoqv8G5ceMGli9fjq1bt1Y4trmqNykJCQnQ1dVVHKTx5MkTLFy4EG+//TZ3Tail0tJSTJkyBQMHDqy0y0p5wHZ2dsavv/6qmN/74gj22bNnYW1tDWtra1WXrlGSk5MxcuRIxajoi5ycnBQ/B0dHRxw7dqzSCPbp06exZMkSVZVL4LQQIqJXZm1tjZ9//hkWFhaKttu3byMiIgLFxcUYMGAALCwsKm3F5+zsDFtbW3z++eeqLrnBcnR0xPbt29GuXbta9S8tLcW0adNQUFAAPT09ZGZmYsGCBZg0aVI9V6o5tm7dinfeeQfNmjXD2bNn8frrr1fq8+IUkXfffVcRsJ8+fQonJyf8+uuvSnezoNobMGAAzp8/j5kzZ8LX11fposSwsDA4OzujSZMmOHr0KAYNGgQAOHLkCAICArB9+3YuZlQBTgshInpFsbGxcHd3R0ZGBkaMGIEjR44ornXp0gXvvPMOZs+ejYEDByrd47pDhw5Kgwopd/HiRQghah2sAUBPTw8BAQEwNDSEsbExTpw4wWD9kpycnGBgYICCggK89dZbSElJqdTnxSkivr6++OCDD5Ceno7Jkyfjm2++YbCWwMiRI6Gvr4+tW7fi008/VfppzciRI7Fv3z4UFxdjxIgROHv2LEJDQ7Fly5YqAznVH04LISJ6CatXr0ZpaSk2b96MZs2a4dmzZ9i7dy9yc3Nhampa4/3379/H9evX4ejoqIJqNUNsbCyMjIxq1begoAAZGRkwNzeHnp4eduzYgXPnzr3Uokd6rn379rC3t8fAgQPh7e0NOzs7nDhxAj179qzQrzxgjxgxAlu2bMHevXuxZ88eTgeRyIwZM3D27Fk8e/YMP/zwAwBg/fr1lQLzyJEjsXfvXowZMwZ2dnawsrLC/v37K50AS/WPI9dERLXk7+8PfX19rFy5UjHv18DAAB4eHkqDdUJCAubOnYuUlBTcvXsX/v7+cHV1xX//+1/+wXsJjx49QmxsLMrKymrsq6enh9OnT1f42sbGpj7L02heXl4oKyuDn58fMjMzYWdnV+UIdlBQEJo2bYo9e/bA1tZWDdVqpp49e6K0tBTbt2+HjY0NfvjhB8ybN0/pCLaTkxPmzJmDwYMHY//+/WjatKkaKiaGayKiWigpKcH69evx2Wef1fqef/zjH3B2dkbfvn3Rs2dP3Lx5E8eOHUP37t3rsVLNY25ujuzsbGzZsqXGvlpaWtUerEEvZ9y4cThw4AA8PT1rDNiXLl3C4cOHGazrgaenJ0JDQ3H48GHY2Nhgw4YN+Oc//1kpYJeWlsLMzAyhoaEM1mrEcE1EVAvh4eFo27ZtpV0TqlL+R8/e3h6hoaFYsmQJvvrqK/7BewX29vYwNDTEokWLcPXq1Wr7Xrx4Ee3bt1dRZZrPwMAAVlZWOHXqFKZNm1ZtwHZwcGCwrifu7u747bffYGJiogjYP/74I+bOnVshYGtpaWH+/Pl8nVEzhmsiolq4fv06srOza9W3qKgIe/fuVXxtb2+PhQsX1ldpGq9Vq1aYPXs2njx5gjFjxuD27dtK+8lkMnzzzTcYN26ciitsuEpLS/Hdd9/h7NmzVW5r6OXlBT8/PwCoELCHDBmCkJAQbNmyBVlZWTA0NFRl6RolKSkJ27Ztq3LPdlNTU3Tq1AmJiYkVAvZPP/0ENzc3xMXFYceOHdDV1a31+gSqPwzXRES10KRJE1y8eBHXr1+vsa+RkVGlAKivr19fpTUKa9aswcCBA5GWlgZLS0v8/vvvFcJgdnY2JkyYAA8PDxgbG6ux0oajfB/rRYsWYfDgwXj99dexZs2aSr+7AwcORHJyMgoLCwE8D9g//fQTcnJyMHPmTPTq1Qtt2rRRx/+CRkhKSoKdnR1mzpyJtm3bYurUqQgLC6twcA8AvP3224o3OeUBu0+fPggJCcHixYvh7OysjvJJCYZrIqJasLCwgBACn332WY2nKxYVFdVq8R3VnoGBAcLDwzFlyhRkZWVh0qRJ6NmzJzw9PTF69Gh069YNzs7O8PDwUHepDcZ//vMf2Nvbo1u3brC0tMTTp0+xbNkydO3aFXZ2dti6dSvy8vKgpaUFFxcX7NmzR3Hvhx9+CEtLS4SFhXFXkDpIS0vDrl274ObmBkNDQwwYMAA7duyAk5MT/va3v+Hzzz9HQkICgOd7vR8/flwRuk1MTLB27VrF1DOOWP918BAZIqJaEELAwsICCQkJWLVqFZYtW1Zl323btqFr164YPny46gpsJIQQOHnyJEJCQvDHH39AW1sbgwYNwscff8w9lV+SEAJaWlp4/Pgxxo8fj2XLlkFXVxd+fn7YvXs3ioqKYGhoiIkTJ8LBwQFBQUE4duwYACA+Ph5Pnz6FlZWVmv8vGrbynwEABAQEICgoCBs2bMDu3bvh5+eHK1euAHi+OHrGjBm4dOkSPDw8FKe7btmyBZ6engzWfxHlh8gwXBMR1VJkZCQcHBxQVlYGb29vLFu2rNJes0lJSfj8889x6NAhHtxADUZ5wP7yyy8xYsQI5OfnKwJeZGQkgOeL5W7duoXOnTurt1gNFhgYiMDAQOzevRsGBgb4448/4O/vjx07duDhw4cAADc3N+zatUvNlZIyDNdERK9gy5YtmD17NmQyGYYOHYrFixfD0tISubm5CA4OxrZt23D06FEGEGpw/hywy926dQvbt2+Hn58fZs6ciaVLl6qxSs0XFBSEgIAA7N69W7FItKSkBAcPHoS/vz8iIiJw+/ZttGjRQs2V0p8xXBMRvaJz585h9uzZuHDhQoX28ePHw8fHh1vBUYNVVcAGnk9hyM7O5uJFFQgKCsL27duxZ8+eSruw5OTkwMjIiFNB/oLKwzWPPyciekmWlpY4f/48rl+/jnPnzkFHRwcDBgzgnF9q8Fq0aIH9+/dj/PjxAFAhYGtpaTFYq4inpycAYNKkSZUCduvWrdVVFtUSwzUR0Svq3r07T1skjVMesB0dHXHx4kU0adIE48aN45tHFfP09IQQAkOGDMGKFStw7949zJ49W91lUS1wWggRERFVkpiYiMGDB/NIczXz8vLC3bt3eaR5A1A+LYT7XBMREVEl169fZ7CWSGxsrNL98ePi4lBQUFDlfaWlpXjttdcYrBsYhmsiIiKqxN7ensFaIhcuXKh0AFVkZCSWLFkCuVxe5X1yuRwLFy5ksG5gGK6JiIioEhMTE3WXoDE++ugjdO/eHfPmzYMQApGRkVizZg12796NZs2aVXlfkyZNuCtIA8Q510REREQq8NNPPyEyMhJPnjypMVhTw8M510REREQSunTpUrXX+/TpgytXrqB79+78ZECDMVwTERER1VFJSQmWL1+Of/3rX0qvl08FOXPmDHr16oW5c+cqXeRIDR/DNREREVEdHD9+HMOHD0dOTg78/f2xdu3aCtf/PMf6k08+QY8ePRiwNRTDNREREdErCgwMREBAAA4dOoTo6GgkJiaie/fuuHbtmqJPYmJipTnWn3zyCSwsLJCdna2OsqkecUEjERER0SsoKytD3759ceHCBejq8tDrxq58QSN/E4iIiIhewc2bNyGTyZQG68zMTJw6dQrPnj1D//790atXLzVUSOrAcE1ERET0Ctq1a4fU1FQsXLgQI0eOREJCAi5evIi4uDhcvXpV0U9bWxurVq3CkiVL1FgtqQqnhRARERHVUllZGXR0dBRff/XVV/D29q7Ur1OnThg2bBjat2+PiIgIxMfHIyEhAX369FFluaRCnBZCRERE9BJkMhkmTZoEPz8/tGjRAgCwcuVKDBo0CEePHkVZWRkGDRoEGxsbdO3aFVpaWgCeB/J+/fohLi6O4boRYLgmIiIiqsHt27exYcMGhIaGwsbGBocOHULXrl0BAKNHj8bo0aOrvFdHRwf/+Mc/0KFDBxVVS+rErfiIiIiIqvHLL79gzZo1ePvtt/HkyRMEBQVh586dePr0aa3uz8nJwa1bt2Bra1vPldJfAUeuiYiIiKrw+++/4/bt29i0aZOizcLCAhYWFkr7x8bGIiEhATNnzoSenh5OnTqFL7/8Ehs2bICRkZGqyiY1YrgmIiIiUqKkpASrVq3C2bNna33P4MGDcerUKbRu3RpaWlqYOHEigoKC0LFjx3qslP5KGK6JiIiIlDh8+DDMzc2hp6f3UvctXLgQcrkccrmc2+81QgzXREREREokJyejqKioVn0zMjLw4MED9O3bFwCwePFiPHjwoD7Lo78oLmgkIiIiUkImk+HkyZPIz8+vsW/z5s1x/vz5Cm3t2rWrr9LoL4zhmoiIiEiJ3r17Iz8/H999912NfQsLCyGEUEFV9FfHcE1ERESkhJOTE1q2bIlvvvkGYWFh1fYNCwtDr169VFQZ/ZUxXBMREREpYWRkhOXLl6OsrAyTJ0/G0aNHlfa7d+8egoKCYG1treIK6a+I4ZqIiIioCnPnzsW7776LgoICjB49Gp9//jkyMjIAAKWlpQgJCcGIESOwfv16xXHn1LhppaSkCADo0aOHumshIiIi+ssRQsDHxwfz589XnMrYvn175Obmonv37vjtt9/w+uuvq7lKUrfU1FQADNdEREREtVJQUIBDhw7h4sWLaNKkCaysrODo6AhtbU4EIIZrIiIiIiLJlIdrvtUiIiIiIpIIwzURERERkUQYromIiIiIJMJwTUREREQkEYZrIiIiIiKJMFwTEREREUmE4ZqIiIiISCIM10REREREEmG4JiIiIiKSCMM1EREREZFEGK6JiIiIiCTCcE1EREREJBGGayIiIiIiiTBcExERERFJhOGaiIiIiEgiDNdERERERBJhuCYiIiIikgjDNRERERGRRBiuiYiIiIgkolv+H6mpqeqsg4iIiIiowdMCgJSUFKHuQoiIiIiIGrr/BwW5/GMhMjFYAAAAAElFTkSuQmCC;" vertex="1" parent="1">
          <mxGeometry y="1000" width="727" height="430" as="geometry" />
        </mxCell>
        <mxCell id="rDMtgLqNduICIHuUhlhb-5" value="&lt;font style=&quot;font-size: 30px;&quot; face=&quot;Times New Roman&quot;&gt;(a)&lt;/font&gt;" style="text;html=1;align=center;verticalAlign=middle;resizable=0;points=[];autosize=1;strokeColor=none;fillColor=none;" vertex="1" parent="1">
          <mxGeometry x="333.5" y="440" width="60" height="50" as="geometry" />
        </mxCell>
        <mxCell id="rDMtgLqNduICIHuUhlhb-6" value="&lt;font style=&quot;font-size: 30px;&quot; face=&quot;Times New Roman&quot;&gt;(b)&lt;/font&gt;" style="text;html=1;align=center;verticalAlign=middle;resizable=0;points=[];autosize=1;strokeColor=none;fillColor=none;" vertex="1" parent="1">
          <mxGeometry x="333.5" y="940" width="60" height="50" as="geometry" />
        </mxCell>
        <mxCell id="rDMtgLqNduICIHuUhlhb-7" value="&lt;font style=&quot;font-size: 30px;&quot; face=&quot;Times New Roman&quot;&gt;(c)&lt;/font&gt;" style="text;html=1;align=center;verticalAlign=middle;resizable=0;points=[];autosize=1;strokeColor=none;fillColor=none;" vertex="1" parent="1">
          <mxGeometry x="333.5" y="1440" width="60" height="50" as="geometry" />
        </mxCell>
      </root>
    </mxGraphModel>
  </diagram>
</mxfile>
